<?xml version="1.0" encoding="utf-8"?>
<!-- Generator: Adobe Illustrator 27.1.1, SVG Export Plug-In . SVG Version: 6.00 Build 0)  -->
<svg version="1.1" id="Layer_1" xmlns="http://www.w3.org/2000/svg" xmlns:xlink="http://www.w3.org/1999/xlink" x="0px" y="0px"
	 viewBox="0 0 548.92 25.39" style="enable-background:new 0 0 548.92 25.39;" xml:space="preserve">
<style type="text/css">
	.st0{fill:#FFFFFF;stroke:#000000;stroke-width:2;stroke-linecap:round;stroke-linejoin:round;stroke-miterlimit:10;}
</style>
<g>
	<g>
		<path class="st0" d="M539.47,22.62l-4.64-4.64c-0.37-0.37-0.37-0.96,0-1.33l4.64-4.64c0.37-0.37,0.96-0.37,1.33,0l4.64,4.64
			c0.37,0.37,0.37,0.96,0,1.33l-4.64,4.64C540.43,22.98,539.83,22.98,539.47,22.62z"/>
		<path class="st0" d="M9.42,22.62l-4.64-4.64c-0.37-0.37-0.37-0.96,0-1.33l4.64-4.64c0.37-0.37,0.96-0.37,1.33,0l4.64,4.64
			c0.37,0.37,0.37,0.96,0,1.33l-4.64,4.64C10.38,22.98,9.78,22.98,9.42,22.62z"/>
		<line class="st0" x1="15.33" y1="17.31" x2="534.39" y2="17.31"/>
	</g>
	<g>
		<path d="M273.72,23.85l-5.15-5.15c-0.77-0.77-0.77-2.01,0-2.78l5.15-5.15c0.77-0.77,2.01-0.77,2.78,0l5.15,5.15
			c0.77,0.77,0.77,2.01,0,2.78l-5.15,5.15C275.73,24.62,274.48,24.62,273.72,23.85z"/>
	</g>
</g>
</svg>
