<?xml version="1.0" encoding="utf-8"?>
<!-- Generator: Adobe Illustrator 27.1.1, SVG Export Plug-In . SVG Version: 6.00 Build 0)  -->
<svg version="1.1" id="Layer_1" xmlns="http://www.w3.org/2000/svg" xmlns:xlink="http://www.w3.org/1999/xlink" x="0px" y="0px"
	 viewBox="0 0 54.92 25.39" style="enable-background:new 0 0 54.92 25.39;" xml:space="preserve">
<style type="text/css">
	.st0{fill:#FFFFFF;}
</style>
<g>
	<g>
		<g>
			<path class="st0" d="M6.89,17.3c-2.54,0-4.61-2.07-4.61-4.61s2.07-4.61,4.61-4.61h40.44c2.54,0,4.61,2.07,4.61,4.61
				s-2.07,4.61-4.61,4.61H6.89z"/>
			<path d="M47.33,9.09c1.99,0,3.61,1.62,3.61,3.61s-1.62,3.61-3.61,3.61H6.89c-1.99,0-3.61-1.62-3.61-3.61
				c0-1.99,1.62-3.61,3.61-3.61H47.33 M47.33,7.09H6.89c-3.1,0-5.61,2.51-5.61,5.61v0c0,3.1,2.51,5.61,5.61,5.61h40.44
				c3.1,0,5.61-2.51,5.61-5.61v0C52.93,9.6,50.42,7.09,47.33,7.09L47.33,7.09z"/>
		</g>
		<g>
			<rect x="7.67" y="12.14" class="st0" width="38.51" height="1.76"/>
			<polygon points="46.17,12.14 7.67,12.14 7.67,13.9 46.17,13.9 46.17,12.14 			"/>
		</g>
	</g>
</g>
</svg>
