<?xml version="1.0" encoding="utf-8"?>
<!-- Generator: Adobe Illustrator 27.1.1, SVG Export Plug-In . SVG Version: 6.00 Build 0)  -->
<svg version="1.1" id="Layer_1" xmlns="http://www.w3.org/2000/svg" xmlns:xlink="http://www.w3.org/1999/xlink" x="0px" y="0px"
	 viewBox="0 0 1100.01 2326.57" style="enable-background:new 0 0 1100.01 2326.57;" xml:space="preserve">
<style type="text/css">
	.st0{opacity:0.01;}
	.st1{fill:none;stroke:#000000;stroke-width:3;stroke-linecap:round;stroke-miterlimit:10;}
</style>
<g class="st0">
	<g>
		<g>
			<g>
				<g>
					<g>
						<path class="st1" d="M0,0.6c368.33,0,731.68,0,1100.01,0"/>
						<path class="st1" d="M1100.01,8.74c-150.69,2.73-296.96,2.52-443.33,0.89c-105.79-1.18-208.74-4-314.47-4.52
							C225.82,4.54,114.17,6.83,0,8.86"/>
						<path class="st1" d="M1100.01,16.89c-153.24,5.46-299.68,5-444.27,1.78c-106.75-2.38-207.81-8-314.46-9.04
							C223.85,8.49,112.97,13.06,0,17.11"/>
						<path class="st1" d="M1100.01,25.04c-155.78,8.18-302.42,7.43-445.22,2.67C547.07,24.11,447.9,15.7,340.35,14.15
							C221.89,12.43,111.78,19.29,0,25.37"/>
						<path class="st1" d="M1100.01,33.19c-158.33,10.91-305.16,9.82-446.17,3.56c-108.7-4.83-205.97-16.01-314.42-18.07
							C219.93,16.38,110.58,25.53,0,33.63"/>
						<path class="st1" d="M1100.01,41.34c-160.88,13.64-307.9,12.17-447.12,4.44c-109.68-6.09-205.04-20.01-314.4-22.59
							C217.97,20.33,109.39,31.76,0,41.89"/>
						<path class="st1" d="M1100.01,49.48c-163.43,16.37-310.65,14.48-448.06,5.33c-110.67-7.37-204.12-24.01-314.38-27.11
							C216.01,24.27,108.19,37.99,0,50.15"/>
						<path class="st1" d="M1100.01,57.63C934.03,76.73,786.61,74.38,651,63.86c-111.66-8.67-203.2-28.01-314.36-31.63
							C214.05,28.22,106.99,44.22,0,58.41"/>
						<path class="st1" d="M1100.01,65.78c-168.53,21.83-316.15,18.98-449.96,7.11C537.4,62.9,447.78,40.88,335.71,36.74
							C212.09,32.16,105.8,50.46,0,66.67"/>
						<path class="st1" d="M1100.01,73.93c-171.08,24.55-318.9,21.17-450.91,8C535.46,70.59,447.75,45.91,334.78,41.26
							C210.13,36.11,104.6,56.69,0,74.93"/>
						<path class="st1" d="M1100.01,82.08c-173.62,27.28-321.65,23.33-451.85,8.89C533.52,78.25,447.73,50.95,333.85,45.78
							C208.17,40.05,103.41,62.92,0,83.19"/>
						<path class="st1" d="M1100.01,90.23c-176.17,30.01-324.41,25.45-452.8,9.78c-115.64-14.12-199.5-44.02-314.29-49.7
							C206.2,44,102.21,69.16,0,91.45"/>
						<path class="st1" d="M1100.01,98.37c-178.72,32.74-327.15,27.54-453.75,10.67C529.63,93.49,447.68,61.02,331.99,54.82
							C204.24,47.95,101.02,75.39,0,99.71"/>
						<path class="st1" d="M1100.01,106.52c-181.27,35.47-329.9,29.6-454.7,11.56c-117.62-17-197.66-52.02-314.25-58.74
							C202.28,51.89,99.82,81.62,0,107.97"/>
						<path class="st1" d="M1100.01,114.67c-183.82,38.19-332.64,31.62-455.64,12.44c-118.61-18.49-196.73-56.02-314.24-63.26
							C200.32,55.84,98.63,87.85,0,116.23"/>
						<path class="st1" d="M1100.01,122.82c-186.37,40.92-335.38,33.61-456.59,13.33C523.83,116.15,447.61,76.13,329.2,68.37
							C198.36,59.78,97.43,94.09,0,124.48"/>
						<path class="st1" d="M1100.01,130.97c-188.91,43.65-338.11,35.57-457.54,14.22c-120.57-21.55-194.89-64.03-314.2-72.3
							C196.4,63.73,96.24,100.32,0,132.74"/>
						<path class="st1" d="M1100.01,139.11c-191.46,46.38-340.83,37.5-458.49,15.11C519.99,131.09,447.56,86.2,327.34,77.41
							C194.44,67.68,95.04,106.55,0,141"/>
						<path class="st1" d="M1100.01,147.26c-194.01,49.11-343.55,39.41-459.43,16c-122.49-24.75-193.04-72.03-314.16-81.33
							C192.48,71.62,93.84,112.78,0,149.26"/>
						<path class="st1" d="M1100.01,155.41c-196.56,51.84-346.26,41.29-460.38,16.89c-123.44-26.39-192.11-76.03-314.15-85.85
							C190.52,75.57,92.65,119.02,0,157.52"/>
						<path class="st1" d="M1100.01,163.56c-199.11,54.56-348.95,43.14-461.33,17.78C514.3,153.26,447.49,101.3,324.55,90.97
							C188.55,79.51,91.45,125.25,0,165.78"/>
						<path class="st1" d="M1100.01,171.71C898.35,229,748.37,216.68,637.73,190.37c-125.31-29.79-190.27-84.04-314.11-94.89
							C186.59,83.46,90.26,131.48,0,174.04"/>
						<path class="st1" d="M1100.01,179.86c-204.21,60.02-354.32,46.78-463.22,19.56C510.57,167.86,447.44,111.37,322.7,100
							C184.63,87.41,89.06,137.72,0,182.3"/>
						<path class="st1" d="M1100.01,188c-206.75,62.75-356.98,48.56-464.17,20.44c-127.12-33.34-188.42-92.04-314.07-103.93
							C182.67,91.35,87.87,143.95,0,190.56"/>
						<path class="st1" d="M1100.01,196.15c-209.3,65.48-359.64,50.32-465.12,21.33c-128-35.18-187.5-96.04-314.05-108.44
							C180.71,95.3,86.67,150.18,0,198.82"/>
						<path class="st1" d="M1100.01,204.3c-211.85,68.2-362.28,52.07-466.06,22.22c-128.86-37.05-186.57-100.04-314.04-112.96
							C178.75,99.24,85.48,156.41,0,207.08"/>
						<path class="st1" d="M1100.01,212.45c-214.4,70.93-364.9,53.79-467.01,23.11c-129.7-38.97-185.65-104.04-314.02-117.48
							C176.79,103.19,84.28,162.65,0,215.34"/>
						<path class="st1" d="M1100.01,220.6c-216.95,73.66-367.51,55.5-467.96,24c-130.52-40.93-184.73-108.05-314-122
							C174.83,107.14,83.08,168.88,0,223.6"/>
					</g>
					<path class="st1" d="M0,230.52c50.36-32.07,82.74-66.67,158.59-86.27c49.99-12.9,103.58-19.38,160.03-13.99
						c53.2,5.13,93.8,19.2,132.78,36.92c55.06,25.16,105.87,57.75,182.22,81.7c40.5,12.7,88.98,23.23,146.03,27.16
						c87.75,6.04,191.61-2.33,320.35-44.62"/>
					<path class="st1" d="M0,237.45c50.52-31.07,82.85-64.65,159.07-84.24c50.52-12.95,103.92-19.94,160.13-15.26
						c52.92,4.49,93.49,17.75,132.93,34.84c55.55,24.3,106.88,56.5,183.07,80.4c40.93,12.85,89.54,23.48,146.22,27.97
						c88.96,7.05,191.53,1.4,318.59-38.89"/>
					<path class="st1" d="M0,244.37c50.68-30.08,82.96-62.64,159.55-82.22c51.06-13.01,104.25-20.5,160.22-16.54
						c52.65,3.85,93.22,16.2,133.09,32.76c56.11,23.3,107.89,55.24,183.92,79.1c41.37,12.99,90.11,23.74,146.41,28.78
						c90.16,8.07,191.46,5.14,316.83-33.16"/>
					<path class="st1" d="M0,251.3c50.84-29.09,83.07-60.62,160.03-80.2c51.59-13.06,104.59-21.06,160.31-17.82
						c52.37,3.2,92.92,14.72,133.24,30.68c56.61,22.41,108.9,53.99,184.76,77.8c41.81,13.13,90.68,24.02,146.6,29.6
						c91.38,9.11,191.38,8.87,315.07-27.43"/>
					<path class="st1" d="M0,258.23c51-28.1,83.17-58.61,160.51-78.17c52.13-13.11,104.92-21.61,160.4-19.1
						c52.09,2.56,92.62,13.25,133.4,28.6c57.12,21.51,109.91,52.73,185.61,76.5c42.24,13.28,91.25,24.32,146.78,30.41
						c92.61,10.15,191.3,12.6,313.3-21.7"/>
					<path class="st1" d="M0,265.15c51.16-27.11,83.28-56.59,160.99-76.15c52.66-13.16,105.26-22.3,160.5-20.38
						c51.81,1.8,92.31,11.77,133.56,26.53c57.62,20.61,110.92,51.48,186.45,75.2c42.68,13.42,91.82,24.63,146.97,31.22
						c93.84,11.21,191.22,16.33,311.54-15.97"/>
					<path class="st1" d="M0,272.08c51.32-26.12,83.39-54.58,161.47-74.13c53.2-13.21,105.6-22.87,160.59-21.66
						c51.53,1.14,92.01,10.3,133.71,24.45c58.12,19.72,111.94,50.22,187.3,73.9c43.12,13.56,92.4,24.96,147.16,32.03
						c95.07,12.29,191.14,20.07,309.78-10.24"/>
					<path class="st1" d="M0,279c51.48-25.12,83.5-52.56,161.95-72.1c53.73-13.27,105.93-23.45,160.68-22.93
						c51.25,0.48,91.7,8.82,133.87,22.37c58.62,18.83,112.95,48.97,188.14,72.59c43.55,13.7,92.97,25.3,147.35,32.85
						c96.31,13.37,191.06,23.8,308.02-4.52"/>
					<path class="st1" d="M0,285.93c51.64-24.13,83.61-50.55,162.43-70.08c54.26-13.32,106.27-24.02,160.78-24.21
						c50.97-0.18,91.39,7.35,134.02,20.29c59.12,17.94,113.96,47.71,188.99,71.29c43.99,13.85,93.55,25.65,147.53,33.66
						c97.56,14.47,190.98,27.53,306.25,1.21"/>
					<path class="st1" d="M0,292.86c51.8-23.14,83.72-48.54,162.91-68.05c54.8-13.37,106.6-24.6,160.87-25.49
						c50.69-0.83,91.08,5.88,134.18,18.21c59.61,17.06,114.97,46.46,189.83,69.99c44.43,13.99,94.12,26.02,147.72,34.47
						c98.81,15.58,190.91,31.26,304.49,6.94"/>
					<path class="st1" d="M0,299.78c51.96-22.15,83.83-46.52,163.39-66.03c55.33-13.42,106.93-25.17,160.96-26.77
						c50.41-1.49,90.77,4.41,134.33,16.13c60.11,16.17,115.98,45.2,190.68,68.69c44.86,14.13,94.7,26.4,147.91,35.29
						c100.06,16.71,190.83,35,302.73,12.67"/>
					<path class="st1" d="M0,306.71c52.12-21.16,83.94-44.51,163.87-64.01c55.87-13.47,107.26-25.74,161.06-28.05
						c50.13-2.15,90.46,2.94,134.49,14.05c60.6,15.29,116.99,43.95,191.52,67.39c45.3,14.27,95.28,26.79,148.1,36.1
						c101.31,17.85,190.75,38.73,300.97,18.4"/>
					<path class="st1" d="M0,313.63c52.28-20.16,84.05-42.49,164.36-61.98c56.4-13.53,107.6-26.31,161.15-29.33
						c49.85-2.8,90.14,1.47,134.65,11.97c61.09,14.41,118,42.69,192.37,66.09c45.74,14.42,95.85,27.2,148.28,36.91
						c102.57,19.01,190.67,42.46,299.21,24.13"/>
					<path class="st1" d="M0,320.56c52.44-19.17,84.15-40.48,164.84-59.96c56.94-13.58,107.93-26.89,161.24-30.6
						c49.56-3.46,89.83,0.01,134.8,9.89c61.58,13.54,119.01,41.43,193.22,64.79c46.17,14.56,96.43,27.61,148.47,37.73
						c103.82,20.18,190.59,46.19,297.44,29.86"/>
					<path class="st1" d="M0,327.48c52.61-18.18,84.26-38.46,165.32-57.93c57.47-13.63,108.26-27.46,161.34-31.88
						c49.28-4.11,89.52-1.45,134.96,7.82c62.07,12.66,120.02,40.18,194.06,63.49c46.61,14.7,97,28.04,148.66,38.54
						c105.08,21.36,190.51,49.93,295.68,35.58"/>
					<path class="st1" d="M0,334.41c52.77-17.19,84.37-36.45,165.8-55.91c58-13.68,108.59-28.02,161.43-33.16
						c49-4.76,89.2-2.92,135.11,5.74c62.56,11.79,121.03,38.92,194.91,62.19c47.05,14.85,97.57,28.47,148.84,39.35
						c106.34,22.56,190.43,53.66,293.92,41.31"/>
					<path class="st1" d="M0,341.34c52.93-16.2,84.48-34.43,166.28-53.89c58.54-13.73,108.92-28.59,161.52-34.44
						c48.72-5.42,88.88-4.38,135.27,3.66c63.05,10.92,122.04,37.67,195.75,60.89c47.48,14.99,98.15,28.92,149.03,40.16
						c107.59,23.78,190.36,57.39,292.16,47.04"/>
					<path class="st1" d="M0,348.26c53.09-15.21,84.59-32.42,166.76-51.86c59.07-13.79,109.25-29.16,161.61-35.72
						c48.43-6.07,88.57-5.83,135.43,1.58c63.53,10.05,123.05,36.41,196.6,59.59c47.92,15.13,98.72,29.38,149.22,40.98
						c108.85,25.01,190.28,61.12,290.4,52.77"/>
					<path class="st1" d="M0,355.19c53.25-14.21,84.7-30.41,167.24-49.84c59.61-13.84,109.58-29.72,161.71-37
						c48.15-6.72,88.25-7.29,135.58-0.5c64.02,9.18,124.07,35.16,197.44,58.28c48.36,15.27,99.29,29.84,149.41,41.79
						c110.1,26.25,190.2,64.86,288.63,58.5"/>
					<path class="st1" d="M0,362.11c53.41-13.22,84.81-28.39,167.72-47.81c60.14-13.89,109.91-30.29,161.8-38.27
						c47.86-7.37,87.93-8.75,135.74-2.58c64.5,8.32,125.08,33.9,198.29,56.98c48.79,15.42,99.86,30.31,149.59,42.6
						c111.36,27.51,190.12,68.59,286.87,64.23"/>
					<path class="st1" d="M0,369.04c53.57-12.23,84.92-26.38,168.2-45.79c60.68-13.94,110.24-30.85,161.89-39.55
						c47.58-8.01,87.62-10.2,135.89-4.66c64.99,7.46,126.09,32.65,199.13,55.68c49.23,15.56,100.42,30.8,149.78,43.42
						c112.61,28.79,190.04,72.32,285.11,69.96"/>
					<path class="st1" d="M0,375.97c53.73-11.24,85.03-24.36,168.68-43.77c61.21-13.99,110.57-31.42,161.99-40.83
						c47.3-8.66,87.3-11.65,136.05-6.74c65.47,6.6,127.1,31.39,199.98,54.38c49.67,15.7,100.99,31.29,149.97,44.23
						c113.85,30.09,189.96,76.05,283.35,75.69"/>
					<path class="st1" d="M0,382.89c53.89-10.25,85.14-22.35,169.16-41.74c61.75-14.05,110.9-31.98,162.08-42.11
						c47.01-9.31,86.98-13.1,136.2-8.82c65.96,5.74,128.11,30.14,200.82,53.08c50.1,15.84,101.55,31.78,150.16,45.04
						c115.09,31.4,189.88,79.79,281.59,81.41"/>
					<path class="st1" d="M0,389.82c54.05-9.26,85.24-20.33,169.64-39.72c62.28-14.1,111.23-32.54,162.17-43.39
						c46.73-9.95,86.66-14.55,136.36-10.89c66.44,4.89,129.12,28.88,201.67,51.78c50.54,15.99,102.11,32.29,150.34,45.86
						c116.33,32.72,189.8,83.52,279.82,87.14"/>
					<path class="st1" d="M0,396.74c54.21-8.26,85.35-18.32,170.12-37.69c62.81-14.15,111.56-33.1,162.27-44.67
						c46.45-10.6,86.34-16,136.52-12.97c66.92,4.03,130.13,27.63,202.52,50.48c50.97,16.13,102.67,32.8,150.53,46.67
						c117.57,34.07,189.73,87.25,278.06,92.87"/>
					<path class="st1" d="M0,403.67c54.37-7.27,85.46-16.3,170.6-35.67c63.35-14.2,111.89-33.66,162.36-45.94
						c46.16-11.24,86.03-17.44,136.67-15.05c67.41,3.18,131.14,26.37,203.36,49.18c51.41,16.27,103.23,33.32,150.72,47.48
						c118.79,35.43,189.65,90.98,276.3,98.6"/>
					<path class="st1" d="M0,410.6c54.53-6.28,85.57-14.29,171.08-33.65c63.88-14.25,112.22-34.21,162.45-47.22
						c45.88-11.88,85.71-18.89,136.83-17.13c67.89,2.33,132.15,25.12,204.21,47.88c51.85,16.41,103.79,33.84,150.91,48.29
						c120.02,36.8,189.57,94.72,274.54,104.33"/>
					<path class="st1" d="M0,417.52c54.69-5.29,85.68-12.28,171.56-31.62c64.42-14.31,112.55-34.77,162.54-48.5
						c45.6-12.52,85.39-20.33,136.98-19.21c68.38,1.49,133.16,23.86,205.05,46.58c52.28,16.56,104.34,34.38,151.09,49.11
						c121.23,38.2,189.49,98.45,272.77,110.06"/>
					<path class="st1" d="M0,424.45c54.85-4.3,85.79-10.26,172.04-29.6c64.95-14.36,112.88-35.33,162.64-49.78
						c45.31-13.16,85.07-21.77,137.14-21.29c68.86,0.64,134.17,22.61,205.9,45.28c52.72,16.7,104.89,34.91,151.28,49.92
						c122.45,39.61,189.41,102.18,271.01,115.79"/>
					<path class="st1" d="M0,431.37c55.01-3.3,85.9-8.25,172.52-27.57c65.49-14.41,113.22-35.88,162.73-51.06
						c45.03-13.8,84.76-24.13,137.3-23.37c69.34,1,135.19,21.35,206.74,43.98c53.16,16.84,105.44,35.46,151.47,50.73
						c123.65,41.04,189.33,105.91,269.25,121.51"/>
					<path class="st1" d="M0,438.3c55.18-2.31,86.01-6.23,173-25.55c66.02-14.46,113.55-36.43,162.82-52.34
						c44.75-14.44,84.44-24.65,137.45-25.45c69.83-1.05,136.2,20.1,207.59,42.67c53.59,16.99,105.99,36,151.66,51.55
						c124.85,42.49,189.25,109.64,267.49,127.24"/>
					<path class="st1" d="M0,445.23c55.34-1.32,86.12-4.22,173.48-23.53c66.55-14.51,113.88-36.99,162.92-53.61
						c44.47-15.08,84.12-26.09,137.61-27.53c70.32-1.89,137.21,18.84,208.43,41.37c54.03,17.13,106.53,36.56,151.84,52.36
						c126.03,43.95,189.18,113.38,265.73,132.97"/>
					<path class="st1" d="M0,452.15c55.5-0.33,86.23-2.2,173.96-21.5c67.09-14.56,114.21-37.54,163.01-54.89
						c44.19-15.71,83.8-27.53,137.76-29.61c70.81-2.73,138.22,17.59,209.28,40.07c54.47,17.27,107.07,37.12,152.03,53.17
						c127.21,45.44,189.1,117.11,263.96,138.7"/>
					<path class="st1" d="M0,459.08c55.66,0.66,86.33-0.19,174.44-19.48c67.62-14.62,114.55-38.09,163.1-56.17
						c43.9-16.35,83.49-28.96,137.92-31.68c71.29-3.57,139.23,16.33,210.12,38.77c54.9,17.41,107.61,37.68,152.22,53.99
						c128.39,46.94,189.02,120.84,262.2,144.43"/>
					<path class="st1" d="M0,466c55.82,1.65,86.44,1.83,174.92-17.45c68.16-14.67,114.88-38.64,163.2-57.45
						c43.62-16.98,83.17-30.4,138.07-33.76c71.78-4.4,140.24,15.08,210.97,37.47c55.34,17.56,108.15,38.24,152.41,54.8
						c129.55,48.46,188.94,124.57,260.44,150.16"/>
					<path class="st1" d="M0,472.93c55.98,2.65,86.55,3.84,175.4-15.43c68.69-14.72,115.21-39.19,163.29-58.73
						c43.34-17.62,82.86-31.83,138.23-35.84c72.27-5.24,141.25,13.82,211.81,36.17c55.78,17.7,108.68,38.82,152.59,55.61
						c130.7,49.99,188.86,128.31,258.68,155.89"/>
					<path class="st1" d="M0,479.86c56.14,3.64,86.66,5.85,175.88-13.41c69.23-14.77,115.55-39.73,163.38-60.01
						c43.06-18.25,82.54-33.26,138.39-37.92c72.76-6.07,142.26,12.57,212.66,34.87c56.21,17.84,109.21,39.39,152.78,56.42
						c131.84,51.55,188.78,132.04,256.92,161.61"/>
					<path class="st1" d="M0,486.78c56.3,4.63,86.77,7.87,176.36-11.38c69.76-14.82,115.89-40.28,163.48-61.28
						c42.79-18.88,82.23-34.69,138.54-40c73.25-6.9,143.27,11.31,213.51,33.57c56.65,17.98,109.74,39.97,152.97,57.24
						c132.98,53.12,188.7,135.77,255.15,167.34"/>
					<path class="st1" d="M0,493.71c56.46,5.62,86.88,9.88,176.84-9.36c70.3-14.88,116.22-40.83,163.57-62.56
						c42.51-19.52,81.91-36.12,138.7-42.08c73.73-7.73,144.28,10.06,214.35,32.27c57.09,18.13,110.27,40.55,153.16,58.05
						c134.1,54.72,188.63,139.5,253.39,173.07"/>
					<path class="st1" d="M0,500.63c56.62,6.61,86.99,11.9,177.32-7.34c70.83-14.93,116.56-41.37,163.66-63.84
						c42.23-20.15,81.6-37.55,138.85-44.16c74.23-8.56,145.29,8.8,215.2,30.97c57.52,18.27,110.79,41.14,153.34,58.86
						c135.21,56.33,188.55,143.24,251.63,178.8"/>
					<path class="st1" d="M0,507.56c56.78,7.6,87.1,13.91,177.81-5.31c71.36-14.98,116.9-41.92,163.75-65.12
						c41.95-20.78,81.29-38.98,139.01-46.24c74.72-9.39,146.3,7.55,216.04,29.67c57.96,18.41,111.31,41.73,153.53,59.68
						c136.31,57.96,188.47,146.97,249.87,184.53"/>
					<path class="st1" d="M0,514.48c56.94,8.6,87.21,15.93,178.29-3.29c71.9-15.03,117.24-42.46,163.85-66.4
						c41.68-21.41,80.97-40.41,139.17-48.32c75.21-10.22,147.32,6.29,216.89,28.37c58.4,18.55,111.83,42.32,153.72,60.49
						c137.4,59.6,188.39,150.7,248.11,190.26"/>
					<path class="st1" d="M0,521.41c57.1,9.59,87.31,17.94,178.77-1.26c72.43-15.08,117.58-43,163.94-67.68
						c41.4-22.03,80.66-41.83,139.32-50.39c75.7-11.05,148.33,5.04,217.73,27.06c58.83,18.7,112.34,42.91,153.91,61.3
						c138.47,61.27,188.31,154.43,246.34,195.99"/>
					<path class="st1" d="M0,528.34c57.26,10.58,87.42,19.96,179.25,0.76c72.97-15.14,117.92-43.54,164.03-68.95
						c41.13-22.66,80.35-43.26,139.48-52.47c76.19-11.87,149.34,3.78,218.58,25.76c59.27,18.84,112.85,43.51,154.09,62.12
						c139.53,62.96,188.23,158.17,244.58,201.71"/>
					<path class="st1" d="M0,535.26c57.42,11.57,87.53,21.97,179.73,2.78c73.5-15.19,118.26-44.08,164.13-70.23
						c40.86-23.29,80.04-44.68,139.63-54.55c76.69-12.7,150.35,2.53,219.42,24.46c59.7,18.98,113.36,44.11,154.28,62.93
						c140.58,64.66,188.15,161.9,242.82,207.44"/>
					<path class="st1" d="M0,542.19c57.58,12.56,87.64,23.98,180.21,4.81c74.04-15.24,118.6-44.62,164.22-71.51
						c40.58-23.92,79.73-46.11,139.79-56.63c77.18-13.52,151.36,1.27,220.27,23.16c60.14,19.13,113.87,44.71,154.47,63.74
						c141.62,66.39,188.08,165.63,241.06,213.17"/>
					<path class="st1" d="M0,549.11c57.74,13.56,87.75,26,180.69,6.83c74.57-15.29,118.94-45.16,164.31-72.79
						c40.31-24.55,79.42-47.53,139.94-58.71c77.68-14.35,152.37,0.01,221.11,21.86c60.58,19.27,114.37,45.31,154.66,64.55
						c142.64,68.13,188,169.36,239.29,218.9"/>
					<path class="st1" d="M0,556.04c57.91,14.55,87.86,28.01,181.17,8.86c75.1-15.34,119.29-45.7,164.41-74.07
						c40.04-25.17,79.11-48.95,140.1-60.79c78.18-15.17,153.38-1.24,221.96,20.56c61.01,19.41,114.87,45.92,154.84,65.37
						c143.64,69.89,187.92,173.1,237.53,224.63"/>
					<path class="st1" d="M0,562.97c58.07,15.54,87.97,30.03,181.65,10.88c75.64-15.4,119.63-46.24,164.5-75.35
						c39.77-25.8,78.8-50.38,140.26-62.87c78.67-15.99,154.39-2.5,222.81,19.26c61.45,19.55,115.36,46.52,155.03,66.18
						c144.64,71.67,187.84,176.83,235.77,230.36"/>
					<path class="st1" d="M0,569.89c58.23,16.53,88.08,32.04,182.13,12.9c76.17-15.45,120.03-46.7,164.59-76.62
						c39.55-26.35,78.52-51.69,140.41-64.95c79.2-16.68,155.4-3.75,223.65,17.96c61.89,19.7,115.85,47.13,155.22,66.99
						c145.61,73.47,187.76,180.56,234.01,236.09"/>
					<path class="st1" d="M0,576.82c58.39,17.52,88.19,34.06,182.61,14.93c76.71-15.5,120.37-47.26,164.69-77.9
						c39.27-27,78.21-53.14,140.57-67.03c79.69-17.53,156.41-5.01,224.5,16.66c62.32,19.84,116.34,47.74,155.4,67.81
						c146.57,75.28,187.68,184.29,232.25,241.81"/>
					<path class="st1" d="M0,583.74c58.55,18.51,88.3,36.07,183.09,16.95c77.24-15.55,120.7-47.82,164.78-79.18
						c38.99-27.64,77.9-54.59,140.72-69.1c80.18-18.38,157.42-6.26,225.34,15.36c62.76,19.98,116.83,48.35,155.59,68.62
						c147.52,77.12,187.6,188.03,230.48,247.54"/>
					<path class="st1" d="M0,590.67c58.71,19.51,88.4,38.09,183.57,18.98c77.78-15.6,121.04-48.38,164.87-80.46
						c38.71-28.28,77.58-56.03,140.88-71.18c80.68-19.24,158.44-7.52,226.19,14.06c63.2,20.12,117.31,48.97,155.78,69.43
						c148.45,78.97,187.53,191.76,228.72,253.27"/>
					<path class="st1" d="M0,597.6c58.87,20.5,88.51,40.1,184.05,21c147.36-29.46,169.92-121.32,306-155
						c157.59-39.01,304.28,40.39,383,83c149.36,80.85,187.45,195.49,226.96,259"/>
				</g>
				<path class="st1" d="M1100.01,812.43c-39.93-63.19-76.57-177.53-225.59-255.67c-80.8-42.37-225.86-116.2-383.28-78.72
					c-136.44,32.28-159,118.36-306.19,146.77c-95.93,18.36-125.85,1.25-184.96-17"/>
				<path class="st1" d="M1100.01,819.27c-40.35-62.87-75.61-176.83-224.22-252.35c-82.9-42.13-226.32-110.4-383.56-74.44
					c-136.81,30.87-159.36,111.19-306.37,138.53c-96.33,17.61-126.51,3.01-185.86-13"/>
				<path class="st1" d="M1100.01,826.11c-40.76-62.55-74.7-176.07-222.84-249.02c-85.03-41.87-226.7-104.26-383.84-70.16
					c-137.11,29.75-159.66,104.34-306.56,130.3c-96.69,17.09-127.17,4.77-186.77-9"/>
				<path class="st1" d="M1100.01,832.94c-41.18-62.23-73.84-175.23-221.47-245.7c-87.18-41.61-227.14-98.36-384.12-65.88
					c-137.45,28.43-160.01,97.26-306.74,122.07c-97.08,16.41-127.84,6.52-187.68-5"/>
				<path class="st1" d="M1100.01,839.78c-41.6-61.9-73.03-174.33-220.1-242.37c-89.35-41.34-227.58-92.46-384.4-61.6
					c-137.8,27.11-160.35,90.18-306.93,113.84c-97.47,15.73-128.5,8.28-188.58-1"/>
				<path class="st1" d="M1100.01,846.62c-42.01-61.58-72.27-173.37-218.73-239.05c-91.54-41.05-228.02-86.56-384.67-57.33
					c-138.16,25.78-160.7,83.09-307.12,105.6C91.63,670.9,60.32,665.89,0,658.85"/>
				<path class="st1" d="M1100.01,853.46c-42.43-61.26-71.55-172.35-217.36-235.72c-93.75-40.75-228.47-80.67-384.95-53.05
					c-138.51,24.45-161.06,76-307.3,97.37c-98.26,14.36-129.83,11.79-190.4,7"/>
				<path class="st1" d="M1100.01,860.29c-42.85-60.94-70.87-171.27-215.98-232.4c-95.98-40.43-228.91-74.79-385.23-48.77
					c-138.87,23.12-161.41,68.89-307.49,89.14c-98.65,13.67-130.5,13.55-191.31,11"/>
				<path class="st1" d="M1100.01,867.13c-43.27-60.62-70.22-170.13-214.61-229.07c-98.22-40.09-229.37-68.91-385.51-44.49
					c-139.23,21.78-161.77,61.79-307.67,80.91c-99.05,12.98-131.16,15.3-192.21,15"/>
				<path class="st1" d="M1100.01,873.97c-43.68-60.3-69.6-168.94-213.24-225.74c-100.49-39.74-229.82-63.04-385.79-40.21
					c-139.59,20.43-162.12,54.67-307.86,72.67C93.68,692.97,61.29,697.75,0,699.69"/>
				<path class="st1" d="M1100.01,880.81c-44.1-59.98-69.02-167.69-211.87-222.42c-102.76-39.37-230.27-57.18-386.07-35.93
					c-139.95,19.08-162.48,47.56-308.05,64.44C94.18,698.48,61.54,705.71,0,709.9"/>
				<path class="st1" d="M1100.01,887.64c-44.52-59.66-68.46-166.4-210.49-219.09c-105.06-38.97-230.73-51.32-386.35-31.65
					c-140.32,17.73-162.84,40.43-308.23,56.21C94.69,703.99,61.78,713.68,0,720.11"/>
				<path class="st1" d="M1100.01,894.48c-44.93-59.34-67.93-165.06-209.12-215.77c-107.37-38.56-231.19-45.46-386.63-27.37
					c-140.68,16.37-163.2,33.3-308.42,47.98C95.2,709.49,62.02,721.64,0,730.32"/>
				<path class="st1" d="M1100.01,901.32c-45.35-59.02-67.41-163.67-207.75-212.44c-109.69-38.12-231.65-39.61-386.91-23.09
					c-141.05,15.01-163.57,26.17-308.6,39.74C95.71,714.99,62.26,729.61,0,740.53"/>
				<path class="st1" d="M1100.01,908.15c-45.77-58.7-66.92-162.24-206.38-209.12c-112.02-37.66-232.11-33.77-387.19-18.81
					c-141.42,13.64-163.93,19.02-308.79,31.51C96.21,720.48,62.51,737.58,0,750.74"/>
				<path class="st1" d="M1100.01,914.99c-46.18-58.37-66.45-160.76-205.01-205.79c-114.37-37.17-232.58-27.93-387.47-14.53
					c-141.79,12.27-164.3,11.88-308.98,23.28c-101.85,8.03-135.81,27.6-198.56,43"/>
				<path class="st1" d="M1100.01,921.83c-46.6-58.05-65.99-159.25-203.63-202.47c-116.73-36.65-233.04-22.1-387.74-10.26
					c-142.16,10.89-164.66,4.72-309.16,15.05c-102.25,7.3-136.48,29.35-199.47,47"/>
				<path class="st1" d="M1100.01,928.67c-47.02-57.73-65.55-157.69-202.26-199.14c-119.1-36.11-233.51-16.28-388.02-5.98
					c-142.54,9.5-165.03-2.43-309.35,6.81C97.72,736.94,63.23,761.47,0,781.36"/>
				<path class="st1" d="M1100.01,935.5c-47.44-57.41-65.12-156.1-200.89-195.81c-121.48-35.53-233.97-10.46-388.3-1.7
					c-142.91,8.11-165.4-9.6-309.53-1.42C98.23,742.42,63.48,769.44,0,791.57"/>
				<path class="st1" d="M1100.01,942.34c-47.85-57.09-64.7-154.47-199.52-192.49c-123.86-34.93-234.44-4.65-388.58,2.58
					c-143.28,6.72-165.77-16.77-309.72-9.65C98.73,747.9,63.72,777.4,0,801.78"/>
				<path class="st1" d="M1100.01,949.18c-48.27-56.77-64.29-152.81-198.15-189.16c-126.26-34.29-234.91,1.16-388.86,6.86
					c-143.66,5.32-166.13-23.94-309.91-17.88c-103.86,4.38-139.13,36.38-203.1,63"/>
				<path class="st1" d="M1100.01,956.01c-48.69-56.45-63.89-151.12-196.77-185.84c-128.67-33.62-235.38,6.96-389.14,11.14
					c-144.03,3.91-166.5-31.12-310.09-26.12c-104.27,3.64-139.8,38.13-204,67"/>
				<path class="st1" d="M1100.01,962.85c-49.1-56.13-63.5-149.39-195.4-182.51c-131.08-32.92-235.85,12.76-389.42,15.42
					c-144.41,2.5-166.87-38.31-310.28-34.35C100.24,764.3,64.45,801.3,0,832.41"/>
				<path class="st1" d="M1100.01,969.69c-49.52-55.81-63.11-147.63-194.03-179.19c-133.5-32.18-236.31,18.55-389.7,19.7
					c-144.78,1.08-167.24-45.5-310.47-42.58c-105.08,2.14-141.13,41.65-205.82,75"/>
				<path class="st1" d="M1100.01,976.53c-49.94-55.49-62.73-145.84-192.66-175.86c-135.93-31.4-236.78,24.33-389.98,23.98
					c-145.15-0.34-167.61-52.7-310.65-50.81c-105.48,1.39-141.79,43.4-206.72,79"/>
				<path class="st1" d="M1100.01,983.36c-50.36-55.16-62.34-144.03-191.29-172.53c-138.36-30.59-237.25,30.11-390.26,28.26
					c-145.53-1.77-167.98-59.9-310.84-59.05C101.74,780.67,65.17,825.2,0,863.04"/>
				<path class="st1" d="M1100.01,990.2c-50.77-54.84-61.97-142.19-189.91-169.21c-140.8-29.74-237.71,35.88-390.53,32.53
					c-145.9-3.2-168.34-67.1-311.02-67.28c-106.29-0.13-143.12,46.91-208.54,87"/>
				<path class="st1" d="M1100.01,997.04c-51.19-54.52-61.59-140.32-188.54-165.88c-143.24-28.84-238.18,41.65-390.81,36.81
					c-146.27-4.64-168.71-74.31-311.21-75.51c-106.7-0.9-143.79,48.67-209.45,91"/>
				<path class="st1" d="M1100.01,1003.88c-51.61-54.2-61.21-138.43-187.17-162.56c-145.69-27.91-238.64,47.41-391.09,41.09
					c-146.65-6.08-169.08-81.53-311.4-83.74C103.25,797,65.9,849.09,0,893.67"/>
				<path class="st1" d="M1100.01,1010.71c-52.02-53.88-60.83-136.51-185.8-159.23c-148.14-26.93-239.11,53.17-391.37,45.37
					c-147.02-7.53-169.45-88.75-311.58-91.98c-107.5-2.44-145.11,52.18-211.26,99"/>
				<path class="st1" d="M1100.01,1017.55c-52.44-53.56-60.45-134.57-184.42-155.91C765,835.73,676.01,920.57,523.93,911.29
					c-147.39-8.99-169.81-95.98-311.77-100.21c-107.9-3.22-145.78,53.94-212.17,103"/>
				<path class="st1" d="M1100.01,1024.39c-52.86-53.24-60.06-132.61-183.05-152.58c-153.04-24.85-240.03,64.67-391.93,53.93
					c-147.75-10.45-170.18-103.21-311.95-108.44c-108.31-4-146.44,55.7-213.07,107"/>
				<path class="st1" d="M1100.01,1031.22c-53.27-52.92-59.67-130.63-181.68-149.26c-155.49-23.74-240.49,70.41-392.21,58.21
					C378,928.27,355.58,829.73,213.98,823.5C105.27,818.72,66.87,880.95,0,934.5"/>
				<path class="st1" d="M1100.01,1038.06c-53.69-52.6-59.28-128.63-180.31-145.93c-157.94-22.58-240.95,76.15-392.49,62.49
					c-148.48-13.38-170.9-117.69-312.33-124.91C105.78,824.14,67.12,888.92,0,944.71"/>
				<path class="st1" d="M1100.01,1044.9c-54.11-52.28-58.88-126.61-178.94-142.6c-160.39-21.37-241.41,81.88-392.77,66.77
					C379.46,954.2,357.04,844.13,215.79,835.92C106.29,829.56,67.36,896.89,0,954.92"/>
				<path class="st1" d="M1100.01,1051.74c-54.53-51.96-58.47-124.57-177.56-139.28c-162.84-20.11-241.86,87.6-393.05,71.05
					c-149.21-16.34-171.62-132.18-312.7-141.37c-109.9-7.16-149.1,62.72-216.7,123"/>
				<path class="st1" d="M1100.01,1058.57c-54.94-51.63-58.05-122.51-176.19-135.95c-165.28-18.81-242.31,93.33-393.33,75.33
					c-149.57-17.83-171.98-139.43-312.88-149.6c-110.3-7.96-149.77,64.48-217.61,127"/>
				<path class="st1" d="M1100.01,1065.41c-55.36-51.31-57.63-120.44-174.82-132.63c-167.73-17.45-242.76,99.04-393.6,79.6
					C381.66,993.07,359.25,865.7,218.52,854.55c-110.7-8.77-150.43,66.23-218.52,131"/>
				<path class="st1" d="M1100.01,1072.25c-55.78-50.99-57.19-118.35-173.45-129.3c-170.16-16.03-243.21,104.76-393.88,83.88
					c-150.28-20.82-172.69-153.95-313.26-166.07C108.33,851.18,68.33,928.75,0,995.76"/>
				<path class="st1" d="M1100.01,1079.08c-56.19-50.67-56.75-116.24-172.08-125.98c-172.59-14.57-243.65,110.46-394.16,88.16
					c-150.63-22.32-173.05-161.22-313.44-174.3C108.84,856.58,68.57,936.71,0,1005.97"/>
				<path class="st1" d="M1100.01,1085.92c-56.61-50.35-56.29-114.12-170.7-122.65c-175.01-13.04-244.06,115.96-394.44,92.44
					c-150.95-24.04-173.38-168.69-313.63-182.53c-111.86-11.37-152.42,71.5-221.24,143"/>
				<path class="st1" d="M1100.01,1092.76c-57.03-50.03-55.83-111.99-169.33-119.33c-177.43-11.47-244.52,121.76-394.72,96.72
					c-151.31-25.45-173.74-175.86-313.81-190.77C109.88,867.28,69.06,952.64,0,1026.39"/>
				<path class="st1" d="M1100.01,1099.6c-57.45-49.71-55.35-109.84-167.96-116c-179.83-9.83-244.97,127.56-395,101
					c-151.67-26.86-174.1-183.04-314-199C110.39,872.74,69.3,960.61,0,1036.6"/>
			</g>
			<path class="st1" d="M1100.01,1103.56c-56.98-47.15-54.27-104.06-166.74-109.52c-178.29-9.12-243.19,124.5-394.19,97.59
				c-150.65-26.76-175.55-180.38-315.87-195.48C111.4,884.12,70.13,970.95,0,1047.76"/>
			<path class="st1" d="M1100.01,1107.52c-56.52-44.6-53.2-97.98-165.52-103.04c-176.77-7.95-241.4,121.43-393.37,94.19
				c-149.63-26.65-176.99-177.73-317.74-191.96C112.41,895.49,70.97,981.29,0,1058.93"/>
			<path class="st1" d="M1100.01,1111.48c-56.06-42.05-52.12-92.06-164.29-96.56c-175.24-7.03-239.62,118.37-392.56,90.78
				c-148.6-26.55-178.42-175.09-319.61-188.44C113.43,906.85,71.8,991.64,0,1070.1"/>
			<path class="st1" d="M1100.01,1115.45c-55.6-39.49-51.04-86.14-163.07-90.07c-173.7-6.11-237.83,115.3-391.74,87.37
				c-147.58-26.45-179.86-172.45-321.48-184.93C114.44,918.2,72.64,1001.98,0,1081.26"/>
			<path class="st1" d="M1100.01,1119.41c-55.14-36.94-49.96-80.22-161.85-83.59c-172.17-5.2-236.04,112.24-390.93,83.96
				c-146.56-26.35-181.28-169.82-323.35-181.41C115.46,929.53,73.48,1012.32,0,1092.43"/>
			<path class="st1" d="M1100.01,1123.37c-54.68-34.38-48.88-74.3-160.63-77.11c-170.63-4.29-234.26,109.17-390.11,80.56
				c-145.53-26.25-182.7-167.2-325.22-177.89C116.49,940.86,74.31,1022.66,0,1103.6"/>
			<path class="st1" d="M1100.01,1127.34c-54.21-31.83-47.8-68.39-159.4-70.63c-169.08-3.4-232.47,106.11-389.3,77.15
				C406.8,1107.7,367.19,969.27,224.22,959.48c-106.7-7.3-149.07,73.52-224.22,155.28"/>
			<path class="st1" d="M1100.01,1131.3c-53.75-29.27-46.71-62.48-158.18-64.15c-167.54-2.51-230.69,103.04-388.48,73.74
				c-143.49-26.05-185.54-161.97-328.96-170.85C118.55,963.49,75.98,1043.35,0,1125.93"/>
			<path class="st1" d="M1100.01,1135.26c-53.29-26.72-45.63-56.57-156.96-57.67c-165.99-1.63-228.84,99.63-387.67,70.33
				c-142.41-26.27-186.95-159.37-330.83-167.33C119.58,974.79,76.82,1053.69,0,1137.1"/>
			<path class="st1" d="M1100.01,1139.23c-52.83-24.17-44.54-50.67-155.74-51.19c-164.45-0.76-227.04,96.53-386.85,66.93
				c-141.38-26.19-188.35-156.78-332.7-163.81C120.61,986.08,77.65,1064.04,0,1148.26"/>
			<path class="st1" d="M1100.01,1143.19c-52.37-21.61-43.45-44.77-154.52-44.7c-162.9,0.1-225.25,93.43-386.04,63.52
				c-140.35-26.11-189.76-154.19-334.57-160.3C121.65,997.36,78.49,1074.38,0,1159.43"/>
			<path class="st1" d="M1100.01,1147.15c-51.9-19.06-42.36-38.88-153.29-38.22c-161.35,0.95-223.46,90.34-385.22,60.11
				c-139.32-26.03-191.15-151.62-336.44-156.78C122.69,1008.63,79.32,1084.72,0,1170.6"/>
			<path class="st1" d="M1100.01,1151.11c-51.44-16.5-41.27-32.99-152.07-31.74c-159.8,1.8-221.67,87.24-384.41,56.7
				c-138.29-25.95-192.55-149.05-338.31-153.26C123.73,1019.89,80.16,1095.06,0,1181.76"/>
			<path class="st1" d="M1100.01,1155.08c-50.98-13.95-40.18-27.1-150.85-25.26c-158.24,2.63-219.88,84.15-383.59,53.3
				c-137.27-25.87-193.94-146.49-340.19-149.74C124.78,1031.14,81,1105.41,0,1192.93"/>
			<path class="st1" d="M1100.01,1159.04c-50.52-11.39-39.08-21.22-149.63-18.78c-156.69,3.46-218.09,81.06-382.78,49.89
				c-136.24-25.79-195.33-143.94-342.06-146.22C125.82,1042.38,81.83,1115.75,0,1204.1"/>
			<path class="st1" d="M1100.01,1163c-50.06-8.84-37.99-15.34-148.4-12.3c-155.13,4.28-216.3,77.97-381.96,46.48
				c-135.21-25.7-196.72-141.4-343.93-142.7c-98.85-0.87-143.05,71.61-225.72,160.78"/>
			<path class="st1" d="M1100.01,1166.97c-49.6-6.28-36.89-9.47-147.18-5.81c-153.57,5.09-214.5,74.88-381.15,43.07
				c-134.19-25.61-198.1-138.87-345.8-139.19C127.92,1064.83,83.5,1136.43,0,1226.43"/>
			<path class="st1" d="M1100.01,1170.93c-49.13-3.73-35.8-3.6-145.96,0.67c-152.02,5.89-212.71,71.79-380.33,39.67
				c-133.16-25.52-199.48-136.35-347.67-135.67c-97.08,0.45-141.71,71.18-226.05,162"/>
			<path class="st1" d="M1100.01,1174.89c-48.67-1.18-34.7,2.26-144.74,7.15c-150.46,6.68-210.92,68.71-379.52,36.26
				c-132.14-25.43-200.86-133.85-349.54-132.15c-96.2,1.1-141.04,70.97-226.22,162.61"/>
			<path class="st1" d="M1100.01,1178.86c-48.21,1.38-33.6,8.12-143.52,13.63c-148.9,7.46-209.13,65.63-378.7,32.85
				c-131.11-25.34-202.24-131.35-351.41-128.63c-95.32,1.74-140.37,70.75-226.38,163.22"/>
			<path class="st1" d="M1100.01,1182.82c-47.75,3.93-32.5,13.97-142.29,20.11c-147.34,8.24-207.34,62.54-377.89,29.44
				c-130.09-25.25-203.62-128.86-353.28-125.11C132.12,1109.63,86.85,1177.8,0,1271.1"/>
			<path class="st1" d="M1100.01,1186.78c-47.29,6.49-31.41,19.82-141.07,26.59c-145.78,9-205.56,59.46-377.07,26.04
				c-129.06-25.15-205-126.39-355.15-121.59c-93.54,2.99-139.04,70.33-226.72,164.44"/>
			<path class="st1" d="M1100.01,1190.74c-46.83,9.04-30.31,25.66-139.85,33.07c-144.22,9.76-203.77,56.38-376.26,22.63
				c-128.04-25.05-206.37-123.93-357.02-118.07c-92.66,3.6-138.37,70.11-226.88,165.06"/>
			<path class="st1" d="M1100.01,1194.71c-46.36,11.6-29.21,31.5-138.63,39.56c-142.66,10.51-201.98,53.31-375.44,19.22
				c-127.01-24.96-207.74-121.47-358.89-114.56c-91.77,4.2-137.7,69.9-227.05,165.67"/>
			<path class="st1" d="M1100.01,1198.67c-45.9,14.15-28.11,37.33-137.4,46.04c-141.1,11.25-200.19,50.23-374.63,15.81
				c-125.99-24.86-209.12-119.04-360.76-111.04c-90.88,4.8-137.03,69.69-227.22,166.28"/>
			<path class="st1" d="M1100.01,1202.63c-45.44,16.7-27.01,43.15-136.18,52.52c-139.54,11.98-198.4,47.16-373.81,12.41
				c-124.96-24.76-210.49-116.61-362.63-107.52c-89.99,5.38-136.36,69.48-227.38,166.89"/>
			<path class="st1" d="M1100.01,1206.6c-44.98,19.26-25.91,48.97-134.96,59c-137.98,12.7-196.61,44.08-373,9
				c-123.94-24.65-211.86-114.2-364.5-104c-89.11,5.96-135.69,69.26-227.55,167.5"/>
			<path class="st1" d="M1100.01,1210.56c-44.52,21.81-24.81,54.78-133.74,65.48c-136.42,13.41-194.83,41.01-372.19,5.59
				c-122.92-24.55-213.24-111.81-366.37-100.48C139.5,1187.68,92.69,1250.2,0,1349.26"/>
			<path class="st1" d="M1100.01,1214.52c-44.06,24.37-23.71,60.58-132.52,71.96c-134.86,14.11-193.04,37.95-371.37,2.19
				c-121.89-24.44-214.61-109.42-368.24-96.96c-87.33,7.08-134.35,68.84-227.88,168.72"/>
			<path class="st1" d="M1100.01,1218.48c-43.59,26.92-22.61,66.38-131.29,78.44c-133.3,14.8-191.25,34.88-370.56-1.22
				c-120.87-24.34-215.99-107.06-370.11-93.44C141.6,1209.9,94.37,1270.89,0,1371.6"/>
			<path class="st1" d="M1100.01,1222.45c-43.13,29.48-21.51,72.16-130.07,84.93c-131.74,15.49-189.47,31.82-369.74-4.63
				c-119.85-24.23-217.37-104.7-371.98-89.93C142.65,1221,95.2,1281.23,0,1382.76"/>
			<path class="st1" d="M1100.01,1226.41c-42.67,32.03-20.42,77.95-128.85,91.41c-130.18,16.16-187.68,28.75-368.93-8.04
				c-118.83-24.12-218.74-102.37-373.85-86.41c-84.68,8.71-132.35,68.2-228.38,170.56"/>
			<path class="st1" d="M1100.01,1230.37c-42.21,34.59-19.32,83.72-127.63,97.89c-128.63,16.83-185.9,25.69-368.11-11.44
				c-117.81-24.01-220.13-100.04-375.72-82.89c-83.8,9.24-131.68,67.98-228.55,171.17"/>
			<path class="st1" d="M1100.01,1234.34c-41.75,37.14-18.23,89.49-126.4,104.37c-127.07,17.48-184.11,22.64-367.3-14.85
				c-116.78-23.9-221.51-97.74-377.59-79.37C145.8,1254.24,97.71,1312.26,0,1416.26"/>
			<path class="st1" d="M1100.01,1238.3c-41.29,39.69-17.13,95.24-125.18,110.85c-125.52,18.13-182.33,19.58-366.48-18.26
				c-115.76-23.79-222.9-95.45-379.46-75.85C146.85,1265.31,98.54,1322.6,0,1427.43"/>
			<path class="st1" d="M1100.01,1242.26c-40.82,42.25-16.04,100.99-123.96,117.33c-123.97,18.77-180.54,16.53-365.67-21.67
				c-114.74-23.67-224.29-93.18-381.33-72.33c-81.16,10.77-129.67,67.35-229.05,173"/>
			<path class="st1" d="M1100.01,1246.23c-40.36,44.8-14.95,106.73-122.74,123.81c-122.42,19.4-178.76,13.48-364.85-25.07
				c-113.72-23.56-225.68-90.92-383.2-68.81c-80.28,11.27-129,67.13-229.22,173.61"/>
			<path class="st1" d="M1100.01,1250.19c-39.9,47.36-13.87,112.47-121.52,130.3c-120.87,20.02-176.98,10.43-364.04-28.48
				c-112.7-23.44-227.08-88.69-385.07-65.3c-79.41,11.76-128.33,66.92-229.38,174.22"/>
			<path class="st1" d="M1100.01,1254.15c-39.44,49.91-12.78,118.19-120.29,136.78c-119.33,20.63-175.19,7.38-363.22-31.89
				c-111.68-23.32-228.49-86.47-386.94-61.78C151.02,1309.5,101.89,1363.97,0,1472.1"/>
			<path class="st1" d="M1100.01,1258.11c-38.98,52.47-11.7,123.9-119.07,143.26c-117.79,21.24-173.41,4.34-362.41-35.3
				c-110.66-23.21-229.9-84.27-388.81-58.26c-77.66,12.71-127,66.49-229.72,175.44"/>
			<path class="st1" d="M1100.01,1262.08c-38.52,55.02-10.62,129.6-117.85,149.74c-116.25,21.83-171.63,1.3-361.59-38.7
				c-109.64-23.09-231.31-82.09-390.69-54.74c-76.8,13.18-126.33,66.28-229.88,176.06"/>
			<path class="st1" d="M1100.01,1266.04c-38.05,57.58-9.54,135.3-116.63,156.22c-114.71,22.42-169.85-1.74-360.78-42.11
				c-108.62-22.97-232.73-79.93-392.56-51.22C154.12,1342.57,104.39,1395,0,1505.6"/>
			<path class="st1" d="M1100.01,1270c-37.59,60.13-8.47,140.98-115.4,162.7c-113.18,22.99-168.07-4.78-359.96-45.52
				c-107.6-22.85-234.16-77.79-394.43-47.7c-75.07,14.09-124.99,65.85-230.22,177.28"/>
			<path class="st1" d="M1100.01,1273.97c-37.13,62.68-7.4,146.65-114.18,169.19c-111.65,23.56-166.29-7.81-359.15-48.93
				c-106.58-22.72-235.6-75.67-396.3-44.19c-74.21,14.54-124.32,65.64-230.38,177.89"/>
			<path class="st1" d="M1100.01,1277.93c-36.67,65.24-6.33,152.31-112.96,175.67c-110.13,24.12-164.51-10.84-358.33-52.33
				c-105.56-22.6-237.04-73.58-398.17-40.67C157.19,1375.58,106.9,1426.03,0,1539.1"/>
			<path class="st1" d="M1100.01,1281.89c-36.21,67.79-5.27,157.96-111.74,182.15c-108.61,24.67-162.74-13.87-357.52-55.74
				c-104.54-22.47-238.49-71.5-400.04-37.15c-72.51,15.42-122.98,65.22-230.72,179.11"/>
			<path class="st1" d="M1100.01,1285.86c-35.74,70.35-4.22,163.6-110.52,188.63c-107.09,25.22-161.04-16.51-356.7-59.15
				c-103.57-22.15-239.95-69.45-401.91-33.63c-71.66,15.85-122.31,65-230.88,179.72"/>
			<path class="st1" d="M1100.01,1289.82c-35.28,72.9-3.17,169.23-109.29,195.11c-105.58,25.75-159.26-19.57-355.89-62.56
				c-102.55-22.05-241.42-67.42-403.78-30.11C160.23,1408.54,109.41,1457.05,0,1572.6"/>
			<path class="st1" d="M1100.01,1293.78c-34.82,75.46-2.12,174.84-108.07,201.59c-104.08,26.28-157.47-22.64-355.07-65.96
				c-101.52-21.95-242.91-65.41-405.65-26.59C161.24,1419.51,110.24,1467.4,0,1583.76"/>
			<path class="st1" d="M1100.01,1297.74c-34.36,78.01-1.08,180.44-106.85,208.07c-102.57,26.8-155.68-25.7-354.26-69.37
				c-100.5-21.85-244.4-63.42-407.52-23.07c-69.15,17.1-120.31,64.36-231.38,181.56"/>
			<path class="st1" d="M1100.01,1301.71c-33.9,80.56-0.05,186.03-105.63,214.56c-101.08,27.31-153.9-28.77-353.44-72.78
				c-99.48-21.75-245.9-61.46-409.39-19.56C163.23,1441.44,111.91,1488.08,0,1606.1"/>
			<path class="st1" d="M1100.01,1305.67c-33.44,83.12,0.98,191.6-104.4,221.04c-99.59,27.82-152.11-31.83-352.63-76.19
				c-98.45-21.65-247.42-59.52-411.26-16.04C164.22,1452.4,112.75,1498.42,0,1617.26"/>
			<path class="st1" d="M1100.01,1309.63c-32.97,85.67,1.99,197.16-103.18,227.52c-98.11,28.31-150.33-34.9-351.81-79.59
				c-97.43-21.55-248.95-57.61-413.13-12.52c-66.67,18.31-118.3,63.73-231.88,183.39"/>
			<path class="st1" d="M1100.01,1313.6c-32.51,88.23,3.01,202.71-101.96,234c-96.63,28.8-148.54-37.96-351-83
				c-96.41-21.45-250.5-55.72-415-9c-65.86,18.7-117.63,63.51-232.05,184"/>
		</g>
		<path class="st1" d="M0,1649.4c114.74-116.79,165.73-160.48,232.15-179.09c123.95-34.82,241.06-25.66,332.1-10.79
			c29.92,4.87,57.06,10.24,80.71,15.05c125.11,25.48,192.33,60.09,249.88,75.54c33.68,9.04,63.46,11.54,99.32,1.01
			c105.02-30.73,72.23-141.26,105.85-226.25"/>
		<path class="st1" d="M0,1659.21c115.05-113.09,165.27-155.67,232.24-174.17c124.07-34.47,240.36-26.87,330.57-13.73
			c29.66,4.29,56.59,8.93,80.06,13.26c123.27,22.74,189.96,55.18,248.37,69.65c33.62,8.33,63.36,10.75,99.03,0.43
			c105.08-30.18,75.02-136.74,109.73-218.5"/>
		<path class="st1" d="M0,1669.01c115.37-109.39,164.81-150.86,232.34-169.26c124.19-34.12,239.65-28.08,329.04-16.68
			c29.41,3.71,56.11,7.63,79.41,11.48c121.4,20.02,187.58,50.29,246.86,63.77c33.54,7.63,63.25,9.97,98.74-0.14
			c105.13-29.63,77.81-132.22,113.62-210.75"/>
		<path class="st1" d="M0,1678.82c115.69-105.7,164.35-146.05,232.44-164.35c124.31-33.76,238.95-29.3,327.51-19.62
			c29.16,3.13,55.62,6.34,78.76,9.69c119.52,17.32,185.18,45.4,245.35,57.88c33.46,6.94,63.15,9.19,98.45-0.71
			c105.19-29.07,80.6-127.71,117.51-203"/>
		<path class="st1" d="M0,1688.62c116-102,163.89-141.23,232.53-159.44c124.43-33.41,238.24-30.51,325.98-22.57
			c28.9,2.54,55.13,5.04,78.1,7.9c117.61,14.64,182.76,40.53,243.85,51.99c33.37,6.26,63.02,8.32,98.15-1.28
			c105.18-28.75,83.39-123.19,121.39-195.25"/>
		<path class="st1" d="M0,1698.43c116.32-98.3,163.44-136.42,232.63-154.52c124.55-33.06,237.54-31.72,324.45-25.51
			c28.65,1.96,54.64,3.75,77.45,6.11c115.68,11.98,180.33,35.67,242.34,46.11c33.27,5.6,62.91,7.53,97.86-1.85
			c105.23-28.24,86.17-118.68,125.28-187.5"/>
		<path class="st1" d="M0,1708.23c116.64-94.6,163.01-131.47,232.73-149.61c124.74-32.46,236.84-32.94,322.92-28.46
			c28.39,1.38,54.14,2.46,76.8,4.32c113.72,9.36,177.9,30.83,240.83,40.22c33.17,4.95,62.8,6.73,97.57-2.42
			c105.27-27.72,88.96-114.16,129.17-179.75"/>
		<path class="st1" d="M0,1718.04c116.95-90.9,162.56-126.64,232.82-144.7c124.86-32.08,236.13-34.15,321.39-31.4
			c28.14,0.8,53.63,1.17,76.15,2.53c111.75,6.76,175.45,26.01,239.33,34.34c33.06,4.31,62.69,5.94,97.27-3
			c105.32-27.21,91.75-109.65,133.05-172"/>
		<path class="st1" d="M0,1727.85c117.27-87.21,162.1-121.82,232.92-139.78c124.98-31.71,235.42-35.19,319.86-34.35
			c27.89,0.28,53.26-1.86,75.49,0.75c109.09,12.78,172.99,21.2,237.82,28.45c32.94,3.68,62.59,5.14,96.98-3.57
			c105.37-26.68,94.54-105.13,136.94-164.25"/>
		<path class="st1" d="M0,1737.65c117.59-83.51,161.64-116.99,233.02-134.87c125.11-31.34,234.72-36.39,318.32-37.29
			c27.63-0.3,52.72-3.3,74.84-1.04c107.2,10.93,170.52,16.41,236.31,22.57c32.83,3.07,62.48,4.35,96.69-4.14
			c105.42-26.16,97.32-100.61,140.83-156.5"/>
		<path class="st1" d="M0,1747.46c117.9-79.81,161.19-112.17,233.11-129.96c125.23-30.97,234.02-37.59,316.79-40.24
			c27.38-0.88,52.17-4.72,74.19-2.83c105.33,9.04,168.05,11.64,234.8,16.68c32.71,2.47,62.37,3.56,96.4-4.71
			c105.47-25.63,100.11-96.1,144.71-148.75"/>
		<path class="st1" d="M0,1757.26c118.22-76.11,160.73-107.35,233.21-125.05c125.35-30.6,233.32-38.79,315.26-43.18
			c27.13-1.45,51.61-6.12,73.54-4.62c103.47,7.11,165.57,6.89,233.3,10.79c32.58,1.88,62.27,2.77,96.1-5.28
			c105.53-25.1,102.9-91.58,148.6-141"/>
		<path class="st1" d="M0,1767.07c118.54-72.42,160.27-102.53,233.31-120.13c125.47-30.24,232.62-39.99,313.73-46.13
			c26.88-2.03,51.04-5.18,72.88-6.41c101.6-5.7,163.57-3.72,231.79,4.91c32.22,4.07,62.16,1.98,95.81-5.85
			c105.58-24.57,105.69-87.07,152.49-133.25"/>
		<path class="st1" d="M0,1776.87c118.85-68.72,159.81-97.71,233.4-115.22c125.59-29.88,231.93-41.2,312.2-49.07
			c26.63-2.61,50.51-6.43,72.23-8.19c99.53-8.08,161-8.64,230.28-0.98c32.14,3.55,62.06,1.19,95.52-6.43
			c105.63-24.03,108.47-82.55,156.37-125.5"/>
		<path class="st1" d="M0,1786.68c119.17-65.02,159.35-92.89,233.5-110.31c125.71-29.52,231.23-42.41,310.67-52.02
			c26.37-3.19,49.98-7.68,71.58-9.98c97.45-10.41,158.42-13.5,228.77-6.86c32.06,3.02,61.95,0.4,95.22-7
			c105.69-23.5,111.26-78.04,160.26-117.75"/>
		<path class="st1" d="M0,1796.48c119.49-61.32,158.89-88.08,233.6-105.39c125.83-29.17,230.53-43.61,309.14-54.96
			c26.12-3.77,49.45-8.91,70.93-11.77c95.36-12.7,155.83-18.3,227.27-12.75c31.97,2.48,61.85-0.39,94.93-7.57
			c105.75-22.95,114.05-73.52,164.15-110"/>
		<path class="st1" d="M0,1806.29c119.8-57.62,158.43-83.26,233.69-100.48c125.95-28.81,229.83-44.83,307.61-57.91
			c25.87-4.35,48.91-10.14,70.27-13.56c93.27-14.94,153.23-23.03,225.76-18.64c31.89,1.93,61.74-1.17,94.64-8.14
			c105.8-22.41,116.84-69,168.03-102.25"/>
		<path class="st1" d="M0,1816.1c120.12-53.93,157.97-78.45,233.79-95.57c126.07-28.46,229.13-46.04,306.08-60.85
			c25.62-4.93,48.38-11.36,69.62-15.35c91.17-17.13,150.63-21.19,224.25-24.52c31.81-1.44,61.64-1.96,94.35-8.71
			c105.86-21.86,119.63-64.49,171.92-94.5"/>
		<path class="st1" d="M0,1825.9c120.44-50.23,157.51-73.64,233.89-90.66c126.19-28.11,228.43-47.25,304.55-63.8
			c25.37-5.51,47.84-12.56,68.97-17.14c89.08-19.28,148.15-25.79,222.75-30.41c31.68-1.96,61.53-2.74,94.05-9.28
			c105.92-21.31,122.41-59.97,175.81-86.75"/>
		<path class="st1" d="M0,1835.71c120.75-46.53,157.05-68.83,233.98-85.74c126.3-27.77,227.74-48.47,303.01-66.74
			c25.12-6.1,47.31-13.76,68.32-18.92c87-21.39,145.66-30.37,221.24-36.29c31.55-2.47,61.43-3.52,93.76-9.85
			c105.98-20.75,125.2-55.46,179.69-79"/>
		<path class="st1" d="M0,1845.51c121.07-42.83,156.59-64.02,234.08-80.83C360.5,1737.26,461.12,1715,535.56,1695
			c24.86-6.68,46.78-14.95,67.66-20.71c84.92-23.45,143.18-34.93,219.73-42.18c31.43-2.97,61.32-4.3,93.47-10.43
			c106.04-20.19,127.99-50.94,183.58-71.25"/>
		<path class="st1" d="M0,1855.32c121.39-39.13,156.13-59.21,234.18-75.92c126.53-27.08,226.34-50.91,299.95-72.63
			c24.61-7.26,46.25-16.12,67.01-22.5c82.86-25.46,140.71-39.47,218.22-48.06c31.31-3.47,61.22-5.08,93.18-11
			c106.1-19.63,130.78-46.43,187.47-63.5"/>
		<path class="st1" d="M0,1865.12c121.7-35.44,155.67-54.41,234.27-71c126.65-26.74,225.64-52.13,298.42-75.58
			c24.36-7.85,45.73-17.29,66.36-24.29c80.82-27.43,138.24-43.99,216.72-53.95c31.18-3.96,61.12-5.86,92.88-11.57
			c106.16-19.07,133.56-41.91,191.36-55.75"/>
		<path class="st1" d="M0,1874.93c122.02-31.74,155.21-49.6,234.37-66.09c126.77-26.41,224.93-53.35,296.89-78.52
			c24.11-8.43,45.21-18.44,65.71-26.08c78.8-29.36,135.78-48.48,215.21-59.84c31.07-4.44,61.01-6.64,92.59-12.14
			c106.22-18.5,136.35-37.39,195.24-48"/>
		<path class="st1" d="M0,1884.73c122.34-28.04,154.75-44.8,234.47-61.18c126.88-26.07,224.23-54.58,295.36-81.47
			c23.85-9.02,44.7-19.58,65.05-27.86c76.8-31.26,133.32-52.96,213.7-65.72c30.95-4.92,60.91-7.42,92.3-12.71
			c106.28-17.92,139.14-32.88,199.13-40.25"/>
		<path class="st1" d="M0,1894.54c122.65-24.34,154.28-40,234.56-56.27c127-25.74,223.53-55.8,293.83-84.41
			c23.6-9.6,44.2-20.71,64.4-29.65c74.83-33.12,130.88-57.41,212.19-71.61c30.84-5.38,60.81-8.2,92-13.28
			c106.34-17.35,141.93-28.36,203.02-32.5"/>
		<path class="st1" d="M0,1904.35c122.97-20.65,153.82-35.2,234.66-51.35c127.11-25.4,222.82-57.03,292.3-87.36
			c23.34-10.19,43.71-21.83,63.75-31.44c72.89-34.95,128.44-61.84,210.69-77.49c30.73-5.85,60.7-8.97,91.71-13.86
			c106.41-16.76,144.72-23.85,206.9-24.75"/>
		<path class="st1" d="M0,1914.15c123.29-16.95,153.33-30.55,234.76-46.44c127.18-25.32,222.12-58.26,290.77-90.3
			c23.09-10.78,43.23-22.94,63.1-33.23c70.99-36.75,126.01-66.25,209.18-83.38c30.63-6.31,60.6-9.74,91.42-14.43
			c106.47-16.18,147.5-19.33,210.79-17"/>
		<path class="st1" d="M0,1923.96c123.6-13.25,152.87-25.74,234.86-41.53c127.3-24.97,221.41-59.49,289.24-93.25
			c22.84-11.36,42.75-24.04,62.45-35.02c69.12-38.53,123.6-70.65,207.67-89.26c30.53-6.76,60.5-10.52,91.13-15
			c106.53-15.59,150.29-14.82,214.68-9.25"/>
		<path class="st1" d="M0,1933.76c123.92-9.55,152.41-20.93,234.95-36.61c127.42-24.61,220.63-60.85,287.7-96.19
			c22.56-11.99,42.29-25.13,61.79-36.81c67.3-40.3,121.19-75.02,206.17-95.15c30.43-7.21,60.39-11.29,90.83-15.57
			c106.6-14.99,153.08-10.3,218.56-1.5"/>
		<path class="st1" d="M0,1943.57c124.24-5.85,151.95-16.12,235.05-31.7c127.53-24.26,219.92-62.07,286.17-99.14
			c22.3-12.58,41.85-26.21,61.14-38.59c65.51-42.04,118.8-79.37,204.66-101.04c30.34-7.65,60.29-12.06,90.54-16.14
			c106.66-14.39,155.87-5.78,222.45,6.25"/>
		<path class="st1" d="M0,1953.37c124.55-2.16,151.49-11.3,235.15-26.79c127.65-23.91,219.22-63.28,284.64-102.08
			c22.05-13.16,41.42-27.29,60.49-40.38c63.77-43.78,116.42-83.71,203.15-106.92c30.25-8.1,60.19-12.83,90.25-16.71
			c106.72-13.79,158.65-1.27,226.34,14"/>
		<path class="st1" d="M0,1963.18c124.87,1.54,151.03-6.49,235.24-21.88c127.77-23.56,218.52-64.49,283.11-105.03
			c21.8-13.74,41-28.36,59.84-42.17c62.07-45.51,114.05-88.03,201.64-112.81c30.17-8.53,60.09-13.54,89.95-17.29
			c106.81-12.99,161.44,3.25,230.22,21.75"/>
		<path class="st1" d="M0,1972.98c125.19,5.24,150.57-1.68,235.34-16.96c127.89-23.21,217.81-65.71,281.58-107.97
			c21.54-14.32,40.59-29.42,59.18-43.96c60.42-47.25,111.69-92.33,200.14-118.69c30.09-8.97,59.99-14.33,89.66-17.86
			c106.87-12.44,164.23,7.76,234.11,29.5"/>
		<path class="st1" d="M0,1982.79c125.5,8.94,150.11,3.13,235.44-12.05c128.01-22.85,217.11-66.92,280.05-110.92
			c21.29-14.9,40.2-30.48,58.53-45.75c58.81-48.98,109.35-96.61,198.63-124.58c30.01-9.4,59.88-15.11,89.37-18.43
			c106.92-11.89,167.02,12.28,238,37.25"/>
		<path class="st1" d="M0,1992.6c313.54,31.49,410.3-44.62,514.05-121c87.74-64.59,136.49-139.08,255-178
			c139.26-45.73,239.14-9.93,330.96,26"/>
	</g>
	<path class="st1" d="M0,1997.63c311.57,31,409.03-43.66,513.84-119.14c87.99-63.37,137.28-136.94,255.4-175.26
		c138.85-45.03,238.63-9.78,330.77,25.6"/>
	<path class="st1" d="M0,2002.66c309.6,30.52,407.75-42.71,513.63-117.28c88.24-62.15,138.06-134.8,255.81-172.52
		c138.44-44.33,238.11-9.63,330.57,25.2"/>
	<path class="st1" d="M0,2007.69c307.63,30.04,406.46-41.75,513.42-115.42c88.48-60.94,138.84-132.66,256.21-169.78
		c138.03-43.62,237.6-9.47,330.38,24.8"/>
	<path class="st1" d="M0,2012.72c305.66,29.55,405.16-40.79,513.21-113.55c88.71-59.73,139.63-130.52,256.61-167.05
		c137.62-42.92,237.09-9.32,330.19,24.4"/>
	<path class="st1" d="M0,2017.75c303.69,29.07,403.84-39.84,513-111.69c88.92-58.53,140.41-128.38,257.01-164.31
		c137.21-42.21,236.58-9.17,330,24"/>
	<path class="st1" d="M0,2022.78c301.72,28.58,402.52-38.89,512.79-109.83c89.13-57.34,141.2-126.24,257.42-161.57
		c136.8-41.51,236.07-9.01,329.8,23.6"/>
	<path class="st1" d="M0,2027.81c299.75,28.1,401.19-37.95,512.58-107.97c89.33-56.15,141.98-124.11,257.82-158.83
		c136.39-40.81,235.55-8.86,329.61,23.2"/>
	<path class="st1" d="M0,2032.84c297.77,27.61,399.84-37.01,512.37-106.11c89.52-54.97,142.76-121.97,258.22-156.09
		c135.98-40.1,235.04-8.71,329.42,22.8"/>
	<path class="st1" d="M0,2037.87c295.8,27.13,398.49-36.07,512.16-104.25c89.7-53.8,143.55-119.83,258.62-153.35
		c135.57-39.4,234.53-8.56,329.22,22.4"/>
	<path class="st1" d="M0,2042.9c293.83,26.64,397.13-35.14,511.95-102.38c89.87-52.63,144.33-117.69,259.03-150.62
		c135.16-38.7,234.02-8.4,329.03,22"/>
	<path class="st1" d="M0,2047.93c291.86,26.16,395.75-34.22,511.74-100.52c90.04-51.47,145.12-115.55,259.43-147.88
		c134.75-37.99,233.5-8.25,328.84,21.6"/>
	<path class="st1" d="M0,2052.97c289.89,25.68,394.37-33.29,511.53-98.66c90.19-50.32,145.9-113.41,259.83-145.14
		c134.34-37.29,232.99-8.1,328.65,21.2"/>
	<path class="st1" d="M0,2058c287.92,25.19,392.98-32.38,511.32-96.8c90.34-49.18,146.68-111.27,260.24-142.4
		c133.93-36.59,232.48-7.94,328.45,20.8"/>
	<path class="st1" d="M0,2063.03c285.95,24.71,391.58-31.47,511.11-94.94c90.48-48.04,147.47-109.13,260.64-139.66
		c133.52-35.88,231.97-7.79,328.26,20.4"/>
	<path class="st1" d="M0,2068.06c283.98,24.22,390.17-30.57,510.9-93.08c90.61-46.91,148.25-106.99,261.04-136.92
		c133.11-35.18,231.45-7.64,328.07,20"/>
	<path class="st1" d="M0,2073.09c282.01,23.74,388.75-29.68,510.69-91.22c90.73-45.79,149.04-104.85,261.44-134.18
		c132.7-34.48,230.94-7.49,327.87,19.6"/>
	<path class="st1" d="M0,2078.12c280.04,23.25,387.33-28.79,510.48-89.35c90.85-44.68,149.82-102.71,261.85-131.45
		c132.29-33.77,230.43-7.33,327.68,19.2"/>
	<path class="st1" d="M0,2083.15c278.07,22.77,385.89-27.91,510.27-87.49c90.96-43.57,150.6-100.57,262.25-128.71
		c131.88-33.07,229.92-7.18,327.49,18.8"/>
	<path class="st1" d="M0,2088.18c276.1,22.28,384.45-27.04,510.06-85.63c91.07-42.47,151.39-98.43,262.65-125.97
		c131.47-32.36,229.4-7.03,327.3,18.4"/>
	<path class="st1" d="M0,2093.21c274.13,21.8,383-26.18,509.85-83.77c91.17-41.39,152.17-96.29,263.05-123.23
		c131.06-31.66,228.89-6.88,327.1,18"/>
	<path class="st1" d="M0,2098.24c272.16,21.32,381.54-25.33,509.64-81.91c91.26-40.31,152.96-94.15,263.46-120.49
		c130.65-30.96,228.38-6.72,326.91,17.6"/>
	<path class="st1" d="M0,2103.27c270.19,20.83,380.08-24.49,509.43-80.05c91.35-39.23,153.74-92.01,263.86-117.75
		c130.24-30.25,227.87-6.57,326.72,17.2"/>
	<path class="st1" d="M0,2108.3c268.22,20.35,378.61-23.66,509.22-78.18c91.43-38.17,154.52-89.87,264.26-115.02
		c129.83-29.55,227.35-6.42,326.52,16.8"/>
	<path class="st1" d="M0,2113.33c266.25,19.86,377.13-22.83,509.01-76.32c91.5-37.11,155.31-87.73,264.67-112.28
		c129.42-28.85,226.84-6.26,326.33,16.4"/>
	<path class="st1" d="M0,2118.37c264.28,19.38,375.65-22.02,508.8-74.46c91.58-36.07,156.09-85.59,265.07-109.54
		c129-28.14,226.33-6.11,326.14,16"/>
	<path class="st1" d="M0,2123.4c262.3,18.89,374.16-21.22,508.59-72.6c91.65-35.03,156.88-83.45,265.47-106.8
		c128.59-27.44,225.82-5.96,325.95,15.6"/>
	<path class="st1" d="M0,2128.43c260.33,18.41,372.66-20.43,508.38-70.74c91.71-33.99,157.66-81.31,265.87-104.06
		c128.18-26.74,225.3-5.81,325.75,15.2"/>
	<path class="st1" d="M0,2133.46c258.36,17.92,371.16-19.65,508.17-68.88c91.77-32.97,158.44-79.17,266.28-101.32
		c127.77-26.03,224.79-5.65,325.56,14.8"/>
	<path class="st1" d="M0,2138.49c256.39,17.44,369.66-18.88,507.96-67.02c91.83-31.96,159.23-77.03,266.68-98.58
		c127.36-25.33,224.28-5.5,325.37,14.4"/>
	<path class="st1" d="M0,2143.52c254.42,16.96,368.15-18.13,507.75-65.15c91.88-30.95,160.01-74.89,267.08-95.85
		c126.95-24.63,223.77-5.35,325.17,14"/>
	<path class="st1" d="M0,2148.55c252.45,16.47,366.63-17.38,507.54-63.29c91.93-29.95,160.8-72.75,267.48-93.11
		c126.54-23.92,223.25-5.19,324.98,13.6"/>
	<path class="st1" d="M0,2153.58c250.48,15.99,365.11-16.65,507.33-61.43c91.98-28.96,161.58-70.61,267.89-90.37
		c126.13-23.22,222.74-5.04,324.79,13.2"/>
	<path class="st1" d="M0,2158.61c248.51,15.5,363.59-15.93,507.12-59.57c92.03-27.98,162.36-68.47,268.29-87.63
		c125.72-22.51,222.23-4.89,324.6,12.8"/>
	<path class="st1" d="M0,2163.64c246.54,15.02,362.07-15.23,506.91-57.71c92.07-27,163.15-66.33,268.69-84.89
		c125.31-21.81,221.72-4.74,324.4,12.4"/>
	<path class="st1" d="M0,2168.67c244.57,14.53,360.54-14.53,506.7-55.85c92.11-26.03,163.93-64.19,269.1-82.15
		c124.9-21.11,221.21-4.58,324.21,12"/>
	<path class="st1" d="M0,2173.7c242.6,14.05,359.01-13.85,506.5-53.98c92.15-25.07,164.72-62.05,269.5-79.42
		c124.49-20.4,220.69-4.43,324.02,11.6"/>
	<path class="st1" d="M0,2178.73c240.63,13.56,357.48-13.19,506.29-52.12c92.19-24.12,165.5-59.91,269.9-76.68
		c124.08-19.7,220.18-4.28,323.82,11.2"/>
	<path class="st1" d="M0,2183.77c238.66,13.08,355.94-12.53,506.08-50.26c92.23-23.18,166.28-57.77,270.3-73.94
		c123.67-19,219.67-4.13,323.63,10.8"/>
	<path class="st1" d="M0,2188.8c236.69,12.6,354.41-11.89,505.87-48.4c92.27-22.24,167.07-55.63,270.71-71.2
		c123.26-18.29,219.16-3.97,323.44,10.4"/>
	<path class="st1" d="M0,2193.83c234.72,12.11,352.87-11.27,505.66-46.54c92.31-21.31,167.85-53.49,271.11-68.46
		c122.85-17.59,218.64-3.82,323.25,10"/>
	<path class="st1" d="M0,2198.86c232.75,11.63,351.33-10.65,505.45-44.68c92.35-20.39,168.64-51.35,271.51-65.72
		c122.44-16.89,218.13-3.67,323.05,9.6"/>
	<path class="st1" d="M0,2203.89c230.78,11.14,349.79-10.05,505.24-42.82c92.38-19.47,169.42-49.21,271.91-62.98
		c122.03-16.18,217.62-3.51,322.86,9.2"/>
	<path class="st1" d="M0,2208.92c228.81,10.66,348.25-9.47,505.03-40.95c92.42-18.56,170.2-47.07,272.32-60.25
		c121.62-15.48,217.11-3.36,322.67,8.8"/>
	<path class="st1" d="M0,2213.95c226.83,10.17,346.72-8.9,504.82-39.09c92.46-17.66,170.99-44.93,272.72-57.51
		c121.21-14.78,216.59-3.21,322.47,8.4"/>
	<path class="st1" d="M0,2218.98c224.86,9.69,345.18-8.34,504.61-37.23c92.5-16.76,171.77-42.79,273.12-54.77
		c120.8-14.07,216.08-3.06,322.28,8"/>
	<path class="st1" d="M0,2224.01c222.89,9.2,343.64-7.79,504.4-35.37c92.54-15.87,172.56-40.66,273.52-52.03
		c120.39-13.37,215.57-2.9,322.09,7.6"/>
	<path class="st1" d="M0,2229.04c220.92,8.72,342.1-7.26,504.19-33.51c92.58-14.99,173.34-38.52,273.93-49.29
		c119.98-12.66,215.06-2.75,321.9,7.2"/>
	<path class="st1" d="M0,2234.07c218.95,8.24,340.57-6.75,503.98-31.65c92.63-14.11,174.12-36.38,274.33-46.55
		c119.57-11.96,214.54-2.6,321.7,6.8"/>
	<path class="st1" d="M0,2239.1c216.98,7.75,339.03-6.24,503.77-29.78c92.67-13.24,174.91-34.24,274.73-43.82
		c119.16-11.26,214.03-2.44,321.51,6.4"/>
	<path class="st1" d="M0,2244.13c215.01,7.27,337.5-5.75,503.56-27.92c92.72-12.38,175.69-32.1,275.14-41.08
		c118.75-10.55,213.52-2.29,321.32,6"/>
	<path class="st1" d="M0,2249.17c213.04,6.78,335.97-5.28,503.35-26.06c92.76-11.52,176.48-29.96,275.54-38.34
		c118.34-9.85,213.01-2.14,321.12,5.6"/>
	<path class="st1" d="M0,2254.2c211.07,6.3,334.45-4.82,503.14-24.2c92.81-10.66,177.26-27.82,275.94-35.6
		c117.93-9.15,212.49-1.99,320.93,5.2"/>
	<path class="st1" d="M0,2259.23c209.1,5.81,332.92-4.37,502.93-22.34c92.87-9.82,178.04-25.68,276.34-32.86
		c117.52-8.44,211.98-1.83,320.74,4.8"/>
	<path class="st1" d="M0,2264.26c207.13,5.33,331.4-3.93,502.72-20.48c92.92-8.97,178.83-23.54,276.75-30.12
		c117.11-7.74,211.47-1.68,320.55,4.4"/>
	<path class="st1" d="M0,2269.29c205.16,4.84,329.89-3.51,502.51-18.62c92.98-8.13,179.61-21.4,277.15-27.38
		c116.69-7.04,210.96-1.53,320.35,4"/>
	<path class="st1" d="M0,2274.32c203.19,4.36,328.37-3.11,502.3-16.75c93.04-7.3,180.4-19.26,277.55-24.65
		c116.28-6.33,210.44-1.38,320.16,3.6"/>
	<path class="st1" d="M0,2279.35c201.22,3.88,326.86-2.71,502.09-14.89c93.1-6.47,181.18-17.12,277.95-21.91
		c115.87-5.63,209.93-1.22,319.97,3.2"/>
	<path class="st1" d="M0,2284.38c199.25,3.39,325.36-2.33,501.88-13.03c93.17-5.65,181.96-14.98,278.36-19.17
		c115.46-4.93,209.42-1.07,319.77,2.8"/>
	<path class="st1" d="M0,2289.41c197.28,2.91,323.86-1.96,501.67-11.17c93.24-4.83,182.75-12.84,278.76-16.43
		c115.05-4.22,208.91-0.92,319.58,2.4"/>
	<path class="st1" d="M0,2294.44c195.31,2.42,322.36-1.6,501.46-9.31c93.31-4.01,183.53-10.7,279.16-13.69
		c114.64-3.52,208.39-0.76,319.39,2"/>
	<path class="st1" d="M0,2299.47c193.34,1.94,320.87-1.26,501.25-7.45c93.39-3.2,184.32-8.56,279.57-10.95
		c114.23-2.81,207.88-0.61,319.2,1.6"/>
	<path class="st1" d="M0,2304.5c191.36,1.45,319.38-0.93,501.04-5.58c93.47-2.4,185.1-6.42,279.97-8.22
		c113.82-2.11,207.37-0.46,319,1.2"/>
	<path class="st1" d="M0,2309.53c189.39,0.97,317.9-0.6,500.83-3.72c93.55-1.59,185.88-4.28,280.37-5.48
		c113.41-1.41,206.86-0.31,318.81,0.8"/>
	<path class="st1" d="M0,2314.57c187.42,0.48,316.43-0.3,500.62-1.86c93.64-0.8,186.67-2.14,280.77-2.74
		c113-0.7,206.34-0.15,318.62,0.4"/>
	<path class="st1" d="M0,2319.6c391.77,0,708.24,0,1100.01,0"/>
</g>
</svg>
