<?xml version="1.0" encoding="utf-8"?>
<!-- Generator: Adobe Illustrator 27.1.1, SVG Export Plug-In . SVG Version: 6.00 Build 0)  -->
<svg version="1.1" id="Layer_1" xmlns="http://www.w3.org/2000/svg" xmlns:xlink="http://www.w3.org/1999/xlink" x="0px" y="0px"
	 viewBox="0 0 330 330" style="enable-background:new 0 0 330 330;" xml:space="preserve">
<style type="text/css">
	.st0{fill:#CEE4EA;}
	.st1{opacity:0.4;}
	.st2{fill:#74FADF;}
	.st3{opacity:0.5;}
	.st4{fill:#C3DCF0;}
	.st5{fill:#7BFDE3;}
	.st6{fill:#64FF0E;}
	.st7{fill:#86A9D1;}
	.st8{fill:#FCF340;}
	.st9{fill:#4766A6;}
	.st10{fill:#FFA119;}
	.st11{fill:#B32DCC;}
	.st12{fill:#FF5098;}
	.st13{fill:#FFFFFF;}
</style>
<g>
	<g>
		<g>
			<path class="st0" d="M164.96,253.43c-4.55,0-9.2-0.37-13.81-1.09c-4.87-0.76-9.71-1.96-14.38-3.57
				c-21.9-7.36-39.79-22.72-50.37-43.25c-10.81-20.98-12.81-44.93-5.61-67.44c0.7-2.18,1.45-4.24,2.24-6.12
				c1.67-4.23,3.66-8.27,5.92-12.01c3.25-5.56,7.21-10.84,11.78-15.68c3.29-3.53,6.9-6.78,10.73-9.64c2.45-1.89,5-3.62,7.59-5.17
				c1.74-1.07,3.57-2.1,5.44-3.06c1.87-0.97,3.77-1.86,5.64-2.65c2.77-1.22,5.66-2.29,8.61-3.18c4.56-1.46,9.3-2.52,14.08-3.15
				c4.03-0.56,8.08-0.84,12.05-0.84c2.52,0,5.06,0.11,7.54,0.34c4.37,0.33,8.81,1.05,13.22,2.14c2.01,0.45,4.13,1.03,6.3,1.73
				c22.51,7.2,40.87,22.72,51.68,43.7c10.58,20.53,12.72,44.01,6.01,66.11c-0.12,0.47-0.27,0.93-0.4,1.33
				c-1.32,4.13-3.02,8.32-5.04,12.47c-3.35,6.71-7.45,12.87-12.18,18.3c-3.47,4.11-7.42,7.94-11.74,11.38
				c-2.86,2.31-5.67,4.27-8.57,6.02c-1.82,1.17-3.76,2.29-6.16,3.52c-2.39,1.23-4.48,2.2-6.41,2.96c-3.37,1.42-6.69,2.6-9.89,3.5
				c-5.31,1.53-10.72,2.52-16.07,2.97C170.45,253.29,167.7,253.43,164.96,253.43z M151.43,155.68l-0.28,0.47
				c-0.33,0.56-0.65,1.09-0.92,1.68c-0.34,0.64-0.64,1.34-0.9,2.16c-1.32,4.22-0.94,8.67,1.06,12.55c0.81,1.58,1.85,2.99,3.09,4.19
				c0.3,0.31,0.66,0.62,1.05,0.91c0.7,0.63,1.46,1.16,2.25,1.56c0.85,0.54,1.87,1.01,3.05,1.39c1.57,0.53,3.24,0.82,4.96,0.85
				l0.24,0c0.37,0,0.8,0,1.24-0.07h0.04c0.24,0,0.47-0.03,0.71-0.06l0.22-0.03c0.4-0.05,0.75-0.11,1.06-0.18
				c0.11-0.01,0.25-0.02,0.4-0.08c0.22-0.04,0.51-0.1,0.82-0.21c0.49-0.12,1-0.29,1.51-0.5l0.11-0.05c0.42-0.17,0.94-0.4,1.41-0.64
				s0.96-0.54,1.41-0.82c0.52-0.32,0.97-0.65,1.36-0.99c0.17-0.11,0.38-0.31,0.6-0.51c0.13-0.09,0.23-0.19,0.29-0.27
				c0.25-0.21,0.5-0.47,0.78-0.77l0.15-0.16c0.16-0.17,0.33-0.35,0.49-0.58c0.31-0.33,0.55-0.67,0.77-0.97l0.05-0.06l0.03-0.01
				l0.14-0.21c0.42-0.66,0.85-1.34,1.18-2.09c0.33-0.61,0.64-1.36,0.9-2.16l0.03-0.09l0.03-0.19c0.32-1,0.54-2.13,0.62-3.28
				c0.11-0.91,0.12-1.82,0.02-2.75c0-0.4-0.05-0.87-0.13-1.31c-0.26-1.68-0.81-3.35-1.62-4.92c-2-3.87-5.41-6.76-9.6-8.14
				c-0.83-0.27-1.58-0.43-2.35-0.53c-0.59-0.11-1.2-0.16-1.86-0.22l-0.53-0.04l-0.03,0.02c-0.1,0-0.21-0.01-0.31-0.01
				c-0.47,0-0.92,0.04-1.33,0.09c-0.86,0.07-1.69,0.21-2.43,0.41H161l-0.09,0.04c-0.24,0.04-0.46,0.11-0.67,0.18
				c-0.3,0.07-0.64,0.19-0.98,0.32l-0.1,0.05c-0.27,0.1-0.64,0.25-0.96,0.41c-0.27,0.09-0.53,0.23-0.74,0.34
				c-0.21,0.11-0.47,0.24-0.7,0.41c-0.3,0.16-0.62,0.37-0.91,0.56l-0.08,0.05c-0.3,0.2-0.6,0.4-0.89,0.66
				c-0.12,0.09-0.3,0.22-0.47,0.39l-0.2,0.1l-0.06,0.15c-0.58,0.48-1.16,1.05-1.71,1.72c-0.38,0.42-0.7,0.81-0.99,1.26
				L151.43,155.68z"/>
			<path d="M164.86,77.48c2.5,0,5.01,0.11,7.49,0.34c4.31,0.33,8.7,1.04,13.09,2.12c1.96,0.44,4.05,1.01,6.21,1.7
				c22.28,7.12,40.45,22.48,51.15,43.25c10.47,20.32,12.59,43.56,5.95,65.43l-0.01,0.04l-0.01,0.04c-0.1,0.4-0.25,0.85-0.37,1.24
				c-1.31,4.09-2.99,8.24-4.99,12.33c-3.32,6.65-7.38,12.75-12.08,18.14c-3.43,4.06-7.33,7.84-11.61,11.25
				c-2.83,2.28-5.59,4.22-8.46,5.94l-0.03,0.02l-0.03,0.02c-1.77,1.14-3.69,2.24-6.06,3.46c-2.36,1.22-4.43,2.17-6.37,2.94
				c-3.31,1.4-6.59,2.56-9.78,3.46c-5.25,1.51-10.6,2.5-15.92,2.94c-2.65,0.26-5.37,0.39-8.09,0.39c-4.51,0-9.1-0.36-13.66-1.08
				c-4.82-0.75-9.6-1.94-14.24-3.54c-21.67-7.28-39.38-22.48-49.85-42.8c-10.7-20.77-12.68-44.47-5.55-66.75
				c0.69-2.16,1.43-4.19,2.23-6.08c1.65-4.17,3.62-8.16,5.86-11.88c3.2-5.49,7.12-10.71,11.66-15.51c3.25-3.49,6.82-6.69,10.62-9.54
				c2.41-1.86,4.93-3.57,7.51-5.11c1.71-1.05,3.52-2.07,5.37-3.02c1.85-0.95,3.73-1.84,5.6-2.63c2.73-1.2,5.59-2.25,8.52-3.15
				c4.5-1.44,9.18-2.49,13.92-3.11C156.92,77.76,160.93,77.48,164.86,77.48 M165.04,147.64c-0.03,0-0.07,0-0.1,0
				c-0.5,0-0.97,0.04-1.4,0.09c-0.89,0.07-1.73,0.21-2.5,0.41l-0.3,0.01l-0.14,0.07c-0.21,0.05-0.4,0.1-0.57,0.16
				c-0.39,0.1-0.74,0.23-1.09,0.36l-0.13,0.05l0,0c-0.32,0.12-0.65,0.26-0.97,0.41c-0.31,0.11-0.59,0.26-0.8,0.37
				c-0.21,0.11-0.49,0.25-0.76,0.44c-0.31,0.17-0.61,0.36-0.9,0.55l-0.04,0.02l-0.08,0.06c-0.31,0.21-0.62,0.42-0.93,0.68
				c-0.18,0.14-0.39,0.3-0.6,0.5c-0.06,0.05-0.12,0.11-0.17,0.17c-0.62,0.51-1.22,1.11-1.8,1.81c-0.35,0.4-0.66,0.76-0.94,1.17
				l-0.06,0.03l-0.27,0.45l-0.14,0.23c-0.32,0.54-0.66,1.1-0.95,1.72c-0.38,0.72-0.69,1.46-0.97,2.33
				c-1.39,4.44-0.99,9.14,1.12,13.23c0.85,1.65,1.94,3.14,3.24,4.41c0.33,0.34,0.69,0.66,1.09,0.95c0.78,0.69,1.56,1.23,2.37,1.65
				c0.97,0.61,2.04,1.1,3.24,1.48c1.67,0.57,3.43,0.87,5.25,0.91l0.03,0l0.03,0l0.21,0c0.37,0,0.81,0,1.29-0.07
				c0.32,0,0.58-0.04,0.82-0.07l0.2-0.03c0.41-0.05,0.77-0.11,1.09-0.19c0.13-0.01,0.3-0.04,0.49-0.1c0.23-0.04,0.53-0.11,0.85-0.22
				c0.53-0.13,1.07-0.31,1.61-0.54l0.1-0.04l0,0c0.49-0.21,1-0.43,1.48-0.67c0.48-0.25,0.96-0.54,1.41-0.81l0.03-0.02l0.06-0.04
				c0.51-0.31,0.97-0.65,1.38-1.01c0.25-0.18,0.46-0.37,0.65-0.55c0.14-0.11,0.26-0.22,0.36-0.33c0.26-0.23,0.53-0.49,0.81-0.8
				l0.14-0.15c0.16-0.17,0.35-0.37,0.53-0.63c0.29-0.31,0.53-0.63,0.73-0.91l0.06-0.03l0.23-0.37l0.09-0.12l0.01-0.04
				c0.4-0.64,0.82-1.31,1.15-2.04c0.37-0.7,0.69-1.48,0.96-2.3c0.04-0.13,0.06-0.25,0.08-0.34c0.34-1.09,0.55-2.23,0.64-3.39
				c0.12-0.98,0.13-1.92,0.03-2.88c-0.01-0.49-0.06-0.98-0.14-1.44c-0.28-1.8-0.86-3.54-1.71-5.2c-2.11-4.09-5.7-7.13-10.14-8.59
				c-0.86-0.27-1.64-0.45-2.45-0.56c-0.67-0.13-1.32-0.18-1.95-0.23l-0.27-0.02l-0.52-0.04L165.04,147.64 M164.86,75.66
				c-4.05,0-8.12,0.29-12.17,0.85c-4.79,0.63-9.53,1.68-14.22,3.18c-2.91,0.89-5.85,1.97-8.7,3.22c-1.9,0.81-3.84,1.72-5.7,2.68
				c-1.86,0.96-3.73,2.01-5.49,3.09c-2.67,1.6-5.26,3.37-7.67,5.22c-3.94,2.95-7.55,6.21-10.84,9.74
				c-4.58,4.85-8.58,10.15-11.9,15.83c-2.33,3.87-4.33,7.96-5.98,12.13c-0.84,2.01-1.6,4.1-2.27,6.2
				c-6.96,21.77-5.63,46.21,5.67,68.14c11.07,21.48,29.69,36.57,50.89,43.69c4.73,1.63,9.59,2.84,14.53,3.61
				c4.58,0.72,9.26,1.1,13.95,1.1c2.75,0,5.51-0.13,8.27-0.4c5.45-0.45,10.87-1.45,16.24-3c3.36-0.94,6.68-2.13,9.98-3.53
				c2.18-0.86,4.35-1.9,6.5-3c2.14-1.1,4.21-2.26,6.21-3.55c3.07-1.84,5.95-3.9,8.66-6.08c4.37-3.48,8.34-7.31,11.86-11.49
				c4.92-5.64,9.03-11.91,12.32-18.5c2-4.09,3.72-8.3,5.09-12.59c0.13-0.42,0.28-0.89,0.4-1.34c6.49-21.4,5-45.32-6.07-66.79
				c-11.3-21.92-30.44-37.19-52.21-44.14c-2.09-0.67-4.24-1.27-6.36-1.75c-4.36-1.08-8.85-1.82-13.35-2.16
				C169.96,75.78,167.41,75.66,164.86,75.66L164.86,75.66z M161.27,149.96c0.8-0.24,1.65-0.37,2.44-0.43
				c0.42-0.05,0.82-0.08,1.23-0.08c0.12,0,0.23,0,0.35,0.01c0.02,0.01,0.06,0.01,0.09,0.01c0.03,0,0.07,0,0.08-0.01
				c0.73,0.06,1.41,0.1,2.09,0.23c0.75,0.1,1.45,0.26,2.18,0.49c3.79,1.24,7.12,3.89,9.08,7.69c0.78,1.52,1.29,3.09,1.53,4.67
				c0.07,0.4,0.11,0.82,0.12,1.25c0.1,0.87,0.09,1.7-0.02,2.59c-0.07,1.04-0.27,2.11-0.6,3.15c-0.02,0.05-0.02,0.14-0.03,0.19
				c-0.22,0.68-0.5,1.4-0.86,2.06c-0.3,0.68-0.71,1.33-1.12,1.98c0,0-0.03,0.02-0.05,0.07c-0.26,0.35-0.53,0.75-0.87,1.11
				c-0.17,0.26-0.38,0.46-0.6,0.7c-0.22,0.25-0.48,0.51-0.76,0.74c-0.05,0.07-0.14,0.16-0.21,0.19c-0.21,0.19-0.41,0.39-0.64,0.55
				c-0.36,0.32-0.77,0.62-1.21,0.88c-0.03,0.02-0.03,0.02-0.03,0.02c-0.43,0.27-0.9,0.55-1.35,0.78c-0.45,0.23-0.95,0.45-1.42,0.64
				c0,0,0,0-0.03,0.02c-0.47,0.2-0.95,0.36-1.42,0.47c-0.29,0.11-0.57,0.16-0.81,0.2c-0.1,0.05-0.19,0.05-0.28,0.06
				c-0.35,0.09-0.71,0.15-1.04,0.19c-0.3,0.03-0.55,0.08-0.82,0.08c-0.03,0-0.06,0-0.1,0c-0.49,0.08-0.97,0.06-1.41,0.07
				c-1.63-0.03-3.22-0.31-4.7-0.81c-1.05-0.33-2.01-0.76-2.92-1.34c-0.77-0.39-1.47-0.9-2.12-1.49c-0.35-0.26-0.67-0.53-0.95-0.82
				c-1.14-1.12-2.13-2.44-2.92-3.96c-1.96-3.8-2.18-8.05-1-11.85c0.23-0.73,0.5-1.4,0.86-2.06c0.29-0.63,0.65-1.21,1.02-1.84
				c0.03-0.02,0.09-0.09,0.1-0.14c0.29-0.46,0.62-0.84,0.97-1.25c0.51-0.61,1.11-1.23,1.77-1.74c0.02-0.05,0.02-0.05,0.05-0.07
				c0.14-0.16,0.33-0.3,0.52-0.44c0.24-0.21,0.5-0.39,0.79-0.58l0.03-0.02c0.29-0.19,0.62-0.41,0.93-0.57
				c0.19-0.14,0.43-0.27,0.64-0.37c0.21-0.11,0.45-0.23,0.67-0.3c0.31-0.16,0.67-0.3,1-0.43l0.03-0.02
				c0.33-0.13,0.62-0.23,0.93-0.31c0.22-0.07,0.45-0.14,0.66-0.16c0.02-0.01,0.03-0.01,0.04-0.01
				C161.23,149.95,161.25,149.96,161.27,149.96L161.27,149.96z"/>
		</g>
		<g class="st1">
			<path class="st2" d="M184.95,81.96l-14.03,48.66l-5.45,18.85c-0.04,0.02-0.13,0.02-0.17,0c-0.54-0.03-1.04,0.01-1.58,0.07
				l2.38-19.46l6.07-50.19C176.49,80.19,180.78,80.91,184.95,81.96z"/>
		</g>
		<g class="st3">
			<path class="st4" d="M153.15,154.98c-0.36,0.4-0.69,0.79-0.97,1.24c-0.02,0.05-0.07,0.12-0.11,0.14l-18.51-6.49l-47.77-16.81
				c1.56-3.99,3.48-7.91,5.73-11.6l44.41,24.18L153.15,154.98z"/>
		</g>
		<g class="st1">
			<path class="st5" d="M160.09,179.72l-2.38,19.46l-6.1,50.21c-4.7-0.72-9.37-1.9-13.89-3.46l14.01-48.6l5.45-18.94
				C158.08,178.96,159.05,179.39,160.09,179.72z"/>
		</g>
		<g class="st3">
			<path class="st4" d="M246.76,189.72c-0.08,0.44-0.24,0.91-0.39,1.29c-1.28,4.11-2.93,8.12-4.85,12.03l-44.44-24.16l-17.22-9.34
				c0.33-1.04,0.53-2.11,0.6-3.15l18.57,6.51L246.76,189.72z"/>
		</g>
		<g class="st1">
			<path class="st6" d="M172.18,79.89l-6.07,50.19l-2.38,19.46c-0.8,0.06-1.65,0.19-2.45,0.43l-2.23-19.43l-5.81-50.18
				C159.55,79.49,165.89,79.32,172.18,79.89z"/>
		</g>
		<g class="st1">
			<path class="st7" d="M154.92,153.24c-0.65,0.51-1.25,1.13-1.77,1.74l-17.22-9.34l-44.41-24.18c3.18-5.44,6.99-10.51,11.36-15.16
				l37.52,33.85L154.92,153.24z"/>
		</g>
		<g class="st1">
			<path class="st6" d="M172.85,250.07c-7.12,0.69-14.25,0.44-21.24-0.68l6.1-50.21l2.38-19.46c1.49,0.51,3.07,0.78,4.7,0.82
				l2.23,19.34L172.85,250.07z"/>
		</g>
		<g class="st1">
			<path class="st7" d="M241.52,203.04c-3.16,6.35-7.08,12.29-11.78,17.69l-37.51-33.85l-14.45-13.04c0.02-0.05,0.05-0.07,0.05-0.07
				c0.41-0.64,0.82-1.3,1.12-1.98c0.35-0.66,0.64-1.38,0.86-2.06c0.02-0.05,0.02-0.14,0.04-0.19l17.22,9.34L241.52,203.04z"/>
		</g>
		<g class="st1">
			<path class="st8" d="M161.27,149.96c-0.05-0.02-0.05-0.02-0.08,0c-0.21,0.02-0.44,0.09-0.66,0.16c-0.31,0.07-0.6,0.18-0.94,0.31
				l-5.54-18.64l-14.43-48.41c4.49-1.4,9.02-2.42,13.6-3.03l5.81,50.18L161.27,149.96z"/>
		</g>
		<g class="st1">
			<path class="st9" d="M156.28,152.14c-0.29,0.2-0.54,0.37-0.79,0.59c-0.19,0.14-0.38,0.28-0.52,0.44
				c-0.03,0.02-0.03,0.02-0.05,0.07l-14.53-13.09l-37.52-33.85c3.16-3.38,6.63-6.47,10.37-9.32l31.06,39.84L156.28,152.14z"/>
		</g>
		<g class="st1">
			<path class="st8" d="M188.41,247.2c-5.14,1.47-10.32,2.43-15.56,2.87l-5.82-50.19l-2.23-19.34c0.44-0.01,0.93,0,1.41-0.07
				c0.32,0.02,0.59-0.05,0.92-0.08c0.34-0.04,0.7-0.09,1.04-0.18c0.08,0,0.17-0.01,0.27-0.05l5.55,18.64L188.41,247.2z"/>
		</g>
		<g class="st1">
			<path class="st9" d="M229.74,220.73c-3.39,4.02-7.18,7.68-11.36,11.01l-31.07-39.83l-11.97-15.33c0.07-0.04,0.15-0.13,0.21-0.2
				c0.27-0.23,0.53-0.49,0.75-0.74c0.22-0.25,0.43-0.44,0.6-0.71c0.35-0.35,0.62-0.75,0.87-1.1l14.45,13.04L229.74,220.73z"/>
		</g>
		<g class="st1">
			<path class="st10" d="M159.59,150.43l-0.03,0.02c-0.34,0.13-0.7,0.27-1.01,0.43l-7.56-17.91l-19.68-46.49
				c2.71-1.18,5.53-2.24,8.32-3.11l14.43,48.41L159.59,150.43z"/>
		</g>
		<g class="st1">
			<path class="st11" d="M157.25,151.56c-0.32,0.16-0.64,0.37-0.94,0.56l-0.04,0.02l-11.97-15.33l-31.06-39.84
				c2.32-1.76,4.82-3.44,7.35-4.97l26.45,43L157.25,151.56z"/>
		</g>
		<g class="st1">
			<path class="st10" d="M197.94,243.81c-3.15,1.36-6.33,2.48-9.53,3.39l-14.43-48.41l-5.55-18.64c0.25-0.05,0.53-0.1,0.82-0.21
				c0.47-0.11,0.95-0.27,1.42-0.46c0.04-0.02,0.04-0.02,0.04-0.02l7.55,17.87L197.94,243.81z"/>
		</g>
		<g class="st1">
			<path class="st11" d="M218.38,231.74c-2.6,2.09-5.34,4.07-8.29,5.8l-26.45-43l-10.18-16.52c0,0,0,0,0.04-0.02
				c0.44-0.26,0.84-0.56,1.21-0.88c0.23-0.16,0.43-0.35,0.64-0.54l11.97,15.33L218.38,231.74z"/>
		</g>
		<g class="st1">
			<path class="st12" d="M158.56,150.88c-0.23,0.07-0.46,0.2-0.67,0.31c-0.21,0.11-0.44,0.23-0.64,0.37l-10.2-16.55l-26.45-43
				c1.69-1.04,3.45-2.04,5.25-2.97c1.79-0.93,3.62-1.78,5.46-2.55l19.68,46.49L158.56,150.88z"/>
		</g>
		<g class="st1">
			<path class="st12" d="M210.09,237.55c-1.9,1.24-3.9,2.36-5.93,3.41c-2.04,1.04-4.15,2.04-6.22,2.85l-19.68-46.49l-7.55-17.87
				c0.47-0.2,0.97-0.42,1.42-0.64c0.45-0.24,0.92-0.52,1.34-0.78l10.18,16.52L210.09,237.55z"/>
		</g>
		<g>
			<g>
				<path class="st13" d="M164.75,199.05c-2.28,0-4.59-0.26-6.85-0.76c-1.93-0.4-3.84-0.99-5.84-1.81
					c-7.46-3.02-13.62-8.66-17.34-15.88c-4.18-8.1-4.94-17.32-2.15-25.96c0.57-1.79,1.13-3.17,1.77-4.33
					c0.65-1.5,1.42-2.87,2.31-4.15c1.2-1.86,2.66-3.66,4.37-5.37c1.17-1.15,2.46-2.25,3.81-3.24c0.86-0.61,1.76-1.21,2.67-1.76
					c0.64-0.37,1.25-0.73,1.88-1.05c0.64-0.33,1.29-0.62,1.94-0.92c0.98-0.42,1.99-0.81,3.01-1.16c1.58-0.52,3.22-0.94,4.85-1.22
					c1.88-0.31,3.73-0.47,5.49-0.47c0.46,0,0.92,0.01,1.37,0.03c1.59,0.02,3.15,0.19,4.67,0.51c1.4,0.17,2.85,0.51,4.63,1.08
					c8.66,2.74,15.73,8.71,19.91,16.81c3.71,7.19,4.72,15.47,2.86,23.29c-0.19,0.98-0.42,1.84-0.71,2.65
					c-0.35,1.09-0.74,2.15-1.19,3.19c-1.2,2.84-2.78,5.45-4.7,7.78c-1.38,1.77-2.99,3.41-4.8,4.91c-1.16,0.96-2.36,1.82-3.57,2.56
					c-0.76,0.51-1.59,0.99-2.56,1.49c-0.99,0.51-1.84,0.89-2.67,1.21c-1.34,0.56-2.74,1.04-4.19,1.43
					c-2.28,0.61-4.55,0.97-6.76,1.06C166.23,199.02,165.49,199.05,164.75,199.05L164.75,199.05z M151.43,155.68l-0.28,0.47
					c-0.33,0.56-0.65,1.09-0.92,1.68c-0.34,0.64-0.64,1.34-0.9,2.16c-1.32,4.22-0.94,8.67,1.06,12.55c0.81,1.58,1.85,2.99,3.09,4.19
					c0.3,0.31,0.66,0.62,1.05,0.91c0.7,0.63,1.46,1.16,2.25,1.56c0.85,0.54,1.87,1.01,3.05,1.39c1.57,0.53,3.24,0.82,4.96,0.85
					l0.24,0c0.38,0,0.8,0,1.24-0.07h0.04c0.24,0,0.47-0.03,0.71-0.06l0.22-0.03c0.4-0.05,0.75-0.11,1.06-0.18
					c0.11-0.01,0.25-0.02,0.4-0.08c0.22-0.04,0.51-0.1,0.82-0.21c0.49-0.12,1-0.29,1.51-0.5l0.11-0.05c0.42-0.17,0.94-0.4,1.41-0.64
					s0.96-0.54,1.41-0.82c0.52-0.32,0.97-0.65,1.36-0.99c0.17-0.11,0.38-0.31,0.6-0.51c0.13-0.09,0.23-0.19,0.29-0.27
					c0.25-0.21,0.5-0.47,0.78-0.77l0.15-0.16c0.16-0.17,0.33-0.35,0.49-0.58c0.31-0.33,0.55-0.67,0.77-0.97l0.05-0.06l0.03-0.01
					l0.14-0.21c0.42-0.66,0.85-1.34,1.18-2.09c0.34-0.63,0.63-1.33,0.9-2.16l0.03-0.09l0.03-0.19c0.32-1,0.54-2.13,0.62-3.28
					c0.11-0.91,0.12-1.82,0.02-2.75c0-0.4-0.05-0.87-0.13-1.31c-0.26-1.68-0.81-3.35-1.62-4.92c-2-3.87-5.41-6.76-9.6-8.14
					c-0.83-0.27-1.58-0.43-2.35-0.53c-0.59-0.11-1.2-0.16-1.86-0.22l-0.53-0.04l-0.03,0.02c-0.1,0-0.21-0.01-0.31-0.01
					c-0.47,0-0.92,0.04-1.33,0.09c-0.86,0.07-1.69,0.21-2.43,0.41H161l-0.09,0.04c-0.24,0.04-0.46,0.11-0.67,0.18
					c-0.3,0.07-0.64,0.19-0.98,0.32l-0.05,0.02l-0.05,0.03c-0.27,0.1-0.64,0.25-0.96,0.41c-0.27,0.09-0.53,0.23-0.74,0.34
					c-0.21,0.11-0.47,0.24-0.7,0.41c-0.3,0.16-0.62,0.37-0.91,0.56l-0.08,0.05c-0.3,0.2-0.6,0.4-0.89,0.66
					c-0.12,0.09-0.3,0.22-0.47,0.39l-0.2,0.1l-0.06,0.15c-0.58,0.48-1.16,1.05-1.71,1.72c-0.38,0.42-0.7,0.81-0.99,1.26
					L151.43,155.68z"/>
			</g>
			<g>
				<path d="M164.69,131.86c0.45,0,0.89,0.01,1.33,0.03l0.03,0l0.03,0c1.49,0.01,2.99,0.18,4.46,0.49l0.08,0.02l0.08,0.01
					c1.26,0.15,2.65,0.48,4.39,1.03c8.42,2.66,15.3,8.48,19.37,16.36c3.61,7,4.6,15.05,2.78,22.67l-0.01,0.04l-0.01,0.04
					c-0.18,0.9-0.39,1.72-0.66,2.48l-0.01,0.02l-0.01,0.02c-0.33,1.04-0.72,2.07-1.15,3.09c-1.16,2.75-2.69,5.29-4.56,7.55
					l-0.02,0.02l-0.02,0.02c-1.32,1.69-2.88,3.29-4.65,4.74c-1.13,0.93-2.29,1.77-3.47,2.49l-0.03,0.02l-0.03,0.02
					c-0.7,0.47-1.5,0.93-2.44,1.42c-0.94,0.49-1.79,0.87-2.57,1.17l-0.03,0.01l-0.03,0.01c-1.27,0.54-2.63,1-4.04,1.38
					c-2.21,0.59-4.42,0.94-6.56,1.03l-0.03,0l-0.03,0c-0.71,0.05-1.43,0.08-2.14,0.08c-2.22,0-4.46-0.25-6.68-0.75
					c-1.87-0.39-3.72-0.96-5.67-1.76c-7.26-2.94-13.25-8.43-16.87-15.45c-4.06-7.89-4.81-16.86-2.09-25.27
					c0.55-1.73,1.09-3.06,1.7-4.17l0.04-0.07l0.03-0.08c0.6-1.37,1.33-2.69,2.19-3.92l0.02-0.03l0.02-0.03
					c1.14-1.78,2.57-3.53,4.21-5.18c1.15-1.13,2.4-2.19,3.7-3.15c0.86-0.61,1.74-1.19,2.62-1.72c0.63-0.37,1.23-0.72,1.84-1.03
					c0.61-0.31,1.24-0.6,1.89-0.89c0.96-0.41,1.95-0.79,2.91-1.13c1.56-0.51,3.15-0.92,4.72-1.19
					C161.18,132.02,162.98,131.86,164.69,131.86 M165.04,147.64c-0.03,0-0.07,0-0.1,0c-0.5,0-0.97,0.04-1.4,0.09
					c-0.89,0.07-1.73,0.21-2.5,0.41l-0.3,0.01l-0.14,0.07c-0.21,0.05-0.4,0.1-0.57,0.16c-0.39,0.1-0.74,0.23-1.09,0.36l-0.13,0.05
					l0,0c-0.32,0.12-0.65,0.26-0.97,0.41c-0.31,0.11-0.59,0.26-0.8,0.37c-0.21,0.11-0.49,0.25-0.76,0.44
					c-0.31,0.17-0.61,0.36-0.9,0.55l-0.04,0.02l-0.08,0.06c-0.31,0.21-0.62,0.42-0.93,0.68c-0.18,0.14-0.39,0.3-0.6,0.5
					c-0.06,0.05-0.12,0.11-0.17,0.17c-0.62,0.51-1.22,1.11-1.8,1.81c-0.35,0.4-0.66,0.76-0.94,1.17l-0.06,0.03l-0.27,0.45
					l-0.14,0.23c-0.32,0.54-0.66,1.1-0.95,1.72c-0.38,0.72-0.69,1.46-0.97,2.33c-1.39,4.44-0.99,9.14,1.12,13.23
					c0.85,1.65,1.94,3.14,3.24,4.41c0.33,0.34,0.69,0.66,1.09,0.95c0.78,0.69,1.56,1.23,2.37,1.65c0.97,0.61,2.04,1.1,3.24,1.48
					c1.67,0.57,3.43,0.87,5.25,0.91l0.03,0l0.03,0l0.21,0c0.37,0,0.81,0,1.29-0.07c0.32,0,0.58-0.04,0.82-0.07l0.2-0.03
					c0.41-0.05,0.77-0.11,1.09-0.19c0.13-0.01,0.3-0.04,0.49-0.1c0.23-0.04,0.53-0.11,0.85-0.22c0.53-0.13,1.07-0.31,1.61-0.54
					l0.1-0.04l0,0c0.49-0.21,1-0.43,1.48-0.67c0.48-0.25,0.96-0.54,1.41-0.81l0.03-0.02l0.06-0.04c0.51-0.31,0.97-0.65,1.38-1.01
					c0.25-0.18,0.46-0.37,0.65-0.55c0.14-0.11,0.26-0.22,0.36-0.33c0.26-0.23,0.53-0.49,0.81-0.8l0.14-0.15
					c0.16-0.17,0.35-0.37,0.53-0.63c0.29-0.31,0.53-0.63,0.72-0.91l0.06-0.03l0.23-0.37l0.09-0.12l0.01-0.04
					c0.4-0.64,0.82-1.31,1.15-2.04c0.38-0.72,0.69-1.45,0.96-2.3c0.04-0.13,0.06-0.25,0.08-0.34c0.34-1.09,0.55-2.23,0.64-3.39
					c0.12-0.98,0.13-1.92,0.03-2.88c-0.01-0.49-0.06-0.98-0.14-1.44c-0.28-1.79-0.86-3.54-1.71-5.2c-2.11-4.09-5.7-7.13-10.14-8.59
					c-0.86-0.27-1.64-0.45-2.45-0.56c-0.67-0.13-1.32-0.18-1.95-0.23l-0.27-0.02l-0.52-0.04L165.04,147.64 M164.69,130.05
					c-1.87,0-3.75,0.17-5.65,0.48c-1.68,0.3-3.34,0.72-4.99,1.26c-1.04,0.36-2.06,0.75-3.06,1.18c-0.67,0.3-1.35,0.61-2,0.95
					c-0.66,0.34-1.29,0.71-1.93,1.08c-0.93,0.57-1.84,1.17-2.74,1.81c-1.39,1.02-2.7,2.14-3.92,3.33c-1.7,1.71-3.21,3.53-4.47,5.49
					c-0.9,1.3-1.7,2.71-2.36,4.23c-0.76,1.4-1.34,2.92-1.84,4.49c-2.74,8.49-2.21,18.1,2.2,26.66c3.95,7.66,10.4,13.3,17.8,16.3
					c1.94,0.79,3.93,1.43,5.98,1.85c2.29,0.51,4.66,0.78,7.05,0.78c0.76,0,1.52-0.03,2.27-0.08c2.31-0.1,4.65-0.47,6.95-1.09
					c1.42-0.38,2.87-0.87,4.27-1.46c0.95-0.36,1.87-0.79,2.76-1.25c0.9-0.46,1.78-0.96,2.62-1.53c1.29-0.8,2.53-1.7,3.67-2.63
					c1.84-1.52,3.5-3.21,4.92-5.03c2.02-2.44,3.64-5.15,4.84-8c0.46-1.07,0.86-2.15,1.21-3.25c0.32-0.91,0.55-1.81,0.73-2.74
					c1.85-7.77,1.02-16.26-2.94-23.92c-4.41-8.56-11.92-14.57-20.43-17.26c-1.57-0.5-3.14-0.92-4.72-1.11
					c-1.62-0.34-3.24-0.52-4.82-0.53C165.63,130.06,165.16,130.05,164.69,130.05L164.69,130.05z M161.27,149.96
					c0.8-0.24,1.65-0.37,2.44-0.43c0.42-0.05,0.82-0.08,1.23-0.08c0.12,0,0.23,0,0.35,0.01c0.02,0.01,0.06,0.01,0.09,0.01
					c0.03,0,0.07,0,0.08-0.01c0.73,0.06,1.41,0.1,2.09,0.23c0.75,0.1,1.45,0.26,2.18,0.49c3.79,1.24,7.12,3.89,9.08,7.69
					c0.78,1.52,1.29,3.09,1.53,4.67c0.07,0.4,0.11,0.82,0.12,1.25c0.1,0.87,0.09,1.7-0.02,2.59c-0.07,1.04-0.27,2.11-0.6,3.15
					c-0.02,0.05-0.02,0.14-0.03,0.19c-0.23,0.73-0.5,1.4-0.86,2.06c-0.3,0.68-0.71,1.33-1.12,1.98c0,0-0.03,0.02-0.05,0.07
					c-0.26,0.35-0.53,0.75-0.87,1.11c-0.17,0.26-0.38,0.46-0.6,0.7c-0.22,0.25-0.48,0.51-0.76,0.74c-0.05,0.07-0.14,0.16-0.21,0.19
					c-0.21,0.19-0.41,0.39-0.64,0.55c-0.36,0.32-0.77,0.62-1.21,0.88c-0.03,0.02-0.03,0.02-0.03,0.02c-0.43,0.27-0.9,0.55-1.35,0.78
					c-0.45,0.23-0.95,0.45-1.42,0.64c0,0,0,0-0.03,0.02c-0.47,0.2-0.95,0.36-1.42,0.47c-0.29,0.11-0.57,0.16-0.81,0.2
					c-0.1,0.05-0.19,0.05-0.28,0.06c-0.35,0.09-0.71,0.15-1.04,0.19c-0.3,0.03-0.55,0.08-0.82,0.08c-0.03,0-0.06,0-0.1,0
					c-0.49,0.08-0.97,0.06-1.41,0.07c-1.63-0.03-3.22-0.31-4.7-0.81c-1.05-0.33-2.01-0.76-2.92-1.34c-0.77-0.39-1.47-0.9-2.12-1.49
					c-0.35-0.26-0.67-0.53-0.95-0.82c-1.14-1.12-2.13-2.44-2.92-3.96c-1.96-3.8-2.18-8.05-1-11.85c0.23-0.73,0.5-1.4,0.86-2.06
					c0.29-0.63,0.65-1.21,1.02-1.84c0.03-0.02,0.09-0.09,0.1-0.14c0.29-0.46,0.62-0.84,0.97-1.25c0.51-0.61,1.11-1.23,1.77-1.74
					c0.02-0.05,0.02-0.05,0.05-0.07c0.14-0.16,0.33-0.3,0.52-0.44c0.24-0.21,0.5-0.39,0.79-0.58l0.03-0.02
					c0.29-0.19,0.62-0.41,0.93-0.57c0.19-0.14,0.43-0.27,0.64-0.37c0.21-0.11,0.45-0.23,0.67-0.3c0.31-0.16,0.67-0.3,1-0.43
					l0.03-0.02c0.33-0.13,0.62-0.23,0.93-0.31c0.22-0.07,0.45-0.14,0.66-0.16c0.02-0.01,0.03-0.01,0.04-0.01
					C161.23,149.95,161.25,149.96,161.27,149.96L161.27,149.96z"/>
			</g>
		</g>
	</g>
	<g class="st3">
		<path class="st13" d="M149.64,167.04c0.06,0.84,0.24,1.7,0.46,2.49l-17.68,9.21l-45.67,23.68c-2.78-5.78-4.88-11.88-6.32-18.21
			l49.9-12.37L149.64,167.04z"/>
	</g>
	<g class="st3">
		<path class="st13" d="M199.25,154.73l-19.22,4.77c-0.04-0.05-0.03-0.09-0.03-0.09c-0.31-0.71-0.63-1.43-1.03-2.07
			c-0.36-0.68-0.8-1.33-1.25-1.9c-0.03-0.04-0.1-0.09-0.14-0.14l17.68-9.21l45.67-23.73c3.55,6.28,6.34,12.97,8.21,20"/>
	</g>
	<g class="st3">
		<path class="st13" d="M149.49,165.27c0,0.36,0,0.67,0.05,1c0.01,0.24,0.02,0.48,0.07,0.68c0,0.03,0,0.03,0.04,0.08l-19.31,4.8
			l-49.9,12.37c-1.05-4.59-1.69-9.27-1.96-14.05l51.28-3.51L149.49,165.27z"/>
	</g>
	<g class="st3">
		<path class="st13" d="M249.15,142.37c1.46,5.15,2.39,10.43,2.82,15.85l-51.28,3.53l-19.74,1.37c0.01-0.08-0.02-0.2-0.05-0.29
			c-0.04-0.36-0.11-0.72-0.19-1.05c-0.08-0.32-0.13-0.61-0.26-0.91c-0.09-0.49-0.28-0.95-0.43-1.36l19.22-4.77L249.15,142.37z"/>
	</g>
</g>
</svg>
