<?xml version="1.0" encoding="utf-8"?>
<!-- Generator: Adobe Illustrator 27.1.1, SVG Export Plug-In . SVG Version: 6.00 Build 0)  -->
<svg version="1.1" id="Layer_1" xmlns="http://www.w3.org/2000/svg" xmlns:xlink="http://www.w3.org/1999/xlink" x="0px" y="0px"
	 viewBox="0 0 198.8 198.78" style="enable-background:new 0 0 198.8 198.78;" xml:space="preserve">
<style type="text/css">
	.st0{fill:#CEE4EA;}
	.st1{opacity:0.4;}
	.st2{fill:#74FADF;}
	.st3{opacity:0.5;}
	.st4{fill:#C3DCF0;}
	.st5{fill:#7BFDE3;}
	.st6{fill:#64FF0E;}
	.st7{fill:#86A9D1;}
	.st8{fill:#FCF340;}
	.st9{fill:#4766A6;}
	.st10{fill:#FFA119;}
	.st11{fill:#B32DCC;}
	.st12{fill:#FF5098;}
	.st13{fill:#FFFFFF;}
</style>
<g>
	<g>
		<g>
			<path class="st0" d="M99.35,196.78c-5.01,0-10.13-0.4-15.2-1.2c-5.36-0.84-10.69-2.16-15.84-3.93
				c-24.12-8.11-43.82-25.02-55.48-47.63C0.92,120.91-1.28,94.53,6.65,69.74c0.77-2.4,1.6-4.67,2.47-6.74
				c1.84-4.66,4.04-9.11,6.52-13.23c3.57-6.13,7.94-11.93,12.97-17.27c3.63-3.89,7.6-7.46,11.81-10.61c2.7-2.08,5.51-3.99,8.36-5.69
				c1.92-1.18,3.93-2.31,5.99-3.37c2.06-1.06,4.15-2.04,6.21-2.92c3.05-1.34,6.24-2.52,9.48-3.51c5.03-1.61,10.24-2.77,15.5-3.47
				C90.41,2.31,94.88,2,99.25,2c2.78,0,5.58,0.13,8.31,0.38c4.81,0.37,9.71,1.16,14.56,2.36c2.22,0.5,4.54,1.14,6.94,1.9
				c24.79,7.93,45.01,25.02,56.92,48.12c11.66,22.61,14.01,48.47,6.62,72.82c-0.13,0.52-0.29,1.02-0.44,1.46
				c-1.45,4.55-3.32,9.17-5.55,13.73c-3.69,7.4-8.21,14.18-13.42,20.16c-3.82,4.53-8.17,8.74-12.93,12.53
				c-3.11,2.5-6.28,4.73-9.43,6.62c-2.01,1.3-4.16,2.53-6.78,3.88c-2.62,1.35-4.93,2.42-7.06,3.26c-3.71,1.57-7.37,2.86-10.9,3.85
				c-5.86,1.68-11.81,2.78-17.7,3.27C105.4,196.64,102.37,196.78,99.35,196.78z M84.45,89.12l-0.3,0.5
				c-0.37,0.62-0.72,1.2-1.02,1.86c-0.38,0.7-0.7,1.47-0.99,2.38c-1.45,4.65-1.04,9.55,1.16,13.82c0.9,1.74,2.04,3.29,3.4,4.62
				c0.32,0.34,0.72,0.68,1.15,1c0.77,0.7,1.6,1.28,2.47,1.72c0.93,0.6,2.06,1.12,3.36,1.53c1.72,0.58,3.57,0.9,5.46,0.94l0.27,0
				c0.41,0,0.88,0,1.37-0.07l0.04,0c0.27,0,0.52-0.03,0.79-0.07l0.24-0.03c0.44-0.05,0.82-0.12,1.17-0.2
				c0.12-0.01,0.27-0.03,0.44-0.09c0.24-0.04,0.56-0.11,0.91-0.23c0.54-0.13,1.1-0.32,1.67-0.55l0.11-0.05
				c0.47-0.2,1.04-0.44,1.56-0.71c0.52-0.27,1.05-0.59,1.55-0.9c0.56-0.34,1.04-0.69,1.46-1.06c0.26-0.19,0.49-0.4,0.7-0.59
				c0.14-0.1,0.25-0.21,0.33-0.3c0.27-0.23,0.55-0.51,0.85-0.84l0.17-0.18c0.18-0.19,0.36-0.38,0.53-0.63
				c0.33-0.35,0.6-0.73,0.84-1.06l0.06-0.08l0.03-0.02l0.15-0.24c0.46-0.73,0.94-1.48,1.3-2.3c0.36-0.67,0.7-1.49,0.99-2.37
				c0.04-0.11,0.05-0.21,0.06-0.28c0.37-1.18,0.6-2.4,0.69-3.64c0.13-1,0.13-2.01,0.02-3.03c0-0.43-0.05-0.95-0.14-1.45
				c-0.29-1.85-0.89-3.69-1.78-5.42c-2.2-4.27-5.95-7.45-10.57-8.96c-0.92-0.29-1.74-0.48-2.58-0.59c-0.64-0.13-1.32-0.18-2.03-0.24
				l-0.59-0.05l-0.04,0.02c-0.12,0-0.23-0.01-0.34-0.01c-0.52,0-1.01,0.05-1.46,0.09c-0.95,0.07-1.86,0.23-2.68,0.45H95l-0.1,0.05
				c-0.26,0.05-0.51,0.12-0.73,0.2c-0.33,0.07-0.69,0.21-1.08,0.36l-0.1,0.04c-0.3,0.11-0.7,0.27-1.07,0.46
				c-0.29,0.1-0.58,0.25-0.8,0.37c-0.24,0.12-0.52,0.27-0.78,0.45c-0.34,0.18-0.68,0.4-1,0.61l-0.09,0.05
				c-0.34,0.22-0.66,0.45-0.98,0.72c-0.12,0.09-0.32,0.23-0.51,0.42l-0.23,0.11l-0.06,0.17c-0.64,0.53-1.27,1.16-1.88,1.88
				c-0.41,0.46-0.77,0.89-1.09,1.39L84.45,89.12z"/>
			<path d="M99.25,3c2.75,0,5.51,0.12,8.25,0.37c4.75,0.36,9.59,1.15,14.42,2.34c2.16,0.49,4.46,1.12,6.84,1.88
				c24.54,7.84,44.55,24.76,56.33,47.63c11.54,22.38,13.86,47.97,6.55,72.07l-0.01,0.04l-0.01,0.04c-0.11,0.45-0.27,0.93-0.41,1.37
				c-1.44,4.5-3.29,9.07-5.49,13.58c-3.66,7.33-8.13,14.04-13.3,19.98c-3.77,4.47-8.07,8.63-12.79,12.39
				c-3.11,2.51-6.16,4.65-9.32,6.54l-0.03,0.02l-0.03,0.02c-1.95,1.26-4.07,2.47-6.67,3.81c-2.6,1.34-4.88,2.39-7.02,3.24
				c-3.64,1.54-7.26,2.82-10.77,3.81c-5.78,1.66-11.67,2.75-17.53,3.23c-2.92,0.29-5.92,0.43-8.91,0.43
				c-4.96,0-10.03-0.4-15.05-1.19c-5.31-0.83-10.58-2.14-15.68-3.89c-23.87-8.02-43.37-24.76-54.9-47.14
				C1.93,120.69-0.24,94.58,7.6,70.04c0.76-2.37,1.58-4.61,2.45-6.7c1.82-4.59,3.98-8.99,6.46-13.09
				c3.53-6.05,7.85-11.79,12.84-17.08c3.58-3.84,7.51-7.37,11.7-10.51c2.66-2.04,5.43-3.93,8.27-5.63c1.88-1.16,3.87-2.28,5.91-3.33
				c2.04-1.05,4.11-2.02,6.17-2.89c3-1.32,6.15-2.48,9.39-3.47c4.96-1.58,10.11-2.74,15.33-3.43C90.5,3.31,94.92,3,99.25,3
				 M99.45,80.27c-0.04,0-0.07,0-0.11,0c-0.55,0-1.07,0.05-1.54,0.1c-0.98,0.08-1.91,0.23-2.75,0.46l-0.33,0.01l-0.16,0.08
				c-0.23,0.05-0.44,0.11-0.63,0.17c-0.43,0.11-0.82,0.25-1.2,0.4l-0.14,0.06l0,0c-0.35,0.14-0.72,0.28-1.07,0.46
				c-0.34,0.12-0.65,0.28-0.88,0.4c-0.23,0.12-0.54,0.28-0.84,0.48c-0.34,0.18-0.67,0.4-0.99,0.6l-0.04,0.02l-0.09,0.06
				c-0.34,0.23-0.68,0.46-1.02,0.75c-0.2,0.15-0.43,0.33-0.66,0.56c-0.07,0.06-0.13,0.12-0.19,0.19c-0.68,0.56-1.34,1.23-1.98,1.99
				c-0.39,0.44-0.72,0.84-1.03,1.29l-0.06,0.03l-0.29,0.49l-0.15,0.25c-0.36,0.6-0.73,1.22-1.04,1.9c-0.42,0.79-0.76,1.6-1.07,2.56
				c-1.53,4.89-1.09,10.07,1.23,14.57c0.94,1.82,2.14,3.46,3.57,4.86c0.36,0.37,0.76,0.72,1.2,1.05c0.86,0.76,1.71,1.36,2.61,1.82
				c1.07,0.67,2.25,1.21,3.56,1.63c1.84,0.62,3.78,0.96,5.78,1l0.03,0l0.03,0l0.23,0c0.4,0,0.9-0.01,1.42-0.07
				c0.35,0,0.64-0.04,0.9-0.08l0.22-0.03c0.45-0.05,0.84-0.12,1.21-0.2c0.15-0.01,0.33-0.04,0.54-0.11
				c0.26-0.05,0.58-0.12,0.94-0.24c0.58-0.14,1.17-0.34,1.77-0.59l0.11-0.05l0,0c0.53-0.23,1.1-0.47,1.63-0.74
				c0.53-0.27,1.06-0.59,1.55-0.9l0.04-0.02l0.07-0.04c0.56-0.34,1.07-0.72,1.52-1.11c0.27-0.2,0.5-0.41,0.71-0.61
				c0.16-0.12,0.29-0.25,0.39-0.36c0.29-0.25,0.58-0.54,0.89-0.88l0.15-0.16c0.17-0.18,0.38-0.41,0.58-0.69
				c0.32-0.34,0.58-0.69,0.8-1l0.06-0.03l0.25-0.4l0.09-0.13l0.01-0.04c0.45-0.71,0.9-1.44,1.27-2.25c0.41-0.77,0.76-1.63,1.05-2.54
				c0.05-0.14,0.07-0.27,0.09-0.37c0.37-1.21,0.61-2.46,0.7-3.73c0.13-1.08,0.14-2.12,0.03-3.17c-0.01-0.54-0.06-1.08-0.16-1.59
				c-0.31-1.98-0.94-3.9-1.88-5.73c-2.32-4.5-6.28-7.86-11.17-9.46c-0.95-0.3-1.8-0.5-2.69-0.62c-0.74-0.14-1.46-0.2-2.15-0.25
				l-0.3-0.02l-0.57-0.05L99.45,80.27 M99.25,1c-4.46,0-8.94,0.32-13.41,0.93c-5.27,0.7-10.5,1.85-15.67,3.5
				c-3.2,0.98-6.44,2.17-9.58,3.54c-2.09,0.89-4.22,1.89-6.28,2.95c-2.05,1.06-4.11,2.21-6.04,3.4c-2.94,1.76-5.79,3.71-8.44,5.75
				c-4.34,3.25-8.32,6.84-11.94,10.73c-5.04,5.34-9.45,11.18-13.1,17.44c-2.57,4.26-4.77,8.76-6.59,13.36
				c-0.93,2.21-1.76,4.52-2.5,6.82c-7.66,23.97-6.2,50.9,6.24,75.04c12.19,23.65,32.7,40.28,56.04,48.12
				c5.21,1.79,10.56,3.12,16.01,3.97c5.05,0.79,10.19,1.21,15.36,1.21c3.03,0,6.07-0.14,9.1-0.44c6-0.49,11.98-1.6,17.89-3.3
				c3.7-1.04,7.36-2.35,10.99-3.89c2.4-0.95,4.8-2.09,7.15-3.3c2.36-1.22,4.64-2.49,6.84-3.91c3.38-2.03,6.55-4.29,9.54-6.7
				c4.81-3.83,9.18-8.05,13.07-12.66c5.42-6.21,9.94-13.11,13.56-20.37c2.2-4.5,4.1-9.14,5.61-13.86c0.15-0.46,0.31-0.98,0.44-1.48
				c7.15-23.57,5.51-49.91-6.68-73.56c-12.45-24.15-33.53-40.95-57.5-48.62c-2.31-0.74-4.67-1.4-7.01-1.92
				c-4.8-1.18-9.74-2-14.71-2.38C104.86,1.13,102.06,1,99.25,1L99.25,1z M95.3,82.83c0.88-0.26,1.81-0.41,2.69-0.47
				c0.46-0.05,0.9-0.09,1.35-0.09c0.13,0,0.26,0,0.39,0.01c0.03,0.01,0.06,0.01,0.1,0.01c0.04,0,0.07-0.01,0.09-0.02
				c0.8,0.07,1.55,0.11,2.3,0.26c0.82,0.1,1.59,0.29,2.4,0.54c4.17,1.36,7.84,4.29,10,8.47c0.86,1.67,1.42,3.41,1.69,5.15
				c0.08,0.44,0.13,0.9,0.13,1.38c0.11,0.96,0.1,1.87-0.02,2.85c-0.08,1.15-0.3,2.32-0.67,3.47c-0.02,0.06-0.02,0.15-0.04,0.21
				c-0.24,0.75-0.56,1.54-0.95,2.27c-0.34,0.75-0.79,1.46-1.24,2.18c0,0-0.04,0.02-0.06,0.08c-0.28,0.39-0.58,0.83-0.96,1.22
				c-0.19,0.29-0.41,0.5-0.66,0.77c-0.25,0.27-0.53,0.56-0.83,0.81c-0.06,0.08-0.15,0.17-0.23,0.21c-0.23,0.21-0.45,0.43-0.7,0.6
				c-0.4,0.35-0.85,0.68-1.33,0.97c-0.04,0.02-0.04,0.02-0.04,0.02c-0.47,0.29-0.99,0.61-1.48,0.86c-0.49,0.25-1.05,0.49-1.56,0.71
				c0,0,0,0-0.04,0.02c-0.51,0.22-1.05,0.4-1.56,0.52c-0.32,0.12-0.63,0.18-0.9,0.22c-0.11,0.06-0.21,0.06-0.31,0.06
				c-0.38,0.1-0.78,0.16-1.15,0.21c-0.32,0.04-0.6,0.09-0.91,0.09c-0.04,0-0.07,0-0.11,0c-0.53,0.08-1.07,0.07-1.55,0.08
				c-1.8-0.04-3.54-0.34-5.18-0.89c-1.15-0.37-2.21-0.83-3.21-1.47c-0.85-0.43-1.62-0.99-2.34-1.64c-0.39-0.28-0.73-0.58-1.04-0.91
				c-1.26-1.23-2.35-2.69-3.21-4.36c-2.16-4.18-2.41-8.87-1.1-13.06c0.26-0.81,0.56-1.54,0.95-2.27c0.32-0.69,0.71-1.33,1.12-2.02
				c0.04-0.02,0.09-0.1,0.11-0.15c0.32-0.5,0.68-0.93,1.07-1.37c0.57-0.68,1.23-1.35,1.95-1.92c0.02-0.06,0.02-0.06,0.06-0.08
				c0.15-0.17,0.36-0.33,0.57-0.49c0.26-0.23,0.55-0.43,0.87-0.64l0.04-0.02c0.32-0.21,0.68-0.45,1.03-0.62
				c0.21-0.16,0.47-0.29,0.7-0.41c0.23-0.12,0.49-0.25,0.74-0.33c0.34-0.18,0.74-0.33,1.1-0.47l0.04-0.02
				c0.36-0.14,0.69-0.26,1.03-0.34c0.25-0.08,0.5-0.16,0.72-0.18c0.02-0.01,0.03-0.01,0.04-0.01C95.25,82.82,95.27,82.82,95.3,82.83
				L95.3,82.83z"/>
		</g>
		<g class="st1">
			<path class="st2" d="M121.37,7.93l-15.45,53.59l-6,20.76c-0.04,0.02-0.14,0.02-0.19,0c-0.6-0.03-1.15,0.01-1.74,0.08l2.62-21.43
				l6.69-55.28C112.05,5.99,116.78,6.78,121.37,7.93z"/>
		</g>
		<g class="st3">
			<path class="st4" d="M86.35,88.36c-0.4,0.44-0.76,0.87-1.07,1.37c-0.02,0.06-0.08,0.13-0.12,0.15l-20.39-7.15L12.16,64.22
				c1.72-4.4,3.83-8.71,6.31-12.78l48.91,26.63L86.35,88.36z"/>
		</g>
		<g class="st1">
			<path class="st5" d="M93.99,115.6l-2.62,21.43l-6.72,55.3c-5.18-0.79-10.32-2.09-15.3-3.81l15.43-53.53l6-20.86
				C91.78,114.77,92.84,115.24,93.99,115.6z"/>
		</g>
		<g class="st3">
			<path class="st4" d="M189.44,126.62c-0.09,0.48-0.26,1-0.43,1.42c-1.41,4.53-3.23,8.94-5.34,13.25l-48.95-26.61l-18.97-10.29
				c0.36-1.15,0.58-2.32,0.66-3.47l20.45,7.17L189.44,126.62z"/>
		</g>
		<g class="st1">
			<path class="st6" d="M107.3,5.65l-6.69,55.28l-2.62,21.43c-0.88,0.07-1.82,0.21-2.7,0.47l-2.46-21.4l-6.4-55.27
				C93.4,5.21,100.38,5.03,107.3,5.65z"/>
		</g>
		<g class="st1">
			<path class="st7" d="M88.3,86.44c-0.72,0.56-1.38,1.24-1.95,1.92L67.38,78.07L18.47,51.44c3.5-5.99,7.7-11.57,12.51-16.7
				L72.3,72.02L88.3,86.44z"/>
		</g>
		<g class="st1">
			<path class="st6" d="M108.04,193.08c-7.84,0.76-15.69,0.48-23.39-0.75l6.72-55.3l2.62-21.43c1.64,0.56,3.38,0.86,5.18,0.9
				l2.46,21.3L108.04,193.08z"/>
		</g>
		<g class="st1">
			<path class="st7" d="M183.67,141.29c-3.48,6.99-7.8,13.54-12.97,19.48l-41.31-37.28l-15.92-14.36c0.02-0.06,0.06-0.08,0.06-0.08
				c0.45-0.71,0.9-1.43,1.23-2.18c0.39-0.73,0.71-1.52,0.95-2.27c0.02-0.05,0.02-0.15,0.04-0.21l18.97,10.29L183.67,141.29z"/>
		</g>
		<g class="st1">
			<path class="st8" d="M95.29,82.83c-0.05-0.02-0.05-0.02-0.09,0c-0.23,0.02-0.48,0.1-0.73,0.18c-0.34,0.08-0.66,0.2-1.03,0.34
				l-6.1-20.53L71.45,9.5c4.94-1.54,9.93-2.67,14.98-3.34l6.4,55.27L95.29,82.83z"/>
		</g>
		<g class="st1">
			<path class="st9" d="M89.79,85.23c-0.32,0.22-0.6,0.41-0.87,0.65c-0.21,0.15-0.42,0.31-0.57,0.48c-0.03,0.02-0.03,0.02-0.05,0.08
				l-16-14.42L30.98,34.74c3.48-3.72,7.3-7.13,11.42-10.27l34.21,43.88L89.79,85.23z"/>
		</g>
		<g class="st1">
			<path class="st8" d="M125.18,189.92c-5.66,1.62-11.37,2.68-17.14,3.16l-6.41-55.28l-2.46-21.3c0.48-0.01,1.02,0,1.55-0.08
				c0.35,0.02,0.65-0.05,1.01-0.09c0.37-0.04,0.77-0.1,1.15-0.2c0.09,0,0.19-0.01,0.3-0.06l6.11,20.53L125.18,189.92z"/>
		</g>
		<g class="st1">
			<path class="st9" d="M170.7,160.77c-3.73,4.43-7.91,8.46-12.51,12.13l-34.22-43.87l-13.18-16.88c0.08-0.04,0.17-0.14,0.23-0.22
				c0.3-0.25,0.58-0.54,0.83-0.81c0.24-0.27,0.47-0.49,0.66-0.78c0.38-0.38,0.68-0.83,0.96-1.21l15.92,14.36L170.7,160.77z"/>
		</g>
		<g class="st1">
			<path class="st10" d="M93.44,83.35l-0.03,0.02c-0.37,0.14-0.77,0.3-1.11,0.47l-8.33-19.72l-21.68-51.2
				c2.99-1.3,6.09-2.47,9.16-3.42l15.89,53.32L93.44,83.35z"/>
		</g>
		<g class="st1">
			<path class="st11" d="M90.86,84.59c-0.35,0.18-0.71,0.41-1.03,0.62l-0.04,0.02L76.61,68.35L42.4,24.47
				c2.56-1.94,5.31-3.79,8.1-5.47l29.13,47.36L90.86,84.59z"/>
		</g>
		<g class="st1">
			<path class="st10" d="M135.68,186.19c-3.47,1.5-6.97,2.73-10.5,3.73l-15.89-53.32l-6.11-20.53c0.27-0.05,0.58-0.11,0.9-0.23
				c0.52-0.12,1.05-0.3,1.56-0.51c0.04-0.02,0.04-0.02,0.04-0.02l8.32,19.68L135.68,186.19z"/>
		</g>
		<g class="st1">
			<path class="st11" d="M158.19,172.9c-2.86,2.3-5.88,4.48-9.13,6.39l-29.13-47.36l-11.21-18.19c0,0,0,0,0.04-0.02
				c0.48-0.29,0.93-0.62,1.33-0.97c0.25-0.18,0.47-0.39,0.7-0.6l13.18,16.88L158.19,172.9z"/>
		</g>
		<g class="st1">
			<path class="st12" d="M92.3,83.84c-0.25,0.08-0.51,0.22-0.74,0.34c-0.23,0.12-0.49,0.25-0.7,0.41L79.63,66.36L50.5,19
				c1.86-1.15,3.8-2.25,5.78-3.27c1.97-1.02,3.99-1.96,6.01-2.81l21.68,51.2L92.3,83.84z"/>
		</g>
		<g class="st1">
			<path class="st12" d="M149.06,179.29c-2.09,1.37-4.29,2.6-6.53,3.76c-2.25,1.15-4.57,2.25-6.85,3.14L114,134.99l-8.32-19.68
				c0.52-0.22,1.07-0.46,1.56-0.71c0.5-0.26,1.01-0.57,1.48-0.86l11.21,18.19L149.06,179.29z"/>
		</g>
		<g>
			<g>
				<path class="st13" d="M99.13,136.89c-2.52,0-5.06-0.28-7.54-0.84c-2.13-0.44-4.23-1.09-6.43-1.99
					c-8.22-3.33-15-9.54-19.09-17.49c-4.6-8.92-5.44-19.08-2.37-28.59c0.63-1.97,1.25-3.48,1.95-4.77c0.72-1.66,1.57-3.17,2.54-4.57
					c1.32-2.05,2.93-4.03,4.81-5.92c1.29-1.27,2.71-2.47,4.2-3.57c0.95-0.68,1.95-1.33,2.95-1.94c0.69-0.4,1.37-0.8,2.07-1.16
					c0.71-0.37,1.43-0.69,2.16-1.02c1.06-0.45,2.17-0.88,3.29-1.27c1.74-0.57,3.54-1.03,5.34-1.35c2.07-0.34,4.11-0.52,6.05-0.52
					c0.5,0,1.01,0.01,1.51,0.04c1.75,0.02,3.47,0.21,5.15,0.56c1.54,0.19,3.14,0.56,5.1,1.19c9.54,3.02,17.32,9.59,21.92,18.52
					c4.08,7.92,5.2,17.03,3.15,25.66c-0.21,1.08-0.46,2.02-0.78,2.91c-0.38,1.19-0.82,2.37-1.31,3.51c-1.31,3.12-3.06,6-5.18,8.57
					c-1.51,1.94-3.29,3.75-5.29,5.41c-1.28,1.05-2.6,2-3.93,2.82c-0.83,0.56-1.75,1.09-2.82,1.64c-1.07,0.55-2.03,0.99-2.94,1.33
					c-1.47,0.62-3.01,1.15-4.61,1.58c-2.5,0.67-5.01,1.07-7.44,1.17C100.76,136.86,99.94,136.89,99.13,136.89L99.13,136.89z
					 M84.45,89.12l-0.3,0.5c-0.37,0.62-0.72,1.2-1.02,1.86c-0.38,0.7-0.7,1.47-0.99,2.38c-1.45,4.65-1.04,9.55,1.16,13.82
					c0.9,1.74,2.04,3.29,3.4,4.62c0.32,0.34,0.72,0.68,1.15,1c0.77,0.7,1.6,1.28,2.47,1.72c0.93,0.6,2.06,1.12,3.36,1.53
					c1.72,0.58,3.57,0.9,5.46,0.94l0.26,0c0.42,0,0.88,0,1.37-0.07l0.04,0c0.27,0,0.52-0.03,0.79-0.07l0.24-0.03
					c0.44-0.05,0.82-0.12,1.17-0.2c0.12-0.01,0.27-0.03,0.44-0.09c0.24-0.04,0.56-0.11,0.91-0.23c0.54-0.13,1.1-0.32,1.67-0.55
					l0.11-0.05c0.47-0.2,1.04-0.44,1.56-0.71c0.52-0.27,1.05-0.59,1.55-0.9c0.56-0.34,1.04-0.69,1.46-1.06
					c0.26-0.19,0.49-0.4,0.7-0.59c0.14-0.1,0.25-0.21,0.33-0.3c0.27-0.23,0.55-0.51,0.85-0.84l0.17-0.18
					c0.18-0.19,0.36-0.38,0.53-0.63c0.33-0.35,0.6-0.73,0.84-1.06l0.06-0.08l0.03-0.02l0.15-0.24c0.46-0.73,0.94-1.48,1.3-2.3
					c0.37-0.69,0.7-1.46,0.99-2.37c0.04-0.11,0.05-0.21,0.06-0.28c0.37-1.18,0.6-2.4,0.69-3.64c0.13-1,0.13-2.01,0.02-3.03
					c0-0.43-0.05-0.95-0.14-1.45c-0.29-1.85-0.89-3.69-1.78-5.42c-2.2-4.27-5.95-7.45-10.57-8.96c-0.92-0.29-1.74-0.48-2.58-0.59
					c-0.64-0.13-1.32-0.18-2.03-0.24l-0.6-0.05l-0.04,0.02c-0.12,0-0.23-0.01-0.34-0.01c-0.52,0-1.01,0.05-1.46,0.09
					c-0.95,0.07-1.86,0.23-2.68,0.45H95l-0.1,0.05c-0.26,0.05-0.51,0.12-0.73,0.2c-0.33,0.07-0.69,0.21-1.08,0.36l-0.1,0.04
					c-0.3,0.11-0.7,0.27-1.07,0.46c-0.29,0.1-0.58,0.25-0.81,0.37c-0.24,0.12-0.52,0.27-0.78,0.45c-0.34,0.18-0.68,0.4-1,0.61
					l-0.09,0.05c-0.34,0.22-0.66,0.45-0.98,0.72c-0.12,0.09-0.32,0.24-0.51,0.42l-0.23,0.11l-0.06,0.17
					c-0.64,0.53-1.27,1.16-1.88,1.88c-0.41,0.46-0.77,0.89-1.09,1.39L84.45,89.12z"/>
			</g>
			<g>
				<path d="M99.05,62.9c0.49,0,0.98,0.01,1.46,0.03l0.04,0l0.04,0c1.64,0.02,3.3,0.2,4.91,0.54l0.09,0.02l0.09,0.01
					c1.39,0.17,2.92,0.53,4.83,1.14c9.28,2.93,16.85,9.33,21.33,18.02c3.97,7.71,5.06,16.58,3.07,24.97l-0.01,0.04l-0.01,0.04
					c-0.19,1-0.43,1.89-0.73,2.73l-0.01,0.03l-0.01,0.03c-0.36,1.14-0.79,2.28-1.27,3.41c-1.28,3.03-2.97,5.83-5.02,8.31l-0.02,0.02
					l-0.02,0.02c-1.45,1.86-3.17,3.62-5.12,5.22c-1.24,1.02-2.53,1.95-3.82,2.74l-0.03,0.02l-0.03,0.02
					c-0.77,0.52-1.65,1.03-2.69,1.56c-1.04,0.54-1.97,0.96-2.83,1.28l-0.04,0.01l-0.04,0.01c-1.4,0.59-2.89,1.1-4.45,1.52
					c-2.44,0.65-4.87,1.04-7.22,1.14l-0.03,0l-0.03,0c-0.78,0.06-1.57,0.09-2.36,0.09c-2.44,0-4.91-0.27-7.35-0.82
					c-2.05-0.43-4.09-1.06-6.24-1.94c-7.99-3.24-14.59-9.28-18.58-17.02c-4.48-8.68-5.29-18.57-2.3-27.83
					c0.61-1.91,1.21-3.37,1.87-4.59l0.04-0.08l0.04-0.08c0.66-1.51,1.47-2.96,2.41-4.31l0.02-0.03l0.02-0.03
					c1.26-1.96,2.83-3.88,4.64-5.7c1.27-1.24,2.65-2.42,4.07-3.47c0.94-0.67,1.92-1.31,2.88-1.9c0.7-0.41,1.35-0.79,2.02-1.14
					c0.67-0.35,1.36-0.66,2.08-0.98c1.05-0.45,2.14-0.87,3.21-1.24c1.71-0.56,3.47-1.01,5.2-1.31C95.19,63.07,97.17,62.9,99.05,62.9
					 M99.45,80.27c-0.04,0-0.07,0-0.11,0c-0.56,0-1.07,0.05-1.54,0.1c-0.98,0.08-1.91,0.23-2.75,0.46l-0.34,0.01l-0.16,0.08
					c-0.23,0.05-0.44,0.11-0.63,0.17c-0.43,0.11-0.82,0.25-1.2,0.4l-0.14,0.06l0,0c-0.35,0.14-0.72,0.28-1.07,0.46
					c-0.34,0.12-0.64,0.28-0.88,0.4c-0.23,0.12-0.54,0.28-0.84,0.48c-0.34,0.18-0.67,0.4-0.99,0.6l-0.04,0.02l-0.09,0.06
					c-0.34,0.23-0.68,0.46-1.02,0.75c-0.2,0.15-0.43,0.33-0.66,0.56c-0.07,0.06-0.13,0.12-0.19,0.19c-0.68,0.56-1.34,1.23-1.98,1.99
					c-0.39,0.44-0.72,0.84-1.03,1.28l-0.06,0.03l-0.29,0.49l-0.15,0.26c-0.36,0.6-0.73,1.22-1.04,1.9c-0.42,0.79-0.76,1.6-1.07,2.56
					c-1.53,4.89-1.09,10.07,1.23,14.57c0.94,1.82,2.14,3.46,3.57,4.86c0.36,0.37,0.76,0.72,1.2,1.05c0.86,0.76,1.71,1.36,2.61,1.82
					c1.07,0.67,2.25,1.21,3.56,1.63c1.84,0.62,3.78,0.96,5.78,1l0.03,0l0.03,0l0.23,0c0.4,0,0.9-0.01,1.42-0.07
					c0.35,0,0.64-0.04,0.9-0.08l0.22-0.03c0.45-0.05,0.84-0.12,1.21-0.2c0.15-0.01,0.33-0.04,0.54-0.11
					c0.26-0.05,0.58-0.12,0.94-0.24c0.58-0.14,1.17-0.34,1.77-0.59l0.11-0.05l0,0c0.53-0.23,1.1-0.47,1.63-0.74
					c0.53-0.27,1.06-0.59,1.55-0.9l0.04-0.02l0.07-0.04c0.56-0.34,1.07-0.72,1.52-1.11c0.27-0.2,0.5-0.41,0.71-0.61
					c0.16-0.12,0.29-0.25,0.39-0.36c0.29-0.25,0.58-0.54,0.89-0.88l0.15-0.16c0.17-0.18,0.38-0.41,0.58-0.69
					c0.32-0.34,0.58-0.69,0.8-1l0.06-0.03l0.25-0.4l0.09-0.13l0.01-0.04c0.45-0.71,0.9-1.44,1.27-2.25c0.42-0.79,0.76-1.6,1.06-2.54
					c0.05-0.14,0.07-0.27,0.09-0.37c0.37-1.21,0.61-2.46,0.7-3.73c0.13-1.08,0.14-2.12,0.03-3.17c-0.01-0.55-0.06-1.08-0.16-1.59
					c-0.31-1.98-0.94-3.9-1.88-5.73c-2.32-4.5-6.28-7.86-11.17-9.46c-0.95-0.3-1.8-0.5-2.69-0.62c-0.74-0.14-1.46-0.2-2.15-0.25
					l-0.3-0.02l-0.57-0.05L99.45,80.27 M99.05,60.9c-2.06,0-4.13,0.19-6.22,0.53c-1.85,0.33-3.68,0.79-5.49,1.39
					c-1.14,0.4-2.27,0.83-3.37,1.3c-0.74,0.33-1.48,0.67-2.21,1.04c-0.72,0.37-1.43,0.78-2.13,1.19c-1.03,0.62-2.03,1.29-3.02,1.99
					c-1.54,1.13-2.98,2.35-4.32,3.67c-1.87,1.88-3.53,3.89-4.92,6.05c-1,1.43-1.88,2.99-2.6,4.66c-0.84,1.54-1.47,3.21-2.02,4.94
					c-3.02,9.36-2.43,19.93,2.43,29.36c4.35,8.44,11.45,14.65,19.6,17.95c2.13,0.87,4.32,1.57,6.59,2.04
					c2.52,0.56,5.13,0.86,7.76,0.86c0.83,0,1.67-0.03,2.51-0.09c2.54-0.11,5.12-0.52,7.66-1.2c1.56-0.42,3.16-0.96,4.71-1.61
					c1.05-0.4,2.06-0.87,3.04-1.38c0.99-0.51,1.96-1.06,2.89-1.68c1.42-0.88,2.79-1.87,4.04-2.9c2.03-1.67,3.86-3.53,5.42-5.54
					c2.22-2.69,4.01-5.67,5.33-8.81c0.5-1.17,0.95-2.36,1.33-3.58c0.35-1,0.61-2,0.8-3.01c2.04-8.56,1.12-17.9-3.23-26.35
					c-4.86-9.43-13.13-16.04-22.51-19.01c-1.73-0.55-3.46-1.01-5.2-1.22c-1.78-0.38-3.57-0.57-5.31-0.58
					C100.09,60.91,99.57,60.9,99.05,60.9L99.05,60.9z M95.3,82.83c0.88-0.26,1.81-0.41,2.69-0.47c0.46-0.05,0.9-0.09,1.35-0.09
					c0.13,0,0.26,0,0.39,0.01c0.03,0.01,0.06,0.01,0.1,0.01c0.04,0,0.07-0.01,0.09-0.02c0.8,0.07,1.55,0.11,2.3,0.26
					c0.82,0.1,1.59,0.29,2.4,0.54c4.17,1.36,7.84,4.29,10,8.47c0.86,1.67,1.42,3.41,1.69,5.15c0.08,0.44,0.13,0.9,0.13,1.38
					c0.11,0.96,0.1,1.87-0.02,2.85c-0.08,1.15-0.3,2.32-0.67,3.47c-0.02,0.06-0.02,0.15-0.04,0.21c-0.26,0.81-0.56,1.54-0.95,2.27
					c-0.34,0.75-0.79,1.46-1.24,2.18c0,0-0.04,0.02-0.06,0.08c-0.28,0.39-0.58,0.83-0.96,1.22c-0.19,0.29-0.41,0.5-0.66,0.77
					c-0.25,0.27-0.53,0.56-0.83,0.81c-0.06,0.08-0.15,0.17-0.23,0.21c-0.23,0.21-0.45,0.43-0.7,0.6c-0.4,0.35-0.85,0.68-1.33,0.97
					c-0.04,0.02-0.04,0.02-0.04,0.02c-0.47,0.29-0.99,0.61-1.48,0.86c-0.49,0.25-1.05,0.49-1.56,0.71c0,0,0,0-0.04,0.02
					c-0.51,0.22-1.05,0.4-1.56,0.52c-0.32,0.12-0.63,0.18-0.9,0.22c-0.11,0.06-0.21,0.06-0.31,0.06c-0.38,0.1-0.78,0.16-1.15,0.21
					c-0.32,0.04-0.6,0.09-0.91,0.09c-0.04,0-0.07,0-0.11,0c-0.53,0.08-1.07,0.07-1.55,0.08c-1.8-0.04-3.54-0.34-5.18-0.89
					c-1.15-0.37-2.21-0.83-3.21-1.47c-0.85-0.43-1.62-0.99-2.34-1.64c-0.39-0.28-0.73-0.58-1.04-0.91
					c-1.26-1.23-2.35-2.69-3.21-4.36c-2.16-4.18-2.41-8.87-1.1-13.06c0.26-0.81,0.56-1.54,0.95-2.27c0.32-0.69,0.71-1.33,1.12-2.02
					c0.04-0.02,0.09-0.1,0.11-0.15c0.32-0.5,0.68-0.93,1.07-1.37c0.57-0.68,1.23-1.35,1.95-1.92c0.02-0.06,0.02-0.06,0.06-0.08
					c0.15-0.17,0.36-0.33,0.57-0.49c0.26-0.23,0.55-0.43,0.87-0.64l0.04-0.02c0.32-0.21,0.68-0.45,1.03-0.62
					c0.21-0.16,0.47-0.29,0.7-0.41c0.23-0.12,0.49-0.25,0.74-0.33c0.34-0.18,0.74-0.33,1.1-0.47l0.04-0.02
					c0.36-0.14,0.69-0.26,1.03-0.34c0.25-0.08,0.5-0.16,0.72-0.18c0.02-0.01,0.03-0.01,0.04-0.01
					C95.25,82.82,95.27,82.82,95.3,82.83L95.3,82.83z"/>
			</g>
		</g>
	</g>
	<g class="st3">
		<path class="st13" d="M82.49,101.64c0.06,0.93,0.26,1.87,0.51,2.74l-19.48,10.14l-50.3,26.08c-3.06-6.36-5.37-13.08-6.96-20.06
			l54.96-13.62L82.49,101.64z"/>
	</g>
	<g class="st3">
		<path class="st13" d="M137.12,88.08l-21.17,5.25c-0.04-0.05-0.03-0.1-0.03-0.1c-0.34-0.78-0.69-1.57-1.14-2.28
			c-0.39-0.74-0.88-1.46-1.37-2.09c-0.03-0.05-0.12-0.1-0.15-0.15l19.48-10.14l50.3-26.13c3.91,6.91,6.98,14.29,9.04,22.03"/>
	</g>
	<g class="st3">
		<path class="st13" d="M82.32,99.69c0,0.4,0,0.74,0.05,1.1c0.01,0.26,0.02,0.53,0.08,0.75c0,0.04,0,0.04,0.04,0.09l-21.27,5.28
			L6.26,120.54c-1.16-5.05-1.86-10.21-2.16-15.48l56.48-3.87L82.32,99.69z"/>
	</g>
	<g class="st3">
		<path class="st13" d="M192.07,74.46c1.61,5.67,2.63,11.49,3.11,17.45l-56.47,3.88l-21.74,1.51c0.01-0.09-0.02-0.22-0.05-0.32
			c-0.04-0.4-0.13-0.8-0.21-1.16c-0.09-0.36-0.15-0.68-0.28-1c-0.1-0.54-0.31-1.05-0.47-1.5l21.17-5.25L192.07,74.46z"/>
	</g>
</g>
</svg>
