<?xml version="1.0" encoding="utf-8"?>
<!-- Generator: Adobe Illustrator 27.1.1, SVG Export Plug-In . SVG Version: 6.00 Build 0)  -->
<svg version="1.1" id="Layer_1" xmlns="http://www.w3.org/2000/svg" xmlns:xlink="http://www.w3.org/1999/xlink" x="0px" y="0px"
	 viewBox="0 0 330 330" style="enable-background:new 0 0 330 330;" xml:space="preserve">
<style type="text/css">
	.st0{fill:#F4EFF4;stroke:#000000;stroke-width:2;stroke-miterlimit:10;}
	.st1{fill:none;stroke:#000000;stroke-width:2;stroke-miterlimit:10;}
</style>
<g>
	<rect x="281.23" y="45.54" class="st0" width="4.03" height="268.34"/>
	<polygon class="st0" points="19,303.51 197.4,303.51 217.46,283.6 276.39,283.6 276.39,55.91 19,55.91 	"/>
	<circle class="st0" cx="164.18" cy="164.71" r="99.71"/>
	<path class="st0" d="M165.89,116.08c-24.8-0.9-46.58,17.42-49.92,42.01c-2.36,17.43,4.72,33.7,17.09,44.01
		c-1.49,1.14-3.32,1.77-5.22,1.77H32.77l43.04,43.16c0.61,0.61,1.44,0.96,2.31,0.96l48.78-0.01c14.6,0,28.6-5.8,38.92-16.12
		l31.76-31.76c0.66-0.62,1.29-1.26,1.92-1.92l0.51-0.51c0.79-0.79,1.48-1.64,2.13-2.51c5.95-7.4,9.81-16.61,10.58-26.8
		C214.78,140.93,193.66,117.09,165.89,116.08z"/>
	<path class="st0" d="M179.85,149.83L179.85,149.83c-8.61-8.61-22.58-8.61-31.2,0l-34.87,34.87c-1.61,1.61-3.81,2.52-6.09,2.52
		H12.62v44.12l94.13-0.01c14.6,0,28.6-5.8,38.92-16.12l34.18-34.18C188.46,172.41,188.46,158.44,179.85,149.83z"/>
	<circle class="st0" cx="164.18" cy="164.71" r="9.4"/>
	<circle class="st0" cx="265.29" cy="66.41" r="3.48"/>
	<circle class="st0" cx="265.29" cy="273.2" r="3.48"/>
	<polyline class="st1" points="221.04,287.76 263.72,287.76 263.72,300.01 269.88,306.18 277.84,306.18 	"/>
</g>
</svg>
