<?xml version="1.0" encoding="utf-8"?>
<!-- Generator: Adobe Illustrator 27.1.1, SVG Export Plug-In . SVG Version: 6.00 Build 0)  -->
<svg version="1.1" id="Layer_1" xmlns="http://www.w3.org/2000/svg" xmlns:xlink="http://www.w3.org/1999/xlink" x="0px" y="0px"
	 viewBox="0 0 330 330" style="enable-background:new 0 0 330 330;" xml:space="preserve">
<style type="text/css">
	.st0{fill:#00FFD4;stroke:#000000;stroke-width:2.2;stroke-miterlimit:10;}
	.st1{fill:none;stroke:#000000;stroke-width:2.2;stroke-miterlimit:10;}
</style>
<g>
	<g>
		<line class="st0" x1="217.31" y1="76.42" x2="159.33" y2="76.42"/>
		<polyline class="st1" points="165.2,90.52 151.1,76.42 165.2,62.32 		"/>
	</g>
	<g>
		<line class="st0" x1="217.31" y1="260.5" x2="159.33" y2="260.5"/>
		<polyline class="st1" points="165.2,274.61 151.1,260.5 165.2,246.4 		"/>
	</g>
	<g>
		<g>
			<line class="st0" x1="141.61" y1="169.76" x2="83.63" y2="169.76"/>
			<polyline class="st1" points="89.5,183.86 75.4,169.76 89.5,155.65 			"/>
		</g>
		<g>
			<path d="M150.16,176.37v-2.03h2.03v-10.13h-2.03v-2.03h6.08v2.03h-2.03v10.13h2.03v2.03H150.16z"/>
			<path d="M160.57,176.37v-14.18h2.03v4.05h2.03v2.03h-2.03v8.11H160.57z M164.62,170.29v-2.03h2.03v2.03H164.62z M168.68,176.37
				v-4.05h-2.03v-2.03h2.03v-8.1h2.03v14.18H168.68z"/>
			<path d="M175.03,168.26v-4.05h2.03v4.05H175.03z M175.03,174.34v-2.03h2.03v2.03H175.03z M177.06,164.21v-2.03h6.08v2.03H177.06z
				 M177.06,170.29v-2.03h6.08v2.03H177.06z M177.06,176.37v-2.03h6.08v2.03H177.06z M183.14,166.24v-2.03h2.03v2.03H183.14z
				 M183.14,174.34v-4.05h2.03v4.05H183.14z"/>
			<path d="M189.49,176.37v-14.18h10.13v2.03h-8.11v4.05h6.08v2.03h-6.08v4.05h8.11v2.03H189.49z"/>
			<path d="M203.95,176.37v-14.18h8.11v2.03h-6.08v4.05h6.08v2.03h-6.08v6.08H203.95z M212.06,168.26v-4.05h2.03v4.05H212.06z
				 M212.06,176.37v-6.08h2.03v6.08H212.06z"/>
			<path d="M222.46,176.37v-12.16h-4.05v-2.03h10.13v2.03h-4.05v12.16H222.46z"/>
			<path d="M239.22,176.37v-14.18h8.11v2.03h-6.08v10.13h6.08v2.03H239.22z M247.33,174.34v-10.13h2.03v10.13H247.33z"/>
			<path d="M253.68,176.37v-2.03h2.03v-10.13h-2.03v-2.03h6.08v2.03h-2.03v10.13h2.03v2.03H253.68z"/>
			<path d="M264.09,168.26v-4.05h2.03v4.05H264.09z M264.09,174.34v-2.03h2.03v2.03H264.09z M266.12,164.21v-2.03h6.08v2.03H266.12z
				 M266.12,170.29v-2.03h6.08v2.03H266.12z M266.12,176.37v-2.03h6.08v2.03H266.12z M272.2,166.24v-2.03h2.03v2.03H272.2z
				 M272.2,174.34v-4.05h2.03v4.05H272.2z"/>
			<path d="M278.55,174.34v-10.13h2.03v10.13H278.55z M280.58,164.21v-2.03h6.08v2.03H280.58z M280.58,176.37v-2.03h6.08v2.03
				H280.58z M286.66,166.24v-2.03h2.03v2.03H286.66z M286.66,174.34v-2.03h2.03v2.03H286.66z"/>
		</g>
	</g>
</g>
</svg>
