<?xml version="1.0" encoding="utf-8"?>
<!-- Generator: Adobe Illustrator 25.2.1, SVG Export Plug-In . SVG Version: 6.00 Build 0)  -->
<svg version="1.1" id="Layer_1" xmlns="http://www.w3.org/2000/svg" xmlns:xlink="http://www.w3.org/1999/xlink" x="0px" y="0px"
	 viewBox="0 0 282 37.5" style="enable-background:new 0 0 282 37.5;" xml:space="preserve">
<style type="text/css">
	.st0{fill:#624DE2;}
	.st1{fill:none;}
	.st2{fill:#333333;}
</style>
<path class="st0" d="M59.5,0.6L46.3,13.8L33.1,0.6c-0.3-0.3-0.7-0.5-1.2-0.5H1.6C0.7,0.1,0,0.9,0,1.8c0,0,0,0,0,0v34
	c0,0.9,0.7,1.7,1.6,1.7c0,0,0,0,0,0h3.8c0.9,0,1.7-0.7,1.7-1.7l0,0V7.2h22.6l11.6,11.6l4,4l1,1l13.1,13.1c0.3,0.3,0.7,0.5,1.2,0.5h5
	c0.9,0,1.7-0.7,1.7-1.6v0v-34c0-0.9-0.8-1.6-1.6-1.6h-4.9C60.2,0.1,59.8,0.3,59.5,0.6z M60.1,27.6l-8.8-8.8l8.8-8.8V27.6z"/>
<path class="st0" d="M43.7,26.3L33.1,36.9c-0.3,0.3-0.7,0.5-1.2,0.5h-5.3c-0.9,0-1.6-0.7-1.6-1.7c0-0.4,0.2-0.9,0.5-1.2l14.5-14.5
	L43.7,26.3z"/>
<line class="st1" x1="60.1" y1="37.4" x2="59.9" y2="37.4"/>
<polygon class="st0" points="22.6,18.5 15.7,25 15.7,12.5 22.6,18.5 "/>
<g>
	<g>
		<path class="st0" d="M199.6,14.2l-2.8-2.8c-0.1-0.1-0.4-0.2-0.5-0.1l-7,3.5c-0.2,0.1-0.2,0.3-0.1,0.4l1.7,1.7
			c0.1,0.1,0.4,0.2,0.5,0.1l4.9-2.4l1,1l-3,1.8c-0.2,0.1-0.2,0.3-0.1,0.4l1.5,1.5c0.1,0.1,0.4,0.2,0.5,0.1l3.3-1.6
			C200.5,16.8,200.7,15.4,199.6,14.2z"/>
		<path class="st2" d="M274.9,1.1h5.4c0.4,0,0.8,0.3,0.8,0.8v24.9c0,0.4-0.3,0.8-0.8,0.8h-5.4c-0.4,0-0.8-0.3-0.8-0.8V1.9
			C274.1,1.5,274.4,1.1,274.9,1.1z"/>
		<path class="st2" d="M264.6,7.3V2c0-0.4,0.3-0.8,0.8-0.8h5.3c0.4,0,0.8,0.3,0.8,0.8v5.3c0,0.4-0.3,0.8-0.8,0.8h-5.3
			C265,8.1,264.6,7.7,264.6,7.3z"/>
		<path class="st2" d="M270.7,11H262c-3.7,0-6.8,3-6.8,6.8v3h-9.5c-0.4,0-0.8,0.4-0.8,0.8v5.3c0,0.4,0.3,0.8,0.8,0.8h25
			c0.4,0,0.8-0.4,0.8-0.8V11.8C271.5,11.4,271.2,11,270.7,11C270.8,11,270.8,11,270.7,11z M264.7,20.7h-2.6v-3h2.6V20.7z"/>
		<path class="st2" d="M242.4,21.5v5.4c0,0.4-0.3,0.8-0.8,0.8l0,0h-16.9c-0.4,0-0.8-0.3-0.8-0.8v-6.1c0-1.5-0.2-2.9-0.5-4.3
			c-0.1-0.4-0.2-0.9-0.3-1.3l0,0c-0.1-0.3-0.1-0.5-0.2-0.8c-0.1-0.3-0.1-0.3-0.2-0.5c-0.1-0.2-0.2-0.6-0.3-0.9
			c-0.5-1.2-1.1-2.3-1.9-3.4l0.4-0.4c0.7-0.7,1.5-1.4,2.2-1.9c0.4-0.3,0.7-0.6,1.1-0.8s0.7-0.5,1-0.7l0.1-0.1l0,0l0.6-0.4
			c4.3-2.6,9.3-4.1,14.3-4.1h1.4c0.4,0,0.8,0.3,0.8,0.8v5.3c0,0.4-0.3,0.8-0.8,0.8h-1.4c-4,0-7.8,1.2-11.1,3.3
			c1.1,3,1.7,6.1,1.7,9.4v0.1h10.8C242,20.7,242.4,21.1,242.4,21.5L242.4,21.5z"/>
		<path class="st2" d="M222.8,22.1l-4.9,5.4c-0.1,0.2-0.4,0.3-0.6,0.3H206v8.7c0,0.4-0.3,0.8-0.8,0.8h-20.8c-0.4,0-0.8-0.3-0.8-0.8
			V21.5c0-0.4,0.3-0.8,0.8-0.8h5.3c0.4,0,0.8,0.3,0.8,0.7l0,0v8.7h8.7v-8.7c0-0.4,0.3-0.8,0.8-0.8l0,0h22.2c0.4,0,0.8,0.4,0.7,0.8
			C223,21.7,222.9,21.9,222.8,22.1z"/>
		<path class="st2" d="M242.4,30.9v5.4c0,0.4-0.3,0.8-0.8,0.8l0,0h-12.2c-0.4,0-0.8-0.3-0.8-0.8l0,0v-5.4c0-0.4,0.3-0.8,0.8-0.8
			h12.1C242,30.1,242.4,30.5,242.4,30.9L242.4,30.9z"/>
		<path class="st0" d="M281,31v1.2c0,0.4-0.3,0.9-0.7,1l0,0l-11.5,3.8c-0.4,0.1-0.7-0.1-0.7-0.5l0,0v-1.2c0-0.4,0.3-0.9,0.7-1
			l11.5-3.8C280.7,30.4,281,30.6,281,31L281,31z"/>
	</g>
	<g>
		<path class="st2" d="M176,11.1h-8.9c-3.8,0-6.8,3-6.8,6.8v3h-11.9v-9c0-0.4-0.3-0.8-0.8-0.8h-9.1c-3.8,0-6.8,3-6.8,6.8v8.9
			c0,0.4,0.4,0.8,0.8,0.8h9.1v8.8c0,0.4,0.3,0.8,0.8,0.8h5.3c0.4,0,0.8-0.4,0.8-0.8v-8.7H176c0.4,0,0.8-0.3,0.8-0.8V11.8
			C176.8,11.5,176.5,11.1,176,11.1L176,11.1z M141.6,20.7h-3v-2.8h3V20.7z M170,20.8h-2.8v-3h2.8V20.8z"/>
		<path class="st0" d="M166.6,7.7c0.2-0.1,0.3-0.3,0.3-0.4v-4c0-1.7-1.2-2.5-2.6-2l-3.4,1.2c-0.2,0.1-0.3,0.3-0.3,0.4v3.9l-3.4,1.2
			c-0.2,0.1-0.3,0.3-0.3,0.4v2.3c0,0.2,0.1,0.3,0.3,0.2L166.6,7.7z M163.1,5.9V4.6l1.1-0.4v1.3L163.1,5.9z"/>
		<path class="st2" d="M129.2,22.4l-5.5,5.3c-0.1,0.1-0.3,0.2-0.5,0.2H85.5v2.4H99c0.4,0,0.8,0.3,0.8,0.8v5.4c0,0.4-0.3,0.8-0.8,0.8
			H79.4c-0.4,0-0.8-0.3-0.8-0.8l0,0V21.8c0-0.4,0.3-0.8,0.8-0.8l0,0h49.3c0.4,0,0.8,0.3,0.8,0.8C129.5,22.1,129.4,22.3,129.2,22.4z"
			/>
		<path class="st2" d="M98.9,17.4v-5.3c0-0.4,0.3-0.8,0.8-0.8h5.3c0.4,0,0.8,0.3,0.8,0.8v5.3c0,0.4-0.3,0.8-0.8,0.8h-5.3
			C99.2,18.2,98.9,17.8,98.9,17.4z"/>
		<path class="st2" d="M129.5,5.3v12.1c0,0.4-0.3,0.8-0.8,0.8h-12.2c-0.4,0-0.8-0.4-0.8-0.8v-5.3c0-0.4,0.3-0.8,0.8-0.8h6v-6
			c0-0.4,0.3-0.8,0.8-0.8h5.3C129.1,4.5,129.5,4.8,129.5,5.3L129.5,5.3z"/>
		<path class="st0" d="M131.8,31v1.2c0,0.4-0.3,0.9-0.7,1l0,0L119.6,37c-0.4,0.1-0.7-0.1-0.7-0.5l0,0v-1.2c0-0.4,0.3-0.9,0.7-1
			l11.5-3.8C131.5,30.5,131.8,30.7,131.8,31L131.8,31z"/>
		<path class="st2" d="M135.9,17.9L135.9,17.9C135.9,18,135.9,18,135.9,17.9z"/>
	</g>
</g>
</svg>
