<?xml version="1.0" encoding="utf-8"?>
<!-- Generator: Adobe Illustrator 27.1.1, SVG Export Plug-In . SVG Version: 6.00 Build 0)  -->
<svg version="1.1" id="Layer_1" xmlns="http://www.w3.org/2000/svg" xmlns:xlink="http://www.w3.org/1999/xlink" x="0px" y="0px"
	 viewBox="0 0 840 330" style="enable-background:new 0 0 840 330;" xml:space="preserve">
<style type="text/css">
	.st0{fill:#FFFFFF;}
	.st1{fill:#F4EFF4;}
	.st2{fill:#FFFFFF;stroke:#000000;stroke-width:2;stroke-linecap:round;stroke-linejoin:round;stroke-miterlimit:10;}
</style>
<g>
	<g>
		<g>
			<rect x="28.75" y="116.02" class="st0" width="53.44" height="53.44"/>
		</g>
		<g>
			<g>
				<rect x="24.58" y="111.86" class="st1" width="53.44" height="53.44"/>
			</g>
			<path d="M79.02,115.02v-4.16H23.59v55.43h4.16v4.17h55.44v-55.44H79.02z M25.59,164.29v-51.43h51.43v2.16v2v47.27H29.75h-2H25.59
				z M81.19,168.46H29.75v-2.17h49.27v-49.27h2.17V168.46z"/>
		</g>
		<g>
			<path d="M33.18,121.05c0.2,0.12,0.32,0.3,0.36,0.53c0.05,0.22,0.01,0.43-0.13,0.63s-0.36,0.33-0.64,0.4l0.23,1.03l3.61-0.88
				c0.63-0.15,1.1-0.44,1.41-0.86c0.31-0.42,0.41-0.9,0.31-1.46c-0.1-0.52-0.36-0.92-0.79-1.19c-0.43-0.28-0.92-0.35-1.47-0.21
				c-0.49,0.11-0.84,0.35-1.06,0.72c-0.22,0.37-0.28,0.8-0.17,1.28l0.24,0.93l-0.69,0.19c0.08-0.25,0.1-0.51,0.06-0.78
				c-0.06-0.3-0.18-0.57-0.37-0.8c-0.19-0.24-0.44-0.41-0.75-0.51c-0.31-0.1-0.66-0.11-1.04-0.02l0.2,0.93
				C32.75,120.91,32.98,120.93,33.18,121.05z M35.86,120.79c-0.04-0.17-0.03-0.31,0.04-0.42c0.07-0.12,0.21-0.2,0.42-0.24
				c0.28-0.07,0.5-0.04,0.69,0.07c0.18,0.11,0.28,0.28,0.31,0.5c0.03,0.2-0.04,0.38-0.21,0.54s-0.43,0.29-0.77,0.39l-0.26,0.07
				L35.86,120.79z"/>
			<path d="M31.83,132.75c0.25,0.35,0.59,0.63,1.03,0.84s0.95,0.31,1.52,0.31h1.24c0.83,0,1.51-0.17,2.04-0.51
				c0.53-0.34,0.9-0.8,1.1-1.38c0.2-0.58,0.21-1.22,0.03-1.91c-0.17-0.68-0.52-1.5-1.06-2.46c-0.54-0.96-1.14-1.89-1.8-2.8
				l-1.7,1.39c0.55,0.78,1.06,1.58,1.54,2.39c0.47,0.81,0.81,1.49,1.01,2.03c0.1,0.29,0.09,0.51-0.04,0.67
				c-0.13,0.16-0.41,0.24-0.84,0.24h-1.89c-0.22,0-0.38-0.02-0.48-0.07c-0.1-0.04-0.16-0.14-0.18-0.28
				c-0.02-0.22-0.03-0.45-0.03-0.68h-1.92c0,0.36,0.01,0.72,0.02,1.08C31.45,132.01,31.58,132.4,31.83,132.75z"/>
			<path d="M47.71,124.36c0.25,0.17,0.54,0.26,0.86,0.26c0.4,0,0.71-0.12,0.94-0.35c0.09,0.11,0.21,0.2,0.38,0.26
				c0.17,0.06,0.34,0.09,0.53,0.09c0.34,0,0.64-0.09,0.9-0.26s0.44-0.4,0.54-0.69c0.1-0.29,0.1-0.6,0.02-0.93l-0.35-1.21l-0.91,0.28
				l0.28,1.16c0.03,0.13,0.01,0.24-0.06,0.32c-0.07,0.08-0.21,0.12-0.42,0.12c-0.12,0-0.22-0.03-0.31-0.08
				c-0.08-0.05-0.13-0.12-0.14-0.2l-0.05-1.09h-0.86l-0.03,1.09c-0.02,0.08-0.07,0.14-0.15,0.2c-0.08,0.06-0.18,0.08-0.31,0.08
				c-0.2,0-0.33-0.05-0.4-0.14c-0.07-0.09-0.08-0.21-0.05-0.36l0.18-0.83l-0.91-0.25l-0.21,0.91c-0.1,0.33-0.1,0.64,0,0.92
				S47.45,124.18,47.71,124.36z"/>
			<rect x="48.62" y="135.17" width="2.17" height="2.17"/>
			<polygon points="64.65,125.39 64.4,124.25 60.5,125.17 60.75,126.33 			"/>
			<path d="M56.08,133.89h0.61c0.65,0,1.21-0.16,1.66-0.47c0.15-0.11,0.27-0.23,0.4-0.36c0.12,0.12,0.24,0.25,0.38,0.35
				c0.45,0.32,0.98,0.48,1.57,0.48c0.66,0,1.22-0.16,1.68-0.47c0.14-0.1,0.25-0.22,0.36-0.33c0.12,0.12,0.24,0.24,0.39,0.34
				c0.45,0.3,0.98,0.46,1.59,0.46c0.75,0,1.39-0.19,1.94-0.57c0.54-0.38,0.91-0.91,1.11-1.59s0.18-1.44-0.05-2.29l-0.66-2.47l-2,0.6
				l0.66,2.46c0.1,0.39,0.12,0.69,0.08,0.91c-0.05,0.22-0.16,0.38-0.34,0.46c-0.18,0.09-0.42,0.13-0.73,0.13
				c-0.35,0-0.61-0.07-0.76-0.21c-0.15-0.14-0.23-0.36-0.21-0.65v-2.05h-1.97v2.05c0,0.29-0.07,0.5-0.21,0.65s-0.43,0.21-0.87,0.21
				c-0.34,0-0.59-0.07-0.75-0.22c-0.16-0.15-0.24-0.36-0.24-0.64v-2.05h-1.95v2.05c0,0.29-0.07,0.5-0.21,0.65s-0.43,0.21-0.87,0.21
				h-0.61h-0.17H55c-0.14,0-0.26-0.02-0.38-0.07l0.29-2.47l-4.24-2.25c-0.61-0.32-1.22-0.48-1.85-0.48c-0.63,0-1.21,0.17-1.75,0.5
				c-0.54,0.33-0.99,0.82-1.36,1.46l-0.31,0.6l1.82,1.14l0.3-0.53c0.22-0.39,0.53-0.64,0.93-0.76c0.4-0.12,0.8-0.08,1.21,0.13
				l2.74,1.24l-3.17,0.83c-0.79,0.21-1.58,0.37-2.35,0.48c-0.77,0.11-1.49,0.17-2.17,0.18h-0.18h-0.17c-0.39,0-0.65-0.02-0.8-0.07
				s-0.25-0.15-0.31-0.31c-0.06-0.16-0.09-0.44-0.12-0.84l-0.02-0.18l-0.3-7.71l-2.08,0.1l0.3,7.61c0.04,0.93,0.18,1.66,0.4,2.2
				c0.22,0.54,0.57,0.94,1.03,1.18s1.1,0.37,1.89,0.37h0.17h0.17c0.82,0,1.67-0.06,2.55-0.19s1.74-0.32,2.58-0.57l2.57-0.79
				c0.27,0.48,0.63,0.85,1.09,1.13c0.46,0.28,0.97,0.42,1.52,0.42h0.91H56.08z"/>
			<path d="M47.1,148.58l0-0.01c-0.03,0.01-0.07,0.01-0.11,0.02c-0.32,0.03-0.61-0.03-0.88-0.2c-0.29-0.19-0.47-0.45-0.52-0.78
				c-0.07-0.34,0.02-0.65,0.25-0.91s0.54-0.41,0.91-0.43c0.19-0.01,0.45,0.02,0.79,0.08c0.34,0.07,0.7,0.15,1.08,0.25l0.56-2.27
				c-0.56-0.15-1.11-0.27-1.64-0.34c-0.53-0.07-0.95-0.08-1.27-0.02c-0.62,0.11-1.16,0.37-1.61,0.78c-0.46,0.41-0.79,0.91-0.98,1.5
				c-0.2,0.59-0.24,1.21-0.13,1.85c0.04,0.23,0.13,0.43,0.2,0.64c-0.42,0.01-0.88,0.02-1.38,0.02c-0.44,0-0.92-0.06-1.45-0.18
				c-0.52-0.12-1.49-0.38-2.9-0.78c-0.02-0.02-0.08-0.04-0.18-0.05l-0.63,2.23l0.98,0.3c0.13,0.04,0.24,0.08,0.36,0.12
				c0.08,0.03,0.16,0.05,0.23,0.08c0.44,0.18,0.67,0.33,0.7,0.46c0.04,0.33,0,0.59-0.12,0.79c-0.13,0.19-0.36,0.35-0.7,0.48
				c-0.34,0.13-0.87,0.28-1.57,0.46l-0.25,0.05c-1,0.23-1.8,0.17-2.38-0.18c-0.58-0.35-0.92-0.96-1.02-1.83
				c-0.09-0.87,0.08-1.93,0.52-3.2l-1.99-0.78c-0.62,1.79-0.79,3.38-0.52,4.79c0.27,1.41,0.93,2.43,1.97,3.08
				c1.04,0.65,2.33,0.79,3.88,0.42l0.33-0.08c0.98-0.24,1.77-0.54,2.36-0.89c0.59-0.35,1.01-0.77,1.27-1.28
				c0.24-0.46,0.34-1.03,0.31-1.68c0.19,0.01,0.41,0.02,0.64,0.02v0h0.2c2.82-0.03,4.51-0.1,5.06-0.21l2.85-0.55l-0.4-2.28
				L47.1,148.58z"/>
			<rect x="45.31" y="140.54" width="2.17" height="2.17"/>
			<polygon points="52.36,139.73 52.8,151.17 54.89,151.07 54.46,139.63 			"/>
			<polygon points="64.24,158.91 64.48,160.07 68.39,159.13 68.14,157.98 			"/>
			<polygon points="66.98,154.54 69.05,154.54 69.07,152.46 66.97,152.46 			"/>
			<path d="M67.3,144.18c-0.62-0.35-1.24-0.53-1.87-0.52c-0.63,0.01-1.22,0.18-1.76,0.51c-0.55,0.34-1,0.82-1.37,1.46l-0.31,0.6
				l1.82,1.14l0.28-0.53c0.14-0.25,0.34-0.45,0.59-0.6s0.51-0.21,0.79-0.21c0.28,0,0.55,0.07,0.81,0.2l2.68,1.36l-3.11,0.74
				c-0.63,0.18-1.29,0.29-1.99,0.34s-1.5,0.07-2.4,0.07h-0.26h-0.25h-0.1c-0.14,0-0.26-0.02-0.36-0.07
				c-0.09-0.04-0.17-0.13-0.24-0.26c-0.07-0.13-0.12-0.32-0.17-0.57l-0.23-1.35l-0.12-0.83l-2.07,0.31l0.66,4.75
				c0.06,0.4,0.03,0.71-0.08,0.95c-0.11,0.24-0.3,0.43-0.58,0.58c-0.28,0.15-0.68,0.3-1.21,0.46c-0.07,0.02-0.14,0.04-0.21,0.05
				l-1.03,0.3l0.55,2.27l1.03-0.3l0.3-0.08c0.87-0.25,1.56-0.57,2.07-0.94c0.51-0.37,0.87-0.84,1.08-1.42
				c0.16-0.44,0.23-0.95,0.21-1.55c0.13,0.02,0.25,0.05,0.4,0.05h0.1h0.23h0.28c0.92,0,1.77-0.03,2.57-0.09s1.58-0.2,2.34-0.41
				l4.8-1.29l0.3-2.71L67.3,144.18z"/>
			<rect x="65.39" y="155.34" width="1.87" height="1.72"/>
			<polygon points="65.66,152.46 63.56,152.46 63.57,154.54 65.64,154.54 			"/>
		</g>
	</g>
	<g>
		<path d="M32.26,233.5c-2.32-1.09-4.13-2.57-5.42-4.44c-1.3-1.86-2.04-3.93-2.22-6.21h3.21c0.36,2.5,1.54,4.73,3.51,6.69
			c1.98,1.96,4.99,2.93,9.04,2.93c2.37,0,4.42-0.43,6.18-1.3c1.75-0.86,3.1-2.05,4.06-3.55c0.96-1.5,1.43-3.16,1.43-4.98
			c0-2.32-0.56-4.16-1.67-5.53c-1.12-1.37-2.5-2.39-4.16-3.07c-1.66-0.68-3.9-1.41-6.72-2.18c-3.09-0.82-5.58-1.64-7.47-2.46
			c-1.89-0.82-3.48-2.08-4.78-3.79c-1.3-1.71-1.94-4.04-1.94-6.99c0-2.27,0.6-4.36,1.81-6.24c1.2-1.89,2.92-3.38,5.15-4.47
			c2.23-1.09,4.8-1.64,7.71-1.64c4.23,0,7.64,1.05,10.24,3.14c2.59,2.09,4.14,4.66,4.64,7.71h-3.28c-0.27-1.23-0.88-2.48-1.81-3.75
			c-0.93-1.27-2.25-2.33-3.96-3.17c-1.71-0.84-3.74-1.26-6.11-1.26c-3.18,0-5.87,0.88-8.05,2.63c-2.18,1.75-3.28,4.08-3.28,6.99
			c0,2.32,0.57,4.17,1.71,5.56c1.14,1.39,2.54,2.43,4.2,3.14c1.66,0.71,3.9,1.42,6.72,2.15c3.14,0.86,5.63,1.7,7.47,2.49
			c1.84,0.8,3.41,2.05,4.71,3.75c1.3,1.71,1.94,4.02,1.94,6.93c0,2.14-0.57,4.16-1.71,6.07c-1.14,1.91-2.81,3.47-5.01,4.67
			c-2.21,1.21-4.88,1.81-8.02,1.81C37.28,235.14,34.58,234.6,32.26,233.5z"/>
		<path d="M91.48,222.38H68.76l-4.57,12.28h-3.34l17.6-46.81h3.41l17.54,46.81h-3.34L91.48,222.38z M90.53,219.79l-10.37-27.91
			l-10.44,27.91H90.53z"/>
		<path d="M127.1,186.76v37.19c0,3.32-1.02,6.02-3.07,8.09c-2.05,2.07-4.82,3.1-8.33,3.1c-3.68,0-6.58-1.13-8.7-3.38
			c-2.12-2.25-3.17-5.36-3.17-9.31h3.07c0,2.91,0.7,5.3,2.12,7.16c1.41,1.87,3.64,2.8,6.69,2.8c2.91,0,5.02-0.83,6.31-2.49
			c1.3-1.66,1.94-3.65,1.94-5.97v-37.19H127.1z"/>
		<path d="M158.7,186.76v37.19c0,3.32-1.02,6.02-3.07,8.09c-2.05,2.07-4.82,3.1-8.32,3.1c-3.69,0-6.58-1.13-8.7-3.38
			c-2.12-2.25-3.17-5.36-3.17-9.31h3.07c0,2.91,0.71,5.3,2.12,7.16c1.41,1.87,3.64,2.8,6.69,2.8c2.91,0,5.01-0.83,6.31-2.49
			c1.3-1.66,1.94-3.65,1.94-5.97v-37.19H158.7z"/>
		<path d="M197.45,222.38h-22.72l-4.57,12.28h-3.34l17.6-46.81h3.41l17.54,46.81h-3.34L197.45,222.38z M196.5,219.79l-10.37-27.91
			l-10.44,27.91H196.5z"/>
		<path d="M245.25,193.11c4.39,4.23,6.58,10.12,6.58,17.67s-2.2,13.42-6.58,17.6c-4.39,4.19-10.63,6.28-18.73,6.28h-13.44v-47.9
			h13.44C234.62,186.76,240.86,188.88,245.25,193.11z M243.04,226.44c3.78-3.75,5.66-8.97,5.66-15.66c0-6.73-1.89-11.99-5.66-15.76
			c-3.78-3.78-9.28-5.66-16.51-5.66h-10.37v42.72h10.37C233.76,232.07,239.26,230.2,243.04,226.44z"/>
		<path d="M27,268.33c2.09-3.71,4.95-6.61,8.56-8.7c3.62-2.09,7.63-3.14,12.04-3.14c5.19,0,9.71,1.25,13.58,3.75
			c3.87,2.5,6.69,6.05,8.46,10.64h-7.44c-1.32-2.87-3.22-5.07-5.7-6.62c-2.48-1.55-5.45-2.32-8.9-2.32c-3.32,0-6.3,0.77-8.94,2.32
			c-2.64,1.55-4.71,3.74-6.21,6.58c-1.5,2.84-2.25,6.18-2.25,10c0,3.78,0.75,7.09,2.25,9.93c1.5,2.84,3.57,5.04,6.21,6.58
			c2.64,1.55,5.62,2.32,8.94,2.32c3.46,0,6.42-0.76,8.9-2.29s4.38-3.72,5.7-6.58h7.44c-1.77,4.55-4.6,8.06-8.46,10.54
			c-3.87,2.48-8.39,3.72-13.58,3.72c-4.41,0-8.43-1.03-12.04-3.1c-3.62-2.07-6.47-4.95-8.56-8.63c-2.09-3.68-3.14-7.85-3.14-12.49
			C23.86,276.21,24.91,272.04,27,268.33z"/>
		<path d="M115.5,257.11v47.56h-6.21V283.1H85.07v21.56h-6.21v-47.56h6.21v20.88h24.22v-20.88H115.5z"/>
		<path d="M132.29,262.15v15.9h17.33v5.12h-17.33v16.38h19.38v5.12h-25.59v-47.63h25.59v5.12H132.29z"/>
		<path d="M186.13,304.67l-11.33-19.45h-7.51v19.45h-6.21v-47.56h15.35c3.59,0,6.63,0.61,9.11,1.84c2.48,1.23,4.33,2.89,5.56,4.98
			c1.23,2.09,1.84,4.48,1.84,7.17c0,3.27-0.94,6.16-2.83,8.67c-1.89,2.5-4.72,4.16-8.5,4.98l11.94,19.92H186.13z M167.3,280.24h9.14
			c3.37,0,5.89-0.83,7.57-2.49c1.68-1.66,2.53-3.88,2.53-6.65c0-2.82-0.83-5-2.49-6.55c-1.66-1.55-4.2-2.32-7.61-2.32h-9.14V280.24z
			"/>
		<path d="M230.68,294.09h-20.74l-3.82,10.58h-6.55l17.2-47.29h7.16l17.13,47.29h-6.55L230.68,294.09z M228.91,289.04l-8.6-24.02
			l-8.6,24.02H228.91z"/>
		<path d="M284.59,270.89c-1.32-2.77-3.23-4.92-5.73-6.45c-2.5-1.52-5.41-2.29-8.73-2.29c-3.32,0-6.31,0.76-8.97,2.29
			c-2.66,1.52-4.75,3.71-6.28,6.55c-1.52,2.84-2.29,6.13-2.29,9.86c0,3.73,0.76,7.01,2.29,9.83c1.52,2.82,3.62,4.99,6.28,6.52
			c2.66,1.52,5.65,2.29,8.97,2.29c4.64,0,8.46-1.39,11.46-4.16c3-2.77,4.75-6.53,5.25-11.26h-18.97v-5.05h25.59v4.78
			c-0.37,3.91-1.59,7.5-3.69,10.75c-2.09,3.25-4.84,5.82-8.26,7.71c-3.41,1.89-7.21,2.83-11.4,2.83c-4.41,0-8.44-1.03-12.08-3.1
			c-3.64-2.07-6.52-4.95-8.63-8.63s-3.17-7.85-3.17-12.49c0-4.64,1.06-8.81,3.17-12.52c2.12-3.71,4.99-6.6,8.63-8.67
			c3.64-2.07,7.66-3.1,12.08-3.1c5.05,0,9.52,1.25,13.41,3.75s6.72,6.03,8.5,10.58H284.59z"/>
		<path d="M338.29,257.11v47.56h-6.21V283.1h-24.22v21.56h-6.21v-47.56h6.21v20.88h24.22v-20.88H338.29z"/>
		<path d="M355.08,257.11v47.56h-6.21v-47.56H355.08z"/>
	</g>
</g>
<g>
	<path d="M28.73,66.09l-5.15-5.15c-0.77-0.77-0.77-2.01,0-2.78l5.15-5.15c0.77-0.77,2.01-0.77,2.78,0l5.15,5.15
		c0.77,0.77,0.77,2.01,0,2.78l-5.15,5.15C30.74,66.86,29.5,66.86,28.73,66.09z"/>
	<path class="st2" d="M812.66,64.85l-4.64-4.64c-0.37-0.37-0.37-0.96,0-1.33l4.64-4.64c0.37-0.37,0.96-0.37,1.33,0l4.64,4.64
		c0.37,0.37,0.37,0.96,0,1.33l-4.64,4.64C813.62,65.22,813.03,65.22,812.66,64.85z"/>
	<line class="st2" x1="30.12" y1="59.55" x2="807.58" y2="59.55"/>
	<g>
		<path class="st0" d="M52.1,65.23c-0.25,0-0.48-0.1-0.66-0.27l-5.12-5.12c-0.18-0.18-0.27-0.41-0.27-0.66s0.1-0.48,0.27-0.66
			l5.12-5.12c0.18-0.18,0.41-0.27,0.66-0.27h174.96c0.25,0,0.48,0.1,0.66,0.27l5.12,5.12c0.18,0.18,0.27,0.41,0.27,0.66
			s-0.1,0.48-0.27,0.66l-5.12,5.12c-0.18,0.18-0.41,0.27-0.66,0.27H52.1z"/>
		<g>
			<path d="M227.04,54.12l5.06,5.06l-5.06,5.06H52.13l-5.06-5.06l5.06-5.06H227.04 M227.07,52.12H52.1c-0.51,0-1,0.2-1.37,0.57
				l-5.12,5.12c-0.76,0.76-0.76,1.98,0,2.73l5.12,5.12c0.36,0.36,0.85,0.57,1.37,0.57h174.96c0.51,0,1-0.2,1.37-0.57l5.12-5.12
				c0.76-0.76,0.76-1.98,0-2.73l-5.12-5.12C228.07,52.33,227.58,52.12,227.07,52.12L227.07,52.12z"/>
		</g>
	</g>
</g>
</svg>
