<?xml version="1.0" encoding="utf-8"?>
<!-- Generator: Adobe Illustrator 27.1.1, SVG Export Plug-In . SVG Version: 6.00 Build 0)  -->
<svg version="1.1" id="Layer_1" xmlns="http://www.w3.org/2000/svg" xmlns:xlink="http://www.w3.org/1999/xlink" x="0px" y="0px"
	 viewBox="0 0 792.49 448.77" style="enable-background:new 0 0 792.49 448.77;" xml:space="preserve">
<style type="text/css">
	.st0{fill:#FFFFFF;}
	.st1{fill:#F4EFF4;}
	.st2{fill:#FFFFFF;stroke:#000000;stroke-width:2;stroke-miterlimit:10;}
</style>
<g>
	<g>
		<rect x="1" y="6.99" class="st0" width="785.15" height="440.77"/>
		<path d="M785.15,7.99v438.77H2V7.99H785.15 M787.15,5.99H0v442.77h787.15V5.99L787.15,5.99z"/>
	</g>
	<g>
		<rect x="9.11" y="1" class="st1" width="782.38" height="439.21"/>
		<path d="M790.49,2v437.21H10.11V2H790.49 M792.49,0H8.11v441.21h784.38V0L792.49,0z"/>
	</g>
	<g>
		<circle class="st2" cx="396.82" cy="217.09" r="68.29"/>
		<g>
			<g>
				<path class="st0" d="M384.77,245.74c-3.23,0-6.73-2.57-6.73-6.73v-43.96c0-1.23,1.04-2,2-2c0.35,0,0.68,0.09,0.99,0.27
					l45.15,26.07c0.62,0.36,1,1,1,1.72c0,0.72-0.37,1.36-1,1.72l-38.07,21.98C387.07,245.44,385.95,245.74,384.77,245.74
					L384.77,245.74z"/>
				<path d="M380.04,194.07c0.17,0,0.33,0.05,0.49,0.14l45.15,26.07c0.45,0.26,0.5,0.69,0.5,0.86s-0.05,0.6-0.5,0.86l-38.07,21.98
					c-0.89,0.52-1.85,0.78-2.85,0.78c-2.75,0-5.73-2.19-5.73-5.73v-43.96C379.05,194.45,379.56,194.07,380.04,194.07 M380.04,192.07
					c-1.56,0-3,1.25-3,3v43.96c0,4.5,3.7,7.73,7.73,7.73c1.28,0,2.6-0.33,3.85-1.04l38.07-21.98c1.99-1.15,1.99-4.03,0-5.18
					l-45.15-26.07C381.05,192.19,380.54,192.07,380.04,192.07L380.04,192.07z"/>
			</g>
		</g>
		<g>
			<g>
				<path class="st1" d="M384.7,242.04c-1.5,0-3.12-1.19-3.12-3.12v-48.25c0-1.93,1.62-3.12,3.12-3.12c0.54,0,1.06,0.14,1.55,0.42
					l41.78,24.12c0.98,0.56,1.56,1.57,1.56,2.7s-0.58,2.13-1.56,2.7l-41.78,24.12C385.76,241.89,385.24,242.04,384.7,242.04
					L384.7,242.04z"/>
				<path d="M384.7,188.55c0.36,0,0.72,0.1,1.05,0.29l41.78,24.12c0.95,0.55,1.06,1.46,1.06,1.83c0,0.37-0.1,1.28-1.06,1.83
					l-41.78,24.12c-0.33,0.19-0.69,0.29-1.05,0.29c-1.02,0-2.12-0.81-2.12-2.12v-48.25C382.58,189.36,383.68,188.55,384.7,188.55
					 M384.7,186.55c-2.15,0-4.12,1.72-4.12,4.12v48.25c0,2.4,1.97,4.12,4.12,4.12c0.68,0,1.39-0.17,2.05-0.56l41.78-24.12
					c2.74-1.58,2.74-5.54,0-7.13l-41.78-24.12C386.09,186.72,385.39,186.55,384.7,186.55L384.7,186.55z"/>
			</g>
		</g>
		<g>
			<path d="M323.38,317.99c-0.49-0.1-0.95-0.26-1.37-0.47c-0.42-0.21-0.82-0.47-1.19-0.78l0.68-0.89c0.47,0.42,1,0.73,1.57,0.94
				c0.57,0.21,1.2,0.31,1.87,0.31c0.97,0,1.73-0.19,2.26-0.58c0.53-0.38,0.8-0.93,0.8-1.63v-0.01c0-0.43-0.12-0.78-0.35-1.04
				c-0.23-0.26-0.53-0.46-0.9-0.59c-0.37-0.13-0.84-0.25-1.42-0.36c-0.02,0-0.03-0.01-0.05-0.01c-0.02,0-0.04-0.01-0.06-0.01
				l-0.23-0.05c-0.8-0.15-1.44-0.31-1.91-0.47c-0.48-0.16-0.89-0.44-1.22-0.84c-0.34-0.39-0.5-0.94-0.5-1.64v-0.01
				c0-0.7,0.16-1.3,0.47-1.8c0.31-0.5,0.77-0.88,1.38-1.14c0.6-0.26,1.33-0.39,2.18-0.39c0.4,0,0.8,0.04,1.19,0.13
				c0.39,0.09,0.78,0.22,1.16,0.39c0.38,0.17,0.76,0.39,1.14,0.66l-0.66,0.88c-0.49-0.34-0.97-0.6-1.44-0.77
				c-0.47-0.17-0.93-0.25-1.39-0.25c-0.93,0-1.65,0.2-2.16,0.59c-0.51,0.39-0.77,0.94-0.77,1.65v0.01c0,0.43,0.13,0.76,0.38,1.01
				c0.25,0.25,0.57,0.43,0.95,0.55c0.38,0.12,0.89,0.25,1.55,0.38c0.02,0.01,0.04,0.01,0.07,0.02c0.02,0.01,0.05,0.01,0.07,0.02
				c0.03,0.01,0.06,0.01,0.09,0.02c0.03,0.01,0.06,0.01,0.09,0.02c0.71,0.15,1.31,0.31,1.78,0.5c0.47,0.19,0.87,0.48,1.18,0.88
				c0.31,0.4,0.47,0.94,0.47,1.61v0.02c0,0.69-0.16,1.29-0.49,1.78s-0.8,0.87-1.43,1.13c-0.62,0.26-1.37,0.39-2.25,0.39
				C324.39,318.15,323.87,318.1,323.38,317.99z"/>
			<path d="M335.29,306.67h1.36l4.19,11.36h-1.25l-3.62-10.18l-3.62,10.18h-1.25L335.29,306.67z M333.04,314.23h5.98v1.05h-5.98
				V314.23z"/>
			<path d="M343.73,317.8c-0.5-0.23-0.9-0.56-1.2-0.97l0.76-0.78c0.24,0.33,0.55,0.59,0.94,0.77c0.39,0.18,0.81,0.27,1.28,0.27
				c0.74,0,1.32-0.25,1.73-0.74c0.41-0.49,0.61-1.19,0.61-2.09v-7.59h1.13v7.59c0,0.82-0.14,1.52-0.43,2.1
				c-0.28,0.58-0.7,1.02-1.24,1.33c-0.54,0.3-1.2,0.46-1.96,0.46C344.76,318.15,344.22,318.03,343.73,317.8z"/>
			<path d="M352.64,317.8c-0.5-0.23-0.9-0.56-1.2-0.97l0.76-0.78c0.24,0.33,0.55,0.59,0.94,0.77c0.39,0.18,0.81,0.27,1.28,0.27
				c0.74,0,1.32-0.25,1.73-0.74c0.41-0.49,0.61-1.19,0.61-2.09v-7.59h1.13v7.59c0,0.82-0.14,1.52-0.43,2.1
				c-0.28,0.58-0.7,1.02-1.24,1.33c-0.54,0.3-1.2,0.46-1.96,0.46C353.67,318.15,353.13,318.03,352.64,317.8z"/>
			<path d="M364.61,306.67h1.36l4.19,11.36h-1.25l-3.62-10.18l-3.62,10.18h-1.25L364.61,306.67z M362.35,314.23h5.98v1.05h-5.98
				V314.23z"/>
			<path d="M373.01,306.67h1.13v11.36h-1.13V306.67z M374.09,316.99h2.57c1.05,0,1.84-0.25,2.36-0.74s0.79-1.23,0.79-2.22v-3.34
				c0-0.99-0.26-1.73-0.79-2.22s-1.31-0.74-2.36-0.74h-2.57v-1.05h2.52c0.96,0,1.77,0.15,2.41,0.45c0.64,0.3,1.12,0.75,1.44,1.36
				c0.32,0.6,0.48,1.36,0.48,2.27v3.22c0,0.91-0.16,1.66-0.48,2.26s-0.8,1.05-1.44,1.36c-0.64,0.3-1.44,0.45-2.41,0.45h-2.52V316.99
				z"/>
			<path d="M390.16,317.63c-0.6-0.35-1.06-0.84-1.39-1.48s-0.49-1.38-0.49-2.23v-3.12c0-0.84,0.16-1.59,0.49-2.23
				s0.79-1.14,1.39-1.49c0.6-0.35,1.29-0.53,2.07-0.53c0.65,0,1.25,0.13,1.8,0.4s1,0.64,1.37,1.13c0.37,0.49,0.62,1.05,0.75,1.69
				h-1.13c-0.13-0.43-0.33-0.8-0.61-1.13c-0.28-0.33-0.62-0.58-1-0.77c-0.38-0.18-0.77-0.27-1.18-0.27c-0.56,0-1.06,0.13-1.48,0.4
				c-0.43,0.27-0.76,0.64-0.99,1.12c-0.23,0.48-0.35,1.04-0.35,1.68v3.12c0,0.64,0.12,1.19,0.35,1.68c0.23,0.48,0.56,0.85,0.99,1.12
				c0.43,0.26,0.92,0.39,1.48,0.39c0.41,0,0.8-0.09,1.18-0.26c0.38-0.17,0.71-0.42,1-0.75c0.28-0.33,0.49-0.72,0.61-1.16h1.13
				c-0.13,0.64-0.38,1.21-0.75,1.69c-0.37,0.49-0.83,0.86-1.38,1.13s-1.14,0.4-1.79,0.4C391.45,318.15,390.76,317.98,390.16,317.63z
				"/>
			<path d="M399.55,306.67h1.13v11.36h-1.13V306.67z M400.31,311.88h6.77v1.09h-6.77V311.88z M406.47,306.67h1.13v11.36h-1.13
				V306.67z"/>
			<path d="M411.55,306.67h1.13v11.36h-1.13V306.67z M412.32,306.67h6.52v1.05h-6.52V306.67z M412.32,311.87h5.66v1.05h-5.66V311.87
				z M412.32,316.99h6.52v1.05h-6.52V316.99z"/>
			<path d="M422.24,306.67h1.13v11.37h-1.13V306.67z M422.94,312.18h3.88c0.42,0,0.79-0.09,1.11-0.28c0.32-0.18,0.57-0.45,0.74-0.79
				c0.17-0.34,0.26-0.73,0.27-1.17c0-0.44-0.09-0.83-0.26-1.17c-0.17-0.34-0.42-0.6-0.74-0.79c-0.32-0.18-0.69-0.28-1.12-0.28h-3.88
				v-1.05h3.81c0.66,0,1.23,0.14,1.73,0.41c0.5,0.27,0.88,0.66,1.16,1.15c0.27,0.5,0.41,1.07,0.41,1.72c0,0.65-0.14,1.23-0.41,1.72
				c-0.27,0.5-0.66,0.88-1.16,1.15c-0.5,0.27-1.08,0.41-1.73,0.41h-3.81V312.18z M426.58,312.88l1.04-0.36l2.91,5.52h-1.34
				L426.58,312.88z"/>
			<path d="M436.59,306.67h1.36l4.19,11.36h-1.25l-3.62-10.18l-3.62,10.18h-1.25L436.59,306.67z M434.33,314.23h5.98v1.05h-5.98
				V314.23z"/>
			<path d="M452.52,312.23v1.67c0,0.95-0.15,1.74-0.44,2.37c-0.29,0.63-0.74,1.1-1.32,1.41c-0.59,0.31-1.33,0.47-2.21,0.47
				c-0.9,0-1.64-0.15-2.24-0.45c-0.6-0.3-1.04-0.74-1.34-1.33c-0.3-0.59-0.45-1.33-0.45-2.22v-3.35c0-0.95,0.15-1.74,0.44-2.36
				c0.29-0.63,0.74-1.1,1.32-1.41c0.59-0.31,1.33-0.47,2.21-0.47c0.73,0,1.37,0.13,1.9,0.38s0.97,0.62,1.3,1.12
				c0.34,0.5,0.58,1.12,0.73,1.88h-1.22c-0.14-0.52-0.32-0.95-0.57-1.3s-0.54-0.6-0.9-0.77c-0.36-0.17-0.77-0.26-1.25-0.26
				c-0.64,0-1.16,0.12-1.59,0.36c-0.42,0.24-0.74,0.59-0.95,1.06c-0.21,0.47-0.32,1.06-0.32,1.78v3.35c0,0.66,0.11,1.21,0.32,1.64
				c0.21,0.44,0.54,0.76,0.96,0.98s0.97,0.33,1.61,0.33c0.63,0,1.15-0.11,1.56-0.34c0.41-0.22,0.72-0.57,0.92-1.04
				c0.21-0.47,0.31-1.07,0.31-1.8v-0.65h-2.75v-1.05H452.52z"/>
			<path d="M456.24,306.67h1.13v11.36h-1.13V306.67z M457,311.88h6.77v1.09H457V311.88z M463.16,306.67h1.13v11.36h-1.13V306.67z"/>
			<path d="M469.59,318.03h-1.13v-11.36h1.13V318.03z"/>
			<path d="M359.72,333.87c-0.48-0.19-0.88-0.47-1.2-0.85c-0.32-0.38-0.54-0.84-0.67-1.4l1.9-0.84c0.15,0.45,0.37,0.8,0.68,1.03
				s0.67,0.35,1.11,0.35c0.45,0,0.8-0.1,1.05-0.3c0.25-0.2,0.38-0.47,0.38-0.83v-0.5c0-0.25-0.07-0.47-0.22-0.63
				c-0.15-0.17-0.34-0.3-0.57-0.39c-0.23-0.1-0.54-0.2-0.92-0.32c-0.02-0.01-0.03-0.02-0.04-0.02c-0.01,0-0.02-0.01-0.03-0.01
				l-0.1-0.02c-0.62-0.19-1.13-0.38-1.52-0.58c-0.39-0.2-0.73-0.5-1-0.92c-0.28-0.41-0.41-0.97-0.41-1.66v-0.31
				c0-0.65,0.14-1.21,0.41-1.68s0.67-0.83,1.19-1.07c0.52-0.24,1.15-0.37,1.9-0.37c0.56,0,1.06,0.09,1.49,0.27s0.79,0.45,1.07,0.81
				c0.29,0.36,0.5,0.81,0.65,1.35l-1.8,0.84c-0.15-0.43-0.36-0.75-0.62-0.98c-0.26-0.22-0.56-0.34-0.91-0.34
				c-0.44,0-0.77,0.09-1.01,0.28c-0.23,0.19-0.35,0.44-0.35,0.76v0.38c0,0.28,0.08,0.51,0.23,0.68c0.16,0.17,0.35,0.31,0.58,0.41
				c0.23,0.1,0.55,0.22,0.95,0.35c0.04,0.01,0.07,0.01,0.1,0.03c0.03,0.01,0.06,0.03,0.09,0.04c0.03,0.01,0.06,0.01,0.07,0.02
				c0.02,0.01,0.04,0.01,0.07,0.02c0.57,0.18,1.04,0.37,1.41,0.57c0.37,0.2,0.68,0.5,0.94,0.9c0.25,0.4,0.38,0.93,0.38,1.59v0.48
				c0,0.65-0.14,1.21-0.42,1.68s-0.69,0.83-1.23,1.07c-0.54,0.25-1.18,0.37-1.92,0.37C360.77,334.15,360.2,334.06,359.72,333.87z"/>
			<path d="M367.79,322.67h2.03v11.36h-2.03V322.67z M368.75,327.46h5.21v1.93h-5.21V327.46z M372.64,322.67h2.03v11.36h-2.03
				V322.67z"/>
			<path d="M379.3,333.74c-0.53-0.28-0.94-0.67-1.23-1.19c-0.29-0.52-0.43-1.12-0.43-1.82v-4.75c0-0.7,0.14-1.3,0.43-1.82
				c0.29-0.52,0.7-0.91,1.23-1.19c0.53-0.28,1.15-0.41,1.87-0.41c0.71,0,1.34,0.14,1.87,0.41c0.53,0.28,0.94,0.67,1.23,1.19
				c0.29,0.52,0.43,1.12,0.43,1.82v4.75c0,0.69-0.14,1.3-0.43,1.82c-0.29,0.52-0.7,0.92-1.23,1.19c-0.53,0.28-1.15,0.41-1.87,0.41
				C380.45,334.15,379.83,334.01,379.3,333.74z M381.93,331.93c0.22-0.12,0.39-0.29,0.5-0.52c0.11-0.22,0.17-0.49,0.17-0.8v-4.54
				c0-0.3-0.06-0.56-0.17-0.79c-0.11-0.22-0.28-0.4-0.5-0.52c-0.22-0.12-0.47-0.18-0.77-0.18c-0.29,0-0.55,0.06-0.76,0.18
				c-0.22,0.12-0.38,0.3-0.5,0.52c-0.12,0.22-0.18,0.49-0.18,0.79v4.54c0,0.31,0.06,0.57,0.18,0.8c0.12,0.22,0.28,0.4,0.5,0.52
				c0.22,0.12,0.47,0.18,0.76,0.18C381.45,332.11,381.71,332.05,381.93,331.93z"/>
			<path d="M391.36,322.67h1.6l1.7,7.73l1.02-7.73h2.09l-2.04,11.36h-1.93l-1.59-7.63l-1.68,7.63h-1.94l-2.03-11.36h2.09l1.01,7.73
				L391.36,322.67z"/>
			<path d="M399.92,322.67h2.02v11.37h-2.02V322.67z M400.78,327.39h2.99c0.19,0,0.36-0.04,0.51-0.13c0.15-0.09,0.26-0.21,0.33-0.36
				c0.08-0.16,0.11-0.34,0.11-0.55v-0.64c0-0.22-0.04-0.41-0.11-0.57c-0.08-0.16-0.19-0.29-0.33-0.38
				c-0.14-0.09-0.31-0.13-0.51-0.13h-2.99v-1.96h3.02c0.62,0,1.16,0.12,1.61,0.36c0.46,0.24,0.81,0.58,1.05,1.04
				c0.24,0.45,0.37,0.98,0.37,1.59v0.66c0,0.62-0.12,1.16-0.37,1.61c-0.25,0.46-0.6,0.81-1.05,1.05c-0.46,0.25-0.99,0.37-1.61,0.37
				h-3.02V327.39z M402.76,328.99l2.03-0.36l2.43,5.4h-2.33L402.76,328.99z"/>
			<path d="M409.88,322.67h2.03v11.36h-2.03V322.67z M410.7,322.67h5.51v1.98h-5.51V322.67z M410.7,327.41h4.88v1.96h-4.88V327.41z
				 M410.7,332.06h5.51v1.98h-5.51V332.06z"/>
			<path d="M418.82,322.67h2.03v11.36h-2.03V322.67z M419.69,332.07h5.38v1.96h-5.38V332.07z"/>
			<path d="M427.49,322.67h2.03v11.36h-2.03V322.67z M428.36,332.07h5.38v1.96h-5.38V332.07z"/>
		</g>
	</g>
</g>
</svg>
